<?xml version="1.0" encoding="utf-8"?>
<!-- Generator: Adobe Illustrator 19.0.0, SVG Export Plug-In . SVG Version: 6.00 Build 0)  -->
<svg version="1.1" id="Odnoklassniki" xmlns="http://www.w3.org/2000/svg" xmlns:xlink="http://www.w3.org/1999/xlink" x="0px"
	 y="0px" viewBox="-30 64.7 18 30" style="enable-background:new -30 64.7 18 30;" xml:space="preserve">
<path id="K" d="M-14,79.7c-1,0-3,2-7,2s-6-2-7-2c-1.1,0-2,0.9-2,2c0,1,0.6,1.5,1,1.7c1.2,0.7,5,2.3,5,2.3l-4.2,5.4
	c0,0-0.8,0.9-0.8,1.6c0,1.1,0.9,2,2,2c1,0,1.5-0.7,1.5-0.7s4.5-5.4,4.5-5.3c0,0,4.5,5.3,4.5,5.3s0.5,0.7,1.5,0.7c1.1,0,2-0.9,2-2
	c0-0.6-0.8-1.6-0.8-1.6l-4.2-5.4c0,0,3.8-1.6,5-2.3c0.4-0.3,1-0.7,1-1.7C-12,80.6-12.9,79.7-14,79.7z"/>
<path id="O" d="M-21,64.7c-3.9,0-7,3.1-7,7c0,3.9,3.1,7,7,7c3.9,0,7-3.1,7-7C-14,67.9-17.1,64.7-21,64.7z M-21,75.2
	c-1.9,0-3.5-1.6-3.5-3.5c0-1.9,1.6-3.5,3.5-3.5c1.9,0,3.5,1.6,3.5,3.5C-17.5,73.7-19.1,75.2-21,75.2z"/>
</svg>
