<?xml version="1.0" encoding="utf-8"?>
<!-- Generator: Adobe Illustrator 17.1.0, SVG Export Plug-In . SVG Version: 6.00 Build 0)  -->
<!DOCTYPE svg PUBLIC "-//W3C//DTD SVG 1.1//EN" "http://www.w3.org/Graphics/SVG/1.1/DTD/svg11.dtd">
<svg version="1.1" id="Layer_1" xmlns="http://www.w3.org/2000/svg" xmlns:xlink="http://www.w3.org/1999/xlink" x="0px" y="0px"
	 viewBox="0 0 17 10" enable-background="new 0 0 17 10" xml:space="preserve">
<path d="M16.9,9c0,0,0-0.1-0.1-0.1c-0.3-0.5-0.9-1.2-1.7-2l0,0l0,0l0,0h0c-0.4-0.4-0.6-0.6-0.7-0.7c-0.2-0.2-0.2-0.5-0.1-0.7
	c0.1-0.2,0.3-0.6,0.8-1.2c0.2-0.3,0.4-0.6,0.6-0.8c1-1.4,1.5-2.3,1.3-2.7l-0.1-0.1c0-0.1-0.1-0.1-0.3-0.2c-0.1,0-0.3-0.1-0.6,0
	l-2.5,0c0,0-0.1,0-0.2,0c-0.1,0-0.1,0-0.1,0l0,0l0,0c0,0-0.1,0.1-0.1,0.1c0,0-0.1,0.1-0.1,0.2c-0.3,0.7-0.6,1.4-0.9,2.1
	c-0.2,0.4-0.4,0.7-0.6,1c-0.2,0.3-0.3,0.5-0.5,0.6c-0.1,0.1-0.2,0.2-0.3,0.3c-0.1,0.1-0.2,0.1-0.2,0.1c-0.1,0-0.1,0-0.2,0
	c-0.1-0.1-0.1-0.1-0.2-0.2C10,4.5,10,4.4,9.9,4.3c0-0.1,0-0.3,0-0.4c0-0.1,0-0.2,0-0.4c0-0.2,0-0.3,0-0.4c0-0.2,0-0.5,0-0.8
	c0-0.3,0-0.5,0-0.6c0-0.2,0-0.3,0-0.5s0-0.3,0-0.4c0-0.1-0.1-0.2-0.1-0.3c0-0.1-0.1-0.2-0.2-0.2C9.6,0.2,9.5,0.2,9.4,0.1
	C9.1,0,8.7,0,8.2,0C7.1,0,6.4,0.1,6.1,0.2C5.9,0.3,5.8,0.4,5.7,0.5c-0.1,0.1-0.1,0.2,0,0.2C6,0.8,6.3,0.9,6.4,1.1l0.1,0.1
	c0,0.1,0.1,0.2,0.1,0.4c0,0.2,0.1,0.4,0.1,0.7c0,0.4,0,0.8,0,1.1c0,0.3-0.1,0.6-0.1,0.7c0,0.2-0.1,0.3-0.1,0.4
	C6.4,4.7,6.4,4.8,6.4,4.8c0,0,0,0,0,0c-0.1,0-0.2,0-0.2,0c-0.1,0-0.2,0-0.3-0.1C5.7,4.7,5.6,4.6,5.4,4.4C5.3,4.3,5.2,4.1,5,3.8
	C4.8,3.5,4.7,3.2,4.5,2.8L4.4,2.6C4.3,2.4,4.2,2.2,4,1.8C3.8,1.5,3.7,1.2,3.6,0.9c0-0.1-0.1-0.2-0.2-0.3l0,0c0,0-0.1-0.1-0.1-0.1
	c-0.1,0-0.1,0-0.2-0.1l-2.4,0c-0.2,0-0.4,0.1-0.5,0.2l0,0.1c0,0,0,0.1,0,0.1C0,0.9,0,1,0.1,1.1c0.4,0.9,0.7,1.7,1.2,2.5
	C1.6,4.4,2,5,2.3,5.5C2.6,6,2.9,6.4,3.2,6.9c0.3,0.4,0.5,0.7,0.6,0.8C4,7.8,4,7.9,4.1,8l0.2,0.2C4.5,8.3,4.7,8.5,5,8.7
	c0.3,0.2,0.6,0.4,0.9,0.6C6.2,9.5,6.6,9.7,7,9.8C7.5,9.9,7.9,10,8.3,10h1c0.2,0,0.4-0.1,0.5-0.2l0,0c0,0,0-0.1,0.1-0.2
	c0-0.1,0-0.2,0-0.3c0-0.3,0-0.5,0.1-0.7c0-0.2,0.1-0.4,0.2-0.5c0.1-0.1,0.1-0.2,0.2-0.3c0.1-0.1,0.1-0.1,0.2-0.1c0,0,0.1,0,0.1,0
	c0.1,0,0.3,0,0.5,0.1c0.2,0.1,0.4,0.3,0.5,0.5C11.8,8.6,12,8.8,12.2,9c0.2,0.3,0.4,0.5,0.6,0.6L13,9.7c0.1,0.1,0.3,0.1,0.5,0.2
	c0.2,0.1,0.4,0.1,0.5,0l2.3,0c0.2,0,0.4,0,0.5-0.1c0.1-0.1,0.2-0.2,0.2-0.3c0-0.1,0-0.2,0-0.3C16.9,9.2,16.9,9.1,16.9,9z"/>
</svg>
