<?xml version="1.0" encoding="utf-8"?>
<!-- Generator: Adobe Illustrator 19.0.0, SVG Export Plug-In . SVG Version: 6.00 Build 0)  -->
<svg version="1.1" id="Layer_1" xmlns="http://www.w3.org/2000/svg" xmlns:xlink="http://www.w3.org/1999/xlink" x="0px" y="0px"
	 viewBox="204 -320.1 512 654.9" style="enable-background:new 204 -320.1 512 654.9;" xml:space="preserve">
<style type="text/css">
	.st0{fill:#303A3F;}
	.st1{fill:none;stroke:#2F3435;stroke-width:12;stroke-linecap:square;stroke-miterlimit:10;}
	.st2{fill:none;stroke:#2F3435;stroke-width:12;stroke-miterlimit:10;}
</style>
<g>
	<ellipse class="st0" cx="446.5" cy="235.4" rx="44.3" ry="43.3"/>
	<ellipse class="st0" cx="583.9" cy="235.4" rx="44.3" ry="43.3"/>
	<path class="st0" d="M670.9-64.3H364.1c-0.7,0-1.4,0.2-2.1,0.2l-7.8-39c-1.4-10.3-8.5-16.5-21.8-18.3H220.5
		c-25.5,0.1-26.2,62.9,32.1,54.8l56.4-0.5l10,46.9v0.1l30.4,150.2c0,24.3,20.3,44.2,45.1,44.2h246c24.8,0,45.1-19.9,45.1-44.2
		L716-20.1C716-44.4,695.7-64.3,670.9-64.3z M407.3,130.2l-1,0.1c-8.3,1-16.1-4.7-17.2-12.6L371.7-0.6c-1.2-8.1,4.9-15.6,13.5-16.6
		l1-0.1c8.3-1,16.1,4.7,17.2,12.6l17.4,118.3C422,121.7,415.9,129.2,407.3,130.2z M485.9,130.6l-1.1,0.1
		c-8.4,0.6-15.9-5.5-16.5-13.5L458.4-1.7c-0.7-8.1,5.8-15.3,14.4-15.8l1.1-0.1c8.4-0.6,15.9,5.5,16.5,13.5l9.9,118.9
		C501,123,494.5,130.1,485.9,130.6z M577,116.4c-0.1,8.1-7.2,14.6-15.7,14.5h-1.1c-8.5-0.1-15.4-6.8-15.3-14.9l2-119.2
		c0.1-8.1,7.2-14.6,15.7-14.5h1.1c8.5,0.1,15.4,6.8,15.3,14.9L577,116.4z M667.7,0l-20.3,117.9c-1.3,7.8-9.2,13.3-17.5,12.2l-1-0.1
		c-8.6-1.2-14.5-8.8-13.1-16.9L636-4.8c1.3-7.8,9.2-13.3,17.5-12.2l1,0.1C663.2-15.7,669.1-8.1,667.7,0z"/>
</g>
<g>
	<g>
		<line class="st1" x1="585" y1="-198.7" x2="513.3" y2="-127"/>
		<line class="st1" x1="513.3" y1="-127" x2="441.7" y2="-198.7"/>
	</g>
	<line class="st2" x1="513.3" y1="-127" x2="513.3" y2="-310"/>
</g>
</svg>
