<?xml version="1.0" encoding="utf-8"?>
<!-- Generator: Adobe Illustrator 17.1.0, SVG Export Plug-In . SVG Version: 6.00 Build 0)  -->
<!DOCTYPE svg PUBLIC "-//W3C//DTD SVG 1.1//EN" "http://www.w3.org/Graphics/SVG/1.1/DTD/svg11.dtd">
<svg version="1.1" fill="#ffcc00" id="Layer_1" xmlns="http://www.w3.org/2000/svg" xmlns:xlink="http://www.w3.org/1999/xlink" x="0px" y="0px"
	 viewBox="0 0 7 14" enable-background="new 0 0 7 14" xml:space="preserve">
<path d="M1.5,2.7c0,0.4,0,1.9,0,1.9H0V7h1.5v7h3.1V7h2.1c0,0,0.2-1.1,0.3-2.4c-0.3,0-2.4,0-2.4,0s0-1.4,0-1.6c0-0.2,0.3-0.6,0.7-0.6
	c0.3,0,1,0,1.7,0C7,2.1,7,1,7,0C6.1,0,5.1,0,4.7,0C1.4,0,1.5,2.4,1.5,2.7z"/>
</svg>
