<?xml version="1.0" encoding="utf-8"?>
<!-- Generator: Adobe Illustrator 17.1.0, SVG Export Plug-In . SVG Version: 6.00 Build 0)  -->
<!DOCTYPE svg PUBLIC "-//W3C//DTD SVG 1.1//EN" "http://www.w3.org/Graphics/SVG/1.1/DTD/svg11.dtd">
<svg version="1.1" id="Layer_1" xmlns="http://www.w3.org/2000/svg" xmlns:xlink="http://www.w3.org/1999/xlink" x="0px" y="0px"
	 viewBox="0 0 14 14" enable-background="new 0 0 14 14" xml:space="preserve">
<path fill="#ffcc00" d="M13.5,0.5C13.1,0.2,12.7,0,12.2,0H1.8C1.3,0,0.9,0.2,0.5,0.5C0.2,0.9,0,1.3,0,1.8v10.4
	c0,0.5,0.2,0.9,0.5,1.3C0.9,13.8,1.3,14,1.8,14h10.4c0.5,0,0.9-0.2,1.3-0.5c0.4-0.4,0.5-0.8,0.5-1.3V1.8C14,1.3,13.8,0.9,13.5,0.5z
	 M5,5c0.5-0.5,1.2-0.8,2-0.8c0.8,0,1.4,0.3,2,0.8C9.6,5.6,9.8,6.2,9.8,7c0,0.8-0.3,1.4-0.8,1.9C8.5,9.4,7.8,9.7,7,9.7
	c-0.8,0-1.4-0.3-2-0.8C4.5,8.4,4.2,7.7,4.2,7C4.2,6.2,4.5,5.6,5,5z M12.4,11.8c0,0.2-0.1,0.3-0.2,0.4c-0.1,0.1-0.2,0.2-0.4,0.2H2.1
	c-0.2,0-0.3-0.1-0.4-0.2c-0.1-0.1-0.2-0.2-0.2-0.4V5.9h1.3C2.7,6.3,2.7,6.7,2.7,7.1c0,1.2,0.4,2.2,1.3,3c0.9,0.8,1.9,1.2,3.1,1.2
	c0.8,0,1.5-0.2,2.2-0.6c0.7-0.4,1.2-0.9,1.6-1.5c0.4-0.6,0.6-1.4,0.6-2.1c0-0.4-0.1-0.8-0.2-1.2h1.2V11.8L12.4,11.8z M12.4,3.7
	c0,0.2-0.1,0.3-0.2,0.4c-0.1,0.1-0.3,0.2-0.4,0.2h-1.6c-0.2,0-0.3-0.1-0.4-0.2C9.6,4,9.6,3.9,9.6,3.7V2.2c0-0.2,0.1-0.3,0.2-0.4
	c0.1-0.1,0.3-0.2,0.4-0.2h1.6c0.2,0,0.3,0.1,0.4,0.2c0.1,0.1,0.2,0.3,0.2,0.4V3.7z"/>
</svg>
