<?xml version="1.0" standalone="no"?>
<!DOCTYPE svg PUBLIC "-//W3C//DTD SVG 1.1//EN" "http://www.w3.org/Graphics/SVG/1.1/DTD/svg11.dtd" >
<svg>
<metadata>
Created by FontForge 20090622 at Fri Nov 18 12:46:01 2016
 By deploy user
Copyright (c) 2013 by Mariya Pigoulevskaya. All rights reserved.
</metadata>
<defs>
<font id="Merel-Black" horiz-adv-x="539" >
  <font-face 
    font-family="Merel-Black"
    font-weight="400"
    font-stretch="normal"
    units-per-em="1000"
    panose-1="0 0 10 0 0 0 0 0 0 0"
    ascent="789"
    descent="-211"
    x-height="400"
    cap-height="650"
    bbox="-82 -366.5 1155 1170"
    underline-thickness="50"
    underline-position="-50"
    unicode-range="U+0020-U+25CA"
  />
<missing-glyph horiz-adv-x="500" 
d="M0 0v700h500v-700h-500zM250 395l170 255h-340zM280 350l170 -255v510zM80 50h340l-170 255zM50 605v-510l170 255z" />
    <glyph glyph-name=".notdef" horiz-adv-x="500" 
d="M0 0v700h500v-700h-500zM250 395l170 255h-340zM280 350l170 -255v510zM80 50h340l-170 255zM50 605v-510l170 255z" />
    <glyph glyph-name=".null" horiz-adv-x="0" 
 />
    <glyph glyph-name="nonmarkingreturn" horiz-adv-x="333" 
 />
    <glyph glyph-name="space" unicode=" " horiz-adv-x="250" 
 />
    <glyph glyph-name="exclam" unicode="!" horiz-adv-x="240" 
d="M200 537l-34 -302q-46 -11 -92 0l-34 302v113q80 14 160 0v-113zM120 154q38 0 64 -24t26 -61q0 -36 -26 -60t-64 -24t-64 24t-26 60q0 37 26 61t64 24z" />
    <glyph glyph-name="quotedbl" unicode="&#x22;" horiz-adv-x="427" 
d="M189 650l-47 -197q-56 -10 -112 0v197q80 14 159 0zM397 650l-47 -197q-56 -10 -112 0v197q80 14 159 0z" />
    <glyph glyph-name="numbersign" unicode="#" horiz-adv-x="583" 
d="M412 288h96q1 -15 -7 -43t-16 -38h-96l-60 -207q-45 -12 -90 0l60 207h-82l-60 -207q-45 -12 -90 0l60 207h-97q-1 15 7 43t16 38h97l21 74h-96q-1 15 7 43t16 38h96l60 207q45 12 90 0l-60 -207h82l60 207q45 12 90 0l-60 -207h97q1 -15 -7 -43t-16 -38h-97zM261 362
l-21 -74h82l21 74h-82z" />
    <glyph glyph-name="dollar" unicode="$" horiz-adv-x="552" 
d="M507 191q0 -91 -58 -144t-150 -61v-94q-25 -12 -49 0v93q-101 5 -178 50q-6 17 -7 78.5t7 73.5q117 -69 190 -69q41 0 62 16.5t21 44.5q0 27 -23 41t-97 38q-35 12 -62 25t-56.5 36t-45.5 58t-16 79q0 82 54.5 140.5t150.5 67.5v94q24 12 49 0v-94q86 -4 161 -49
q6 -19 7 -79.5t-7 -72.5q-117 69 -179 69q-34 0 -54 -16t-20 -44t24 -42.5t92 -35.5q37 -12 63.5 -24.5t57 -35t47 -59t16.5 -84.5z" />
    <glyph glyph-name="percent" unicode="%" horiz-adv-x="752" 
d="M176 665q67 0 106.5 -46t39.5 -124t-39.5 -124t-106.5 -46t-106.5 46t-39.5 124t39.5 124t106.5 46zM575 650l-308 -650q-45 -12 -90 0l308 650q45 12 90 0zM176 578q-39 0 -39 -83t39 -83t39 83t-39 83zM576 325q67 0 106.5 -46t39.5 -124t-39.5 -124t-106.5 -46
t-106.5 46t-39.5 124t39.5 124t106.5 46zM576 238q-39 0 -39 -83t39 -83t39 83t-39 83z" />
    <glyph glyph-name="ampersand" unicode="&#x26;" horiz-adv-x="722" 
d="M282 665q83 0 144 -41t61 -120q0 -54 -33 -94t-95 -79l84 -84q24 41 40 102q80 14 160 0q-31 -123 -93 -208l140 -140q-34 -6 -97 -6t-97 6l-43 43q-85 -60 -187 -60q-97 0 -165.5 51.5t-68.5 142.5q0 103 110 180q-63 71 -63 136q0 74 59 122.5t144 48.5zM283 532
q-18 0 -31 -11.5t-13 -30.5q0 -28 27 -62q34 18 47.5 33t13.5 33q0 17 -11.5 27.5t-32.5 10.5zM353 144l-113 112q-45 -33 -45 -71q0 -34 23 -51t54 -17q40 0 81 27z" />
    <glyph glyph-name="quotesingle" unicode="'" horiz-adv-x="219" 
d="M189 650l-47 -197q-56 -10 -112 0v197q80 14 159 0z" />
    <glyph glyph-name="parenleft" unicode="(" horiz-adv-x="292" 
d="M262 650q-41 -79 -64 -182.5t-23 -198.5t23 -198.5t64 -182.5q-70 -12 -140 0q-92 156 -92 381t92 381q70 12 140 0z" />
    <glyph glyph-name="parenright" unicode=")" horiz-adv-x="292" 
d="M170 650q92 -156 92 -381t-92 -381q-70 -12 -140 0q41 79 64 182.5t23 198.5t-23 198.5t-64 182.5q70 12 140 0z" />
    <glyph glyph-name="asterisk" unicode="*" horiz-adv-x="437" 
d="M254 518l119 58q28 -48 34 -103l-127 -22l94 -95q-37 -45 -85 -66l-70 124l-71 -124q-48 21 -85 66l94 95l-127 22q6 55 34 103l119 -58l-18 132q53 11 107 0z" />
    <glyph glyph-name="plus" unicode="+" horiz-adv-x="416" 
d="M261 310h119q12 -54 0 -110h-120v-117q-52 -12 -105 0v118h-119q-12 54 0 109h119v117q52 12 106 0v-117z" />
    <glyph glyph-name="comma" unicode="," horiz-adv-x="248" 
d="M120 154q39 0 68.5 -27t29.5 -82q0 -60 -33.5 -119t-62.5 -76q-38 -7 -77 0q56 52 95 137q-14 -2 -21 -2q-37 0 -63 24t-26 60q0 37 26.5 61t63.5 24z" />
    <glyph glyph-name="hyphen" unicode="-" horiz-adv-x="347" 
d="M36 310h275q12 -54 0 -110l-275 1q-12 54 0 109z" />
    <glyph glyph-name="period" unicode="." horiz-adv-x="240" 
d="M120 -15q-38 0 -64 24t-26 60q0 37 26 61t64 24t64 -24t26 -61q0 -36 -26 -60t-64 -24z" />
    <glyph glyph-name="slash" unicode="/" horiz-adv-x="366" 
d="M336 650l-171 -650q-67 -12 -135 0l171 650q68 12 135 0z" />
    <glyph glyph-name="zero" unicode="0" horiz-adv-x="648" 
d="M324 665q129 0 204 -92t75 -248t-75 -248t-204 -92t-204 92t-75 248t75 248t204 92zM324 532q-116 0 -116 -207t116 -207t116 207t-116 207z" />
    <glyph glyph-name="one" unicode="1" horiz-adv-x="403" 
d="M39 529l169 121q62 11 125 0v-650q-80 -14 -160 0v472l-134 -97q-8 12 -7 74.5t7 79.5z" />
    <glyph glyph-name="two" unicode="2" horiz-adv-x="531" 
d="M297 133h188q12 -67 0 -133h-453v10q175 215 229.5 302t54.5 134q0 43 -24 64.5t-61 21.5q-64 0 -162 -69q-8 12 -7 72.5t7 79.5q26 21 73.5 35.5t101.5 14.5q112 0 173 -60t61 -151q0 -71 -43 -143t-138 -178z" />
    <glyph glyph-name="three" unicode="3" horiz-adv-x="545" 
d="M264 665q107 0 170 -48.5t63 -129.5q0 -51 -24 -91t-65 -62q48 -22 75 -63.5t27 -96.5q0 -88 -68.5 -139t-170.5 -51q-118 0 -197 50q-6 19 -7 79.5t7 72.5q112 -69 183 -69q38 0 64 19t26 58q0 69 -76 69h-79q-11 63 0 126h75q32 0 51 18.5t19 52.5q0 35 -22 53.5
t-58 18.5q-66 0 -178 -69q-8 12 -7 72.5t7 79.5q80 50 185 50z" />
    <glyph glyph-name="four" unicode="4" horiz-adv-x="583" 
d="M470 252h75q11 -65 0 -131h-75v-121q-80 -14 -160 0v121h-272q-11 65 0 131l307 398q63 11 125 0v-398zM310 427l-135 -175h135v175z" />
    <glyph glyph-name="five" unicode="5" horiz-adv-x="537" 
d="M147 650h321q12 -67 0 -133h-200l-16 -110q24 2 37 2q91 0 152 -55t61 -152q0 -102 -69 -160t-177 -58q-54 0 -107.5 14.5t-86.5 35.5q-6 19 -7 79.5t7 72.5q112 -69 183 -69q41 0 67.5 22.5t26.5 61.5q0 44 -33 66t-86 22q-50 0 -128 -29z" />
    <glyph glyph-name="six" unicode="6" horiz-adv-x="580" 
d="M350 416q83 -2 134 -61t51 -142q0 -95 -66.5 -161.5t-177.5 -66.5q-113 0 -179.5 68.5t-66.5 173.5q0 68 31 141t76 129t86.5 96t71.5 57q35 6 95.5 6t94.5 -6q-171 -147 -235 -254q36 21 85 20zM290 118q37 0 59.5 25t22.5 67q0 39 -23 61t-59 22q-43 0 -77 -31
q-5 -32 -5 -58q0 -35 22 -60.5t60 -25.5z" />
    <glyph glyph-name="seven" unicode="7" horiz-adv-x="558" 
d="M526 640l-286 -640q-34 -6 -86 -6t-86 6l231 517h-248q-12 67 0 133h475v-10z" />
    <glyph glyph-name="eight" unicode="8" horiz-adv-x="548" 
d="M274 665q102 0 164 -50t62 -128q0 -51 -24 -91t-65 -62q48 -22 75 -63.5t27 -96.5q0 -88 -67 -139t-172 -51t-172 51t-67 139q0 55 27 96.5t75 63.5q-41 22 -65 62t-24 91q0 78 62 128t164 50zM274 532q-30 0 -49 -20t-19 -52t18.5 -52t47.5 -20h4q29 0 47.5 20t18.5 52
t-19 52t-49 20zM276 264h-4q-32 0 -53 -19t-21 -54q0 -36 21.5 -55t54.5 -19t54.5 19t21.5 55q0 35 -21 54t-53 19z" />
    <glyph glyph-name="nine" unicode="9" horiz-adv-x="580" 
d="M289 665q113 0 179.5 -68.5t66.5 -173.5q0 -68 -31 -141t-76 -129t-86.5 -96t-71.5 -57q-35 -6 -95.5 -6t-94.5 6q171 147 235 254q-36 -21 -85 -20q-83 2 -134 61t-51 142q0 95 66.5 161.5t177.5 66.5zM290 532q-37 0 -59.5 -25t-22.5 -67q0 -39 23 -61t59 -22
q43 0 77 31q5 32 5 58q0 35 -22 60.5t-60 25.5z" />
    <glyph glyph-name="colon" unicode=":" horiz-adv-x="240" 
d="M120 246q-38 0 -64 24t-26 60q0 37 26 61t64 24t64 -24t26 -61q0 -36 -26 -60t-64 -24zM120 -15q-38 0 -64 24t-26 60q0 37 26 61t64 24t64 -24t26 -61q0 -36 -26 -60t-64 -24z" />
    <glyph glyph-name="semicolon" unicode=";" horiz-adv-x="248" 
d="M120 415q38 0 64 -24t26 -61q0 -36 -26 -60t-64 -24t-64 24t-26 60q0 37 26 61t64 24zM120 154q39 0 68.5 -27t29.5 -82q0 -60 -33.5 -119t-62.5 -76q-38 -7 -77 0q56 52 95 137q-14 -2 -21 -2q-37 0 -63 24t-26 60q0 37 26.5 61t63.5 24z" />
    <glyph glyph-name="less" unicode="&#x3c;" horiz-adv-x="429" 
d="M36 286l357 191q14 -62 0 -125l-174 -90l174 -90q14 -63 0 -125l-357 191q-13 25 0 48z" />
    <glyph glyph-name="equal" unicode="=" horiz-adv-x="416" 
d="M36 400h344q12 -54 0 -110l-344 1q-12 55 0 109zM36 233h344q12 -54 0 -110l-344 1q-12 54 0 109z" />
    <glyph glyph-name="greater" unicode="&#x3e;" horiz-adv-x="429" 
d="M36 477l357 -191q13 -23 0 -48l-357 -191q-14 62 0 125l174 90l-174 90q-14 63 0 125z" />
    <glyph glyph-name="question" unicode="?" horiz-adv-x="482" 
d="M288 235q-40 -7 -80 -7t-80 7q0 47 15 72.5t65 67.5q8 6 20 17l18 14l14 12q9 8 12 11.5t7.5 9.5t6 10.5t3 10.5t1.5 12q0 29 -20 44.5t-54 15.5q-62 0 -179 -69q-8 12 -7 72.5t7 79.5q85 50 196 50q106 0 162.5 -52t56.5 -126q0 -49 -25.5 -82.5t-90.5 -88.5
q-32 -27 -40 -39.5t-8 -41.5zM208 -15q-38 0 -64 24t-26 60q0 37 26 61t64 24t64 -24t26 -61q0 -36 -26 -60t-64 -24z" />
    <glyph glyph-name="at" unicode="@" horiz-adv-x="903" 
d="M469 603q183 0 286 -102t103 -254q0 -139 -55 -200.5t-132 -61.5q-41 0 -81 17.5t-63 52.5q-28 -37 -56.5 -53.5t-73.5 -16.5q-83 0 -133.5 61.5t-50.5 153.5t50.5 153.5t133.5 61.5q77 0 124 -62l11 47q62 11 125 0v-240q0 -64 31 -64q26 0 43 36.5t17 114.5
q0 124 -75.5 189.5t-203.5 65.5q-136 0 -225 -78.5t-89 -221.5q0 -64 19.5 -115t51.5 -81.5t63 -48t64 -25.5q8 -12 7.5 -48t-6.5 -53q-126 15 -217.5 119t-91.5 253q0 171 118 285.5t306 114.5zM437 290q-35 0 -57 -24t-22 -66t22 -66t57 -24q41 0 75 32v116q-34 32 -75 32
z" />
    <glyph glyph-name="A" unicode="A" horiz-adv-x="724" 
d="M428 650l264 -650q-82 -14 -165 0l-46 123h-238l-46 -123q-83 -14 -165 0l264 650q66 11 132 0zM293 258h138l-69 186z" />
    <glyph glyph-name="B" unicode="B" horiz-adv-x="610" 
d="M70 650h280q94 0 153 -47.5t59 -122.5q0 -99 -89 -144q47 -21 74.5 -60t27.5 -92q0 -86 -60.5 -135t-162.5 -49h-282v650zM230 517v-134h102q32 0 51 17.5t19 49.5q0 67 -70 67h-102zM230 271v-138h112q70 0 70 70q0 68 -76 68h-106z" />
    <glyph glyph-name="C" unicode="C" horiz-adv-x="684" 
d="M421 118q88 0 189 62q8 -12 7 -70t-7 -75q-81 -50 -198 -50q-166 0 -266.5 98t-100.5 242t100.5 242t266.5 98q117 0 198 -50q6 -17 7 -75t-7 -70q-101 62 -189 62q-91 0 -152 -56.5t-61 -150.5t61 -150.5t152 -56.5z" />
    <glyph glyph-name="D" unicode="D" horiz-adv-x="707" 
d="M70 650h247q153 0 249 -91.5t96 -233.5t-96 -233.5t-249 -91.5h-247v650zM230 133h87q78 0 130 49.5t52 142.5t-52 142.5t-130 49.5h-87v-384z" />
    <glyph glyph-name="E" unicode="E" horiz-adv-x="564" 
d="M230 133h293q12 -66 0 -133h-453v650h453q12 -67 0 -133h-293v-122h259q12 -67 0 -133h-259v-129z" />
    <glyph glyph-name="F" unicode="F" horiz-adv-x="564" 
d="M230 388h259q12 -66 0 -133h-259v-255q-80 -14 -160 0v650h453q12 -67 0 -133h-293v-129z" />
    <glyph glyph-name="G" unicode="G" horiz-adv-x="698" 
d="M474 120v197q78 14 157 0v-282q-32 -20 -93 -35t-126 -15q-166 0 -266.5 98t-100.5 242t100.5 242t266.5 98q117 0 198 -50q6 -17 7 -75t-7 -70q-101 62 -189 62q-91 0 -152 -56.5t-61 -150.5q0 -96 61 -153t152 -57q23 0 53 5z" />
    <glyph glyph-name="H" unicode="H" horiz-adv-x="729" 
d="M499 395v255q80 14 160 0v-650q-80 -14 -160 0v262h-269v-262q-80 -14 -160 0v650q80 14 160 0v-255h269z" />
    <glyph glyph-name="I" unicode="I" horiz-adv-x="300" 
d="M230 650v-650q-80 -14 -160 0v650q80 14 160 0z" />
    <glyph glyph-name="J" unicode="J" horiz-adv-x="408" 
d="M338 650v-466q0 -94 -48 -146.5t-132 -52.5q-70 0 -119 31q-6 17 -7 67t7 62q46 -17 73 -17q66 0 66 71v451q80 14 160 0z" />
    <glyph glyph-name="K" unicode="K" horiz-adv-x="675" 
d="M401 334l242 -334q-35 -6 -95 -6t-94 6l-224 312v-312q-80 -14 -160 0v650q80 14 160 0v-294l216 294q35 6 94.5 6t94.5 -6z" />
    <glyph glyph-name="L" unicode="L" horiz-adv-x="536" 
d="M230 133h268q12 -66 0 -133h-428v650q80 14 160 0v-517z" />
    <glyph glyph-name="M" unicode="M" horiz-adv-x="928" 
d="M742 650l154 -650q-78 -14 -156 0l-80 365l-132 -365q-64 -11 -128 0l-132 365l-80 -365q-78 -14 -156 0l154 650q67 12 134 0l144 -398l144 398q67 12 134 0z" />
    <glyph glyph-name="N" unicode="N" horiz-adv-x="722" 
d="M655 650v-650q-63 -11 -125 0l-303 381v-381q-80 -14 -160 0v650q63 11 125 0l303 -381v381q80 14 160 0z" />
    <glyph glyph-name="O" unicode="O" horiz-adv-x="780" 
d="M390 665q152 0 248.5 -98.5t96.5 -241.5t-96.5 -241.5t-248.5 -98.5t-248.5 98.5t-96.5 241.5t96.5 241.5t248.5 98.5zM390 532q-76 0 -129 -56.5t-53 -150.5t53 -150.5t129 -56.5t129 56.5t53 150.5t-53 150.5t-129 56.5z" />
    <glyph glyph-name="P" unicode="P" horiz-adv-x="615" 
d="M70 650h255q109 0 177 -60t68 -158t-68 -158t-177 -60h-95v-214q-80 -14 -160 0v650zM230 347h95q35 0 58.5 21.5t23.5 63.5t-23.5 63.5t-58.5 21.5h-95v-170z" />
    <glyph glyph-name="Q" unicode="Q" horiz-adv-x="780" 
d="M390 665q152 0 248.5 -98.5t96.5 -241.5q0 -104 -53.5 -187.5t-145.5 -123.5l123 -179q-83 -14 -166 0l-103 150h-9q-148 3 -242 101t-94 239q0 143 96.5 241.5t248.5 98.5zM390 532q-76 0 -129 -56.5t-53 -150.5t53 -150.5t129 -56.5t129 56.5t53 150.5t-53 150.5
t-129 56.5z" />
    <glyph glyph-name="R" unicode="R" horiz-adv-x="641" 
d="M70 650h260q109 0 177 -59.5t68 -155.5q0 -65 -33 -115t-91 -76l158 -244q-35 -6 -87.5 -6t-86.5 6l-143 220h-62v-220q-80 -14 -160 0v650zM230 517v-164h100q35 0 58.5 21t23.5 61t-23.5 61t-58.5 21h-100z" />
    <glyph glyph-name="S" unicode="S" horiz-adv-x="552" 
d="M280 665q95 0 180 -50q6 -19 7 -79.5t-7 -72.5q-117 69 -179 69q-34 0 -54 -16t-20 -44t24 -42.5t92 -35.5q37 -12 63.5 -24.5t57 -35t47 -59t16.5 -84.5q0 -99 -67.5 -152.5t-171.5 -53.5q-113 0 -196 50q-6 17 -7 78.5t7 73.5q117 -69 190 -69q41 0 62 16.5t21 44.5
q0 27 -23 41t-97 38q-35 12 -62 25t-56.5 36t-45.5 58t-16 79q0 89 62.5 149t172.5 60z" />
    <glyph glyph-name="T" unicode="T" horiz-adv-x="588" 
d="M38 650h512q12 -67 0 -133h-176v-517q-80 -14 -160 0v517h-176q-12 67 0 133z" />
    <glyph glyph-name="U" unicode="U" horiz-adv-x="691" 
d="M461 248v402q81 14 163 0v-377q0 -288 -277 -288t-277 288v377q81 14 163 0v-402q0 -58 29.5 -94t84.5 -36t84.5 36t29.5 94z" />
    <glyph glyph-name="V" unicode="V" horiz-adv-x="714" 
d="M357 239l160 411q83 14 165 0l-259 -650q-66 -11 -132 0l-259 650q83 14 165 0z" />
    <glyph glyph-name="W" unicode="W" horiz-adv-x="1026" 
d="M994 650l-224 -650q-66 -11 -132 0l-125 384l-125 -384q-66 -11 -132 0l-224 650q83 14 165 0l125 -412l125 412q66 11 132 0l125 -412l125 412q83 14 165 0z" />
    <glyph glyph-name="X" unicode="X" horiz-adv-x="683" 
d="M449 334l202 -334q-35 -6 -92 -6t-91 6l-132 222l-121 -222q-35 -6 -92 -6t-91 6l202 334l-194 316q34 6 91 6t92 -6l124 -206l113 206q34 6 91.5 6t91.5 -6z" />
    <glyph glyph-name="Y" unicode="Y" horiz-adv-x="698" 
d="M429 225v-225q-80 -14 -160 0v225l-237 425q35 6 86 6t85 -6l146 -276l146 276q35 6 86 6t85 -6z" />
    <glyph glyph-name="Z" unicode="Z" horiz-adv-x="563" 
d="M270 133h252q12 -66 0 -133h-487v10l258 507h-240q-12 67 0 133h475v-10z" />
    <glyph glyph-name="bracketleft" unicode="[" horiz-adv-x="305" 
d="M175 14h94q11 -62 0 -126h-239v761l239 1q11 -62 0 -126h-94v-510z" />
    <glyph glyph-name="backslash" unicode="\" horiz-adv-x="366" 
d="M201 0l-171 650q68 12 135 0l171 -650q-68 -12 -135 0z" />
    <glyph glyph-name="bracketright" unicode="]" horiz-adv-x="305" 
d="M275 -112h-239q-11 64 0 126h94v510h-94q-11 64 0 126l239 -1v-761z" />
    <glyph glyph-name="asciicircum" unicode="^" horiz-adv-x="404" 
d="M202 650l165 -166q6 -19 7 -81t-7 -74l-165 167l-165 -167q-8 12 -7 74t7 81z" />
    <glyph glyph-name="underscore" unicode="_" horiz-adv-x="465" 
d="M36 -18h393q12 -54 0 -110l-393 1q-12 55 0 109z" />
    <glyph glyph-name="grave" unicode="`" horiz-adv-x="266" 
d="M125 940l111 -174q-9 -17 -33 -35t-43 -22l-130 159q8 18 41.5 43t53.5 29z" />
    <glyph glyph-name="a" unicode="a" horiz-adv-x="474" 
d="M228 415q101 0 147 -48.5t46 -144.5v-222q-63 -11 -125 0l-9 40q-47 -55 -113 -55q-56 0 -96.5 34t-40.5 95q0 60 40.5 94t102.5 34t96 -29v22q0 34 -18.5 49t-60.5 15q-57 0 -122 -35q-8 12 -7 55.5t7 60.5q57 35 153 35zM219 154q-38 0 -38 -30q0 -13 9.5 -22t27.5 -9
q33 0 58 17v28q-21 16 -57 16z" />
    <glyph glyph-name="b" unicode="b" 
d="M315 415q83 0 133.5 -61.5t50.5 -153.5t-50.5 -153.5t-133.5 -61.5q-77 0 -124 62l-11 -47q-62 -11 -125 0v650q73 13 145 0v-285q42 50 115 50zM275 110q35 0 57 24t22 66t-22 66t-57 24q-41 0 -75 -32v-116q34 -32 75 -32z" />
    <glyph glyph-name="c" unicode="c" horiz-adv-x="460" 
d="M281 107q54 0 119 38q8 -12 7 -56.5t-7 -61.5q-56 -42 -134 -42q-101 0 -163.5 59.5t-62.5 155.5t62.5 155.5t163.5 59.5q78 0 134 -42q6 -17 7 -61.5t-7 -56.5q-65 38 -119 38q-42 0 -69 -24.5t-27 -68.5t27 -68.5t69 -24.5z" />
    <glyph glyph-name="d" unicode="d" 
d="M339 365v285q72 13 145 0v-650q-62 -11 -125 0l-11 47q-47 -62 -124 -62q-83 0 -133.5 61.5t-50.5 153.5t50.5 153.5t133.5 61.5q73 0 115 -50zM339 142v116q-34 32 -75 32q-35 0 -57 -24t-22 -66t22 -66t57 -24q41 0 75 32z" />
    <glyph glyph-name="e" unicode="e" horiz-adv-x="489" 
d="M258 415q48 0 86.5 -16.5t59.5 -42t35 -57.5t12.5 -62.5t-7.5 -56.5h-257q6 -35 32 -54t64 -19q62 0 127 38q8 -12 7 -56.5t-7 -61.5q-56 -42 -143 -42q-103 0 -165 60t-62 156q0 94 61.5 154t156.5 60zM259 306q-49 0 -64 -52h118q-6 52 -54 52z" />
    <glyph glyph-name="f" unicode="f" horiz-adv-x="381" 
d="M283 543q-46 0 -46 -52v-91h93q13 -61 0 -122h-93v-278q-73 -13 -145 0v278h-56q-13 61 0 122h56v121q0 68 44.5 106t107.5 38q55 0 100 -18q6 -17 7 -64.5t-7 -59.5q-48 20 -61 20z" />
    <glyph glyph-name="g" unicode="g" 
d="M224 415q77 0 124 -62l11 47q62 11 125 0v-378q0 -93 -58.5 -146.5t-159.5 -53.5q-51 0 -93.5 11.5t-64.5 27.5q-6 17 -7 60t7 55q60 -35 127 -35q104 0 104 73v31q-42 -50 -115 -50q-82 0 -133 61t-51 149t51 149t133 61zM264 290q-34 0 -56.5 -23.5t-22.5 -61.5
t22.5 -61.5t56.5 -23.5q41 0 75 32v106q-34 32 -75 32z" />
    <glyph glyph-name="h" unicode="h" horiz-adv-x="509" 
d="M310 415q76 0 111 -45.5t35 -108.5v-261q-73 -13 -145 0v228q0 62 -52 62q-32 0 -57 -23v-267q-72 -13 -145 0v650q73 13 145 0v-282q52 47 108 47z" />
    <glyph glyph-name="i" unicode="i" horiz-adv-x="292" 
d="M147 665q38 0 64 -24t26 -61q0 -36 -26 -60t-64 -24t-64 24t-26 60q0 37 26 61t64 24zM219 400v-400q-73 -13 -145 0v400q73 13 145 0z" />
    <glyph glyph-name="j" unicode="j" horiz-adv-x="310" 
d="M165 665q38 0 64 -24t26 -61q0 -36 -26 -60t-64 -24t-64 24t-26 60q0 37 26 61t64 24zM237 400v-434q0 -70 -33 -107t-93 -37q-55 0 -100 18q-6 17 -7 62t7 57q40 -15 60 -15q15 0 18 8.5t3 34.5v413q72 13 145 0z" />
    <glyph glyph-name="k" unicode="k" horiz-adv-x="511" 
d="M347 210l134 -210q-81 -14 -162 0l-117 190v-190q-72 -13 -145 0v650q73 13 145 0v-422l113 172q81 14 162 0z" />
    <glyph glyph-name="l" unicode="l" horiz-adv-x="255" 
d="M202 650v-650q-72 -13 -145 0v650q73 13 145 0z" />
    <glyph glyph-name="m" unicode="m" horiz-adv-x="771" 
d="M572 415q76 0 111 -45.5t35 -108.5v-261q-73 -13 -145 0v228q0 62 -52 62q-35 0 -62 -27v-263q-73 -13 -145 0v228q0 62 -52 62q-35 0 -62 -27v-263q-73 -13 -145 0v400q63 11 125 0l11 -47q55 62 122 62q93 0 128 -72q57 72 131 72z" />
    <glyph glyph-name="n" unicode="n" horiz-adv-x="512" 
d="M313 415q76 0 111 -45.5t35 -108.5v-261q-73 -13 -145 0v228q0 62 -52 62q-35 0 -62 -27v-263q-73 -13 -145 0v400q63 11 125 0l11 -47q55 62 122 62z" />
    <glyph glyph-name="o" unicode="o" horiz-adv-x="524" 
d="M262 415q97 0 159.5 -62t62.5 -153t-62.5 -153t-159.5 -62t-159.5 62t-62.5 153t62.5 153t159.5 62zM262 290q-33 0 -55 -24t-22 -66t22 -66t55 -24t55 24t22 66t-22 66t-55 24z" />
    <glyph glyph-name="p" unicode="p" horiz-adv-x="541" 
d="M317 415q83 0 133.5 -61.5t50.5 -153.5t-50.5 -153.5t-133.5 -61.5q-73 0 -115 50v-198q-73 -13 -145 0v563q63 11 125 0l11 -47q47 62 124 62zM277 110q35 0 57 24t22 66t-22 66t-57 24q-41 0 -75 -32v-116q34 -32 75 -32z" />
    <glyph glyph-name="q" unicode="q" 
d="M348 353l11 47q62 11 125 0v-563q-72 -13 -145 0v198q-42 -50 -115 -50q-83 0 -133.5 61.5t-50.5 153.5t50.5 153.5t133.5 61.5q77 0 124 -62zM339 142v116q-34 32 -75 32q-35 0 -57 -24t-22 -66t22 -66t57 -24q41 0 75 32z" />
    <glyph glyph-name="r" unicode="r" horiz-adv-x="413" 
d="M376 397q8 -12 7 -71.5t-7 -76.5q-50 33 -87 33q-25 0 -49 -17t-40 -49v-216q-73 -13 -145 0v400q63 11 125 0l16 -70q46 85 116 85q44 0 64 -18z" />
    <glyph glyph-name="s" unicode="s" horiz-adv-x="406" 
d="M246 256q60 -19 92.5 -50t32.5 -84q0 -66 -50 -101.5t-125 -35.5q-38 0 -79.5 8.5t-61.5 22.5q-6 17 -7 56.5t7 51.5q79 -46 134 -46q37 0 37 25q0 3 -0.5 5.5t-2.5 5t-4 4t-6 3.5t-7.5 3.5t-9.5 3.5l-11 3q-4 2 -12.5 4.5t-14.5 4.5q-57 19 -90 49t-33 86
q0 65 45.5 102.5t123.5 37.5q92 0 138 -31q6 -17 7 -56.5t-7 -51.5q-79 46 -126 46q-37 0 -37 -28q0 -6 2.5 -11t10 -8.5t13 -5.5t20 -6.5t21.5 -6.5z" />
    <glyph glyph-name="t" unicode="t" horiz-adv-x="393" 
d="M338 145q8 -12 7 -56.5t-7 -61.5q-36 -42 -113 -42q-63 0 -98 37t-35 107v149h-56q-13 61 0 122h56v130q72 13 145 0v-130h101q13 -61 0 -122h-101v-128q0 -22 5 -32.5t22 -10.5q28 0 74 38z" />
    <glyph glyph-name="u" unicode="u" horiz-adv-x="510" 
d="M312 137v263q72 13 145 0v-400q-63 -11 -125 0l-11 47q-55 -62 -122 -62q-76 0 -111 45.5t-35 108.5v261q72 13 145 0v-228q0 -62 52 -62q35 0 62 27z" />
    <glyph glyph-name="v" unicode="v" horiz-adv-x="527" 
d="M264 191l81 209q76 13 152 0l-175 -400q-58 -13 -117 0l-175 400q76 13 152 0z" />
    <glyph glyph-name="w" unicode="w" horiz-adv-x="774" 
d="M188 0l-158 400q77 13 154 0l64 -209l80 209q59 13 118 0l80 -209l64 209q77 13 154 0l-158 -400q-58 -13 -117 0l-82 219l-82 -219q-59 -13 -117 0z" />
    <glyph glyph-name="x" unicode="x" horiz-adv-x="518" 
d="M357 210l131 -210q-81 -14 -162 0l-71 116l-66 -116q-79 -14 -159 0l132 210l-124 190q81 14 162 0l64 -103l58 103q80 14 159 0z" />
    <glyph glyph-name="y" unicode="y" horiz-adv-x="527" 
d="M264 191l81 209q76 13 152 0l-246 -563q-74 -13 -147 0l86 197l-160 366q76 13 152 0z" />
    <glyph glyph-name="z" unicode="z" horiz-adv-x="437" 
d="M249 125l147 1q11 -62 0 -126h-361v9l153 266h-136q-11 63 0 125h350v-9z" />
    <glyph glyph-name="braceleft" unicode="{" horiz-adv-x="352" 
d="M159 269q38 -22 57.5 -43.5t23.5 -55.5q7 -56 10.5 -81t21.5 -81.5t50 -119.5q-70 -12 -140 0q-83 141 -92 308q0 21 -11.5 33.5t-48.5 31.5v16q37 19 48.5 31.5t11.5 33.5q9 167 92 308q70 12 140 0q-32 -63 -50 -119.5t-21.5 -81.5t-10.5 -81q-4 -34 -23.5 -55.5
t-57.5 -43.5z" />
    <glyph glyph-name="bar" unicode="|" horiz-adv-x="151" 
d="M121 650v-710q-46 -10 -91 0v710q45 10 91 0z" />
    <glyph glyph-name="braceright" unicode="}" horiz-adv-x="352" 
d="M262 342q0 -21 11.5 -33.5t48.5 -31.5v-16q-37 -19 -48.5 -31.5t-11.5 -33.5q-9 -167 -92 -308q-70 -12 -140 0q32 63 50 119.5t21.5 81.5t10.5 81q4 34 23.5 55.5t57.5 43.5q-38 22 -57.5 43.5t-23.5 55.5q-7 56 -10.5 81t-21.5 81.5t-50 119.5q70 12 140 0
q83 -141 92 -308z" />
    <glyph glyph-name="asciitilde" unicode="~" horiz-adv-x="454" 
d="M150 310q34 0 80 -24.5t75 -24.5q13 0 25.5 2.5t26.5 8.5t21.5 9.5t22.5 11.5t17 9q12 -56 0 -110q-2 -1 -22 -12t-29 -15t-27.5 -9t-35.5 -5q-34 0 -80 24.5t-75 24.5q-13 0 -25.5 -2.5t-26.5 -8.5t-21.5 -9.5t-22.5 -11.5t-17 -9q-12 56 0 110q2 1 22 12t29 15t27.5 9
t35.5 5z" />
    <glyph glyph-name="exclamdown" unicode="&#xa1;" horiz-adv-x="240" 
d="M120 494q38 0 64 -24t26 -60q0 -37 -26 -61t-64 -24t-64 24t-26 61q0 36 26 60t64 24zM200 -58v-113q-80 -14 -160 0v113l34 302q46 11 92 0z" />
    <glyph glyph-name="cent" unicode="&#xa2;" horiz-adv-x="460" 
d="M281 107q54 0 119 38q8 -12 7 -56.5t-7 -61.5q-46 -35 -109 -41v-94q-25 -12 -49 0v94q-92 8 -147 66t-55 148t55 148t147 66v94q24 12 49 0v-94q63 -6 109 -41q6 -17 7 -61.5t-7 -56.5q-65 38 -119 38q-42 0 -69 -24.5t-27 -68.5t27 -68.5t69 -24.5z" />
    <glyph glyph-name="sterling" unicode="&#xa3;" horiz-adv-x="568" 
d="M251 133h243q12 -66 0 -133h-430v10q30 48 42 101t10.5 92t-9.5 91h-69q-12 24 0 49h60q-13 71 -13 111q0 91 61 151t173 60q54 0 101.5 -14.5t73.5 -35.5q6 -19 7 -79.5t-7 -72.5q-98 69 -162 69q-37 0 -61 -21.5t-24 -64.5q0 -35 17 -103h156q12 -25 0 -49h-146
q15 -97 -23 -161z" />
    <glyph glyph-name="currency" unicode="&#xa4;" horiz-adv-x="353" 
d="M323 418l-37 -37q24 -34 24 -75t-24 -75l37 -37q-8 -26 -34 -35l-37 37q-34 -23 -75 -22.5t-75 23.5l-38 -38q-25 9 -34 35l37 37q-23 34 -23 75t23 75l-37 37q9 26 34 35l38 -38q34 24 75 24.5t75 -23.5l37 37q26 -9 34 -35zM141 271q17 -16 37 -16.5t36 14.5
q15 16 14.5 36t-15.5 37q-16 16 -36.5 16t-36.5 -15q-15 -16 -15 -36t16 -36z" />
    <glyph glyph-name="yen" unicode="&#xa5;" horiz-adv-x="698" 
d="M429 156h122q12 -24 0 -49h-122v-107q-80 -14 -160 0v107h-122q-12 25 0 49h122v56h-122q-12 24 0 49h102l-217 389q35 6 86 6t85 -6l146 -276l146 276q35 6 86 6t85 -6l-217 -389h102q12 -25 0 -49h-122v-56z" />
    <glyph glyph-name="brokenbar" unicode="&#xa6;" horiz-adv-x="151" 
d="M121 650v-313q-45 -10 -91 0v313q45 10 91 0zM121 253v-313q-46 -10 -91 0v313q45 10 91 0z" />
    <glyph glyph-name="section" unicode="&#xa7;" horiz-adv-x="396" 
d="M199 549q92 0 138 -31q6 -17 7 -56.5t-7 -51.5q-79 46 -126 46q-37 0 -37 -28q0 -6 2.5 -11t10 -8.5t13 -5.5t20 -6.5t21.5 -6.5q64 -21 94.5 -52.5t30.5 -81.5q0 -59 -42 -95q42 -37 42 -95q0 -65 -45.5 -102.5t-123.5 -37.5q-92 0 -138 31q-6 17 -7 56.5t7 51.5
q79 -46 126 -46q37 0 37 28q0 6 -2.5 11t-10 8.5t-13 5.5t-20 6.5t-21.5 6.5q-64 21 -94.5 52.5t-30.5 81.5q0 59 42 95q-42 37 -42 95q0 65 45.5 102.5t123.5 37.5zM153 274l-23 8q-1 -3 -1 -9q0 -9 3.5 -17t11 -14t15 -11t20 -9.5l21.5 -7.5l23 -7q14 -4 20 -6l23 -8
q1 3 1 9q0 9 -3.5 17t-11 14t-15 11t-20 9.5t-20.5 6.5l-23 7z" />
    <glyph glyph-name="dieresis" unicode="&#xa8;" horiz-adv-x="485" 
d="M120 897q38 0 64 -24t26 -61q0 -36 -26 -60t-64 -24t-64 24t-26 60q0 37 26 61t64 24zM365 897q38 0 64 -24t26 -61q0 -36 -26 -60t-64 -24t-64 24t-26 60q0 37 26 61t64 24z" />
    <glyph glyph-name="copyright" unicode="&#xa9;" horiz-adv-x="600" 
d="M300 700q112 0 191 -79t79 -191t-79 -191t-191 -79t-191 79t-79 191t79 191t191 79zM300 637q-86 0 -146.5 -60.5t-60.5 -146.5t60.5 -147t146.5 -61t146.5 61t60.5 147t-60.5 146.5t-146.5 60.5zM309 562q50 0 83 -26q4 -11 5 -38t-5 -34q-40 23 -73 23q-26 0 -43 -15.5
t-17 -42.5t17 -42.5t43 -15.5q33 0 73 23q6 -7 5 -34t-5 -38q-33 -26 -83 -26q-63 0 -101.5 37t-38.5 96t38.5 96t101.5 37z" />
    <glyph glyph-name="guillemotleft" unicode="&#xab;" horiz-adv-x="481" 
d="M172 217l85 -156q-56 -10 -112 0l-115 156l115 156q56 10 112 0zM366 217l85 -156q-56 -10 -112 0l-115 156l115 156q56 10 112 0z" />
    <glyph glyph-name="logicalnot" unicode="&#xac;" horiz-adv-x="410" 
d="M380 310l-1 -208q-57 -13 -115 0v98l-228 1q-12 54 0 109h344z" />
    <glyph glyph-name="registered" unicode="&#xae;" horiz-adv-x="600" 
d="M300 700q112 0 191 -79t79 -191t-79 -191t-191 -79t-191 79t-79 191t79 191t191 79zM300 637q-86 0 -146.5 -60.5t-60.5 -146.5t60.5 -147t146.5 -61t146.5 61t60.5 147t-60.5 146.5t-146.5 60.5zM183 556h147q43 0 67 -23t24 -67q0 -50 -43 -70l64 -88q-50 -10 -98 0
l-55 75h-16v-75q-44 -9 -90 0v248zM273 492v-46h32q26 0 26 23t-26 23h-32z" />
    <glyph glyph-name="macron" unicode="&#xaf;" horiz-adv-x="331" 
d="M36 838h259q12 -54 0 -110l-259 1q-12 54 0 109z" />
    <glyph glyph-name="degree" unicode="&#xb0;" horiz-adv-x="316" 
d="M158 740q53 0 90.5 -37.5t37.5 -90.5t-37.5 -90.5t-90.5 -37.5t-90.5 37.5t-37.5 90.5t37.5 90.5t90.5 37.5zM158 650q-16 0 -27 -11t-11 -27t11 -26.5t27 -10.5t27 10.5t11 26.5t-11 27t-27 11z" />
    <glyph glyph-name="plusminus" unicode="&#xb1;" horiz-adv-x="416" 
d="M155 271h-119q-12 55 0 109h119v70q52 12 106 0v-70h119q12 -54 0 -110h-120v-69q-52 -12 -105 0v70zM36 167h344q12 -54 0 -110l-344 1q-12 54 0 109z" />
    <glyph glyph-name="acute" unicode="&#xb4;" horiz-adv-x="266" 
d="M30 766l111 174q20 -4 53.5 -29t41.5 -43l-130 -159q-19 4 -43 22t-33 35z" />
    <glyph glyph-name="paragraph" unicode="&#xb6;" horiz-adv-x="616" 
d="M237 650h343q10 -45 0 -91h-57v-722q-45 -10 -91 0v722h-104v-722q-46 -10 -91 0v421q-53 0 -97.5 17.5t-77 62.5t-32.5 112q0 99 62 149.5t145 50.5z" />
    <glyph glyph-name="periodcentered" unicode="&#xb7;" horiz-adv-x="240" 
d="M120 160q-38 0 -64 24t-26 60q0 37 26 61t64 24t64 -24t26 -61q0 -36 -26 -60t-64 -24z" />
    <glyph glyph-name="cedilla" unicode="&#xb8;" horiz-adv-x="245" 
d="M139 0v-46q29 0 52.5 -21.5t23.5 -58.5q0 -39 -27.5 -64t-72.5 -25t-80 23q-5 13 -5 37t5 35q41 -28 70 -28q18 0 28.5 8.5t10.5 22.5q0 21 -21.5 29t-51.5 -4v92h68z" />
    <glyph glyph-name="guillemotright" unicode="&#xbb;" horiz-adv-x="481" 
d="M257 217l-115 -156q-56 -10 -112 0l85 156l-85 156q56 10 112 0zM451 217l-115 -156q-56 -10 -112 0l85 156l-85 156q56 10 112 0z" />
    <glyph glyph-name="onequarter" unicode="&#xbc;" horiz-adv-x="673" 
d="M203 650v-310q-53 -11 -107 0v206l-60 -44q-6 9 -6 41.5t6 43.5l88 63q40 11 79 0zM528 650l-308 -650q-45 -12 -90 0l308 650q45 12 90 0zM602 129h35q10 -41 0 -81h-35v-48q-54 -11 -107 0v48h-116q-10 40 0 81l144 181q40 11 79 0v-181zM448 129h47v58z" />
    <glyph glyph-name="onehalf" unicode="&#xbd;" horiz-adv-x="710" 
d="M203 650v-310q-53 -11 -107 0v206l-60 -44q-6 9 -6 41.5t6 43.5l88 63q40 11 79 0zM528 650l-308 -650q-45 -12 -90 0l308 650q45 12 90 0zM541 325q62 0 95.5 -33t33.5 -80q0 -65 -81 -125h85q11 -43 0 -87h-248v6q83 88 110.5 129t27.5 68q0 15 -10.5 25t-30.5 10
q-31 0 -77 -34q-4 6 -3.5 46.5t3.5 49.5q33 25 95 25z" />
    <glyph glyph-name="threequarters" unicode="&#xbe;" horiz-adv-x="706" 
d="M262 422q0 -45 -34.5 -71t-89.5 -26q-67 0 -104 26q-4 9 -4 46t4 43q57 -34 89 -34q40 0 40 28q0 26 -39 26h-32q-5 36 0 73h30q35 0 35 25q0 26 -35 26q-29 0 -86 -34q-4 6 -3.5 43t3.5 46q41 26 99 26q56 0 88.5 -26t32.5 -65q0 -50 -44 -75q50 -22 50 -77zM163 0
l308 650q45 12 90 0l-308 -650q-45 -12 -90 0zM635 129h35q10 -41 0 -81h-35v-48q-53 -11 -107 0v48h-116q-10 40 0 81l144 181q40 11 79 0v-181zM528 187l-47 -58h47v58z" />
    <glyph glyph-name="questiondown" unicode="&#xbf;" horiz-adv-x="482" 
d="M274 496q38 0 64 -24t26 -60q0 -37 -26 -61t-64 -24t-64 24t-26 61q0 36 26 60t64 24zM194 246q40 7 80 7t80 -7q0 -47 -15 -72.5t-65 -67.5q-8 -6 -20 -16l-18 -16l-14 -12q-9 -7 -12 -10.5t-7.5 -9.5t-6 -10.5t-3 -10.5t-1.5 -12q0 -29 20 -44.5t54 -15.5q62 0 179 69
q8 -12 7 -72.5t-7 -79.5q-85 -50 -196 -50q-106 0 -162.5 52t-56.5 126q0 49 25.5 82.5t90.5 88.5q32 27 40 39.5t8 41.5z" />
    <glyph glyph-name="Agrave" unicode="&#xc0;" horiz-adv-x="724" 
d="M354 940l111 -174q-9 -17 -33 -35t-43 -22l-130 159q8 18 41.5 43t53.5 29zM428 650l264 -650q-82 -14 -165 0l-46 123h-238l-46 -123q-83 -14 -165 0l264 650q66 11 132 0zM293 258h138l-69 186z" />
    <glyph glyph-name="Aacute" unicode="&#xc1;" horiz-adv-x="724" 
d="M259 766l111 174q20 -4 53.5 -29t41.5 -43l-130 -159q-19 4 -43 22t-33 35zM428 650l264 -650q-82 -14 -165 0l-46 123h-238l-46 -123q-83 -14 -165 0l264 650q66 11 132 0zM293 258h138l-69 186z" />
    <glyph glyph-name="Acircumflex" unicode="&#xc2;" horiz-adv-x="724" 
d="M382 930l145 -146q-8 -19 -34.5 -44.5t-44.5 -30.5l-86 87l-86 -87q-18 5 -44.5 30.5t-34.5 44.5l145 146q8 6 20 6t20 -6zM428 650l264 -650q-82 -14 -165 0l-46 123h-238l-46 -123q-83 -14 -165 0l264 650q66 11 132 0zM293 258h138l-69 186z" />
    <glyph glyph-name="Atilde" unicode="&#xc3;" horiz-adv-x="724" 
d="M298 872q27 0 75 -22q27 -12 52 -12q28 0 86 30q12 -56 0 -110q-3 -1 -13 -6.5t-14 -7.5t-13 -6t-15 -5.5t-14.5 -3t-16.5 -1.5q-27 0 -75 22q-27 12 -52 12q-28 0 -86 -30q-12 56 0 110q3 1 13 6.5t14 7.5t13 6t15 5.5t14.5 3t16.5 1.5zM428 650l264 -650
q-82 -14 -165 0l-46 123h-238l-46 -123q-83 -14 -165 0l264 650q66 11 132 0zM293 258h138l-69 186z" />
    <glyph glyph-name="Adieresis" unicode="&#xc4;" horiz-adv-x="724" 
d="M240 897q38 0 64 -24t26 -61q0 -36 -26 -60t-64 -24t-64 24t-26 60q0 37 26 61t64 24zM485 897q38 0 64 -24t26 -61q0 -36 -26 -60t-64 -24t-64 24t-26 60q0 37 26 61t64 24zM428 650l264 -650q-82 -14 -165 0l-46 123h-238l-46 -123q-83 -14 -165 0l264 650q66 11 132 0
zM293 258h138l-69 186z" />
    <glyph glyph-name="Aring" unicode="&#xc5;" horiz-adv-x="724" 
d="M362 933q42 0 72 -30t30 -72q0 -43 -30 -73t-72 -30q-43 0 -73 30t-30 73q0 42 30 72t73 30zM362 856q-11 0 -18.5 -7.5t-7.5 -17.5q0 -11 8 -18.5t18 -7.5t17.5 7.5t7.5 18.5t-7.5 18t-17.5 7zM428 650l264 -650q-82 -14 -165 0l-46 123h-238l-46 -123q-83 -14 -165 0
l264 650q66 11 132 0zM293 258h138l-69 186z" />
    <glyph glyph-name="AE" unicode="&#xc6;" horiz-adv-x="856" 
d="M522 133h293q12 -66 0 -133h-453v123h-119l-46 -123q-83 -14 -165 0l264 650h519q12 -67 0 -133h-293v-122h259q12 -67 0 -133h-259v-129zM362 444l-69 -186h69v186z" />
    <glyph glyph-name="Ccedilla" unicode="&#xc7;" horiz-adv-x="684" 
d="M421 118q88 0 189 62q8 -12 7 -70t-7 -75q-71 -43 -167 -49v-32q29 0 52.5 -21.5t23.5 -58.5q0 -39 -27.5 -64t-72.5 -25t-80 23q-5 13 -5 37t5 35q41 -28 70 -28q18 0 28.5 8.5t10.5 22.5q0 21 -21.5 29t-51.5 -4v78q-151 12 -240.5 107.5t-89.5 231.5q0 144 100.5 242
t266.5 98q117 0 198 -50q6 -17 7 -75t-7 -70q-101 62 -189 62q-91 0 -152 -56.5t-61 -150.5t61 -150.5t152 -56.5z" />
    <glyph glyph-name="Egrave" unicode="&#xc8;" horiz-adv-x="564" 
d="M288 940l111 -174q-9 -17 -33 -35t-43 -22l-130 159q8 18 41.5 43t53.5 29zM230 133h293q12 -66 0 -133h-453v650h453q12 -67 0 -133h-293v-122h259q12 -67 0 -133h-259v-129z" />
    <glyph glyph-name="Eacute" unicode="&#xc9;" horiz-adv-x="564" 
d="M193 766l111 174q20 -4 53.5 -29t41.5 -43l-130 -159q-19 4 -43 22t-33 35zM230 133h293q12 -66 0 -133h-453v650h453q12 -67 0 -133h-293v-122h259q12 -67 0 -133h-259v-129z" />
    <glyph glyph-name="Ecircumflex" unicode="&#xca;" horiz-adv-x="564" 
d="M316 930l145 -146q-8 -19 -34.5 -44.5t-44.5 -30.5l-86 87l-86 -87q-18 5 -44.5 30.5t-34.5 44.5l145 146q8 6 20 6t20 -6zM230 133h293q12 -66 0 -133h-453v650h453q12 -67 0 -133h-293v-122h259q12 -67 0 -133h-259v-129z" />
    <glyph glyph-name="Edieresis" unicode="&#xcb;" horiz-adv-x="564" 
d="M174 897q38 0 64 -24t26 -61q0 -36 -26 -60t-64 -24t-64 24t-26 60q0 37 26 61t64 24zM419 897q38 0 64 -24t26 -61q0 -36 -26 -60t-64 -24t-64 24t-26 60q0 37 26 61t64 24zM230 133h293q12 -66 0 -133h-453v650h453q12 -67 0 -133h-293v-122h259q12 -67 0 -133h-259
v-129z" />
    <glyph glyph-name="Igrave" unicode="&#xcc;" horiz-adv-x="300" 
d="M142 940l111 -174q-9 -17 -33 -35t-43 -22l-130 159q8 18 41.5 43t53.5 29zM230 650v-650q-80 -14 -160 0v650q80 14 160 0z" />
    <glyph glyph-name="Iacute" unicode="&#xcd;" horiz-adv-x="300" 
d="M47 766l111 174q20 -4 53.5 -29t41.5 -43l-130 -159q-19 4 -43 22t-33 35zM230 650v-650q-80 -14 -160 0v650q80 14 160 0z" />
    <glyph glyph-name="Icircumflex" unicode="&#xce;" horiz-adv-x="300" 
d="M170 930l145 -146q-8 -19 -34.5 -44.5t-44.5 -30.5l-86 87l-86 -87q-18 5 -44.5 30.5t-34.5 44.5l145 146q8 6 20 6t20 -6zM230 650v-650q-80 -14 -160 0v650q80 14 160 0z" />
    <glyph glyph-name="Idieresis" unicode="&#xcf;" horiz-adv-x="300" 
d="M28 897q38 0 64 -24t26 -61q0 -36 -26 -60t-64 -24t-64 24t-26 60q0 37 26 61t64 24zM273 897q38 0 64 -24t26 -61q0 -36 -26 -60t-64 -24t-64 24t-26 60q0 37 26 61t64 24zM230 650v-650q-80 -14 -160 0v650q80 14 160 0z" />
    <glyph glyph-name="Eth" unicode="&#xd0;" horiz-adv-x="707" 
d="M70 650h247q153 0 249 -91.5t96 -233.5t-96 -233.5t-249 -91.5h-247v272h-46q-12 54 0 109h46v269zM230 133h87q78 0 130 49.5t52 142.5t-52 142.5t-130 49.5h-87v-136h69q12 -54 0 -110h-69v-138z" />
    <glyph glyph-name="Ntilde" unicode="&#xd1;" horiz-adv-x="722" 
d="M297 872q27 0 75 -22q27 -12 52 -12q28 0 86 30q12 -56 0 -110q-3 -1 -13 -6.5t-14 -7.5t-13 -6t-15 -5.5t-14.5 -3t-16.5 -1.5q-27 0 -75 22q-27 12 -52 12q-28 0 -86 -30q-12 56 0 110q3 1 13 6.5t14 7.5t13 6t15 5.5t14.5 3t16.5 1.5zM655 650v-650q-63 -11 -125 0
l-303 381v-381q-80 -14 -160 0v650q63 11 125 0l303 -381v381q80 14 160 0z" />
    <glyph glyph-name="Ograve" unicode="&#xd2;" horiz-adv-x="780" 
d="M382 940l111 -174q-9 -17 -33 -35t-43 -22l-130 159q8 18 41.5 43t53.5 29zM390 665q152 0 248.5 -98.5t96.5 -241.5t-96.5 -241.5t-248.5 -98.5t-248.5 98.5t-96.5 241.5t96.5 241.5t248.5 98.5zM390 532q-76 0 -129 -56.5t-53 -150.5t53 -150.5t129 -56.5t129 56.5
t53 150.5t-53 150.5t-129 56.5z" />
    <glyph glyph-name="Oacute" unicode="&#xd3;" horiz-adv-x="780" 
d="M287 766l111 174q20 -4 53.5 -29t41.5 -43l-130 -159q-19 4 -43 22t-33 35zM390 665q152 0 248.5 -98.5t96.5 -241.5t-96.5 -241.5t-248.5 -98.5t-248.5 98.5t-96.5 241.5t96.5 241.5t248.5 98.5zM390 532q-76 0 -129 -56.5t-53 -150.5t53 -150.5t129 -56.5t129 56.5
t53 150.5t-53 150.5t-129 56.5z" />
    <glyph glyph-name="Ocircumflex" unicode="&#xd4;" horiz-adv-x="780" 
d="M410 930l145 -146q-8 -19 -34.5 -44.5t-44.5 -30.5l-86 87l-86 -87q-18 5 -44.5 30.5t-34.5 44.5l145 146q8 6 20 6t20 -6zM390 665q152 0 248.5 -98.5t96.5 -241.5t-96.5 -241.5t-248.5 -98.5t-248.5 98.5t-96.5 241.5t96.5 241.5t248.5 98.5zM390 532q-76 0 -129 -56.5
t-53 -150.5t53 -150.5t129 -56.5t129 56.5t53 150.5t-53 150.5t-129 56.5z" />
    <glyph glyph-name="Otilde" unicode="&#xd5;" horiz-adv-x="780" 
d="M326 872q27 0 75 -22q27 -12 52 -12q28 0 86 30q12 -56 0 -110q-3 -1 -13 -6.5t-14 -7.5t-13 -6t-15 -5.5t-14.5 -3t-16.5 -1.5q-27 0 -75 22q-27 12 -52 12q-28 0 -86 -30q-12 56 0 110q3 1 13 6.5t14 7.5t13 6t15 5.5t14.5 3t16.5 1.5zM390 665q152 0 248.5 -98.5
t96.5 -241.5t-96.5 -241.5t-248.5 -98.5t-248.5 98.5t-96.5 241.5t96.5 241.5t248.5 98.5zM390 532q-76 0 -129 -56.5t-53 -150.5t53 -150.5t129 -56.5t129 56.5t53 150.5t-53 150.5t-129 56.5z" />
    <glyph glyph-name="Odieresis" unicode="&#xd6;" horiz-adv-x="780" 
d="M268 897q38 0 64 -24t26 -61q0 -36 -26 -60t-64 -24t-64 24t-26 60q0 37 26 61t64 24zM513 897q38 0 64 -24t26 -61q0 -36 -26 -60t-64 -24t-64 24t-26 60q0 37 26 61t64 24zM390 665q152 0 248.5 -98.5t96.5 -241.5t-96.5 -241.5t-248.5 -98.5t-248.5 98.5t-96.5 241.5
t96.5 241.5t248.5 98.5zM390 532q-76 0 -129 -56.5t-53 -150.5t53 -150.5t129 -56.5t129 56.5t53 150.5t-53 150.5t-129 56.5z" />
    <glyph glyph-name="multiply" unicode="&#xd7;" horiz-adv-x="382" 
d="M268 255l83 -83q-30 -47 -77 -78l-83 83l-83 -82q-47 30 -78 77l83 83l-83 83q30 46 78 78l83 -83l83 83q46 -30 78 -78z" />
    <glyph glyph-name="Oslash" unicode="&#xd8;" horiz-adv-x="780" 
d="M735 650l-85 -96q85 -94 85 -229q0 -143 -96.5 -241.5t-248.5 -98.5q-111 0 -198 57l-37 -42q-55 -14 -110 0l85 96q-85 94 -85 229q0 143 96.5 241.5t248.5 98.5q111 0 198 -57l37 42q55 14 110 0zM208 325q0 -63 26 -113l257 288q-44 32 -101 32q-76 0 -129 -56.5
t-53 -150.5zM572 325q0 66 -26 113l-257 -288q44 -32 101 -32q76 0 129 56.5t53 150.5z" />
    <glyph glyph-name="Ugrave" unicode="&#xd9;" horiz-adv-x="691" 
d="M338 940l111 -174q-9 -17 -33 -35t-43 -22l-130 159q8 18 41.5 43t53.5 29zM461 248v402q81 14 163 0v-377q0 -288 -277 -288t-277 288v377q81 14 163 0v-402q0 -58 29.5 -94t84.5 -36t84.5 36t29.5 94z" />
    <glyph glyph-name="Uacute" unicode="&#xda;" horiz-adv-x="691" 
d="M243 766l111 174q20 -4 53.5 -29t41.5 -43l-130 -159q-19 4 -43 22t-33 35zM461 248v402q81 14 163 0v-377q0 -288 -277 -288t-277 288v377q81 14 163 0v-402q0 -58 29.5 -94t84.5 -36t84.5 36t29.5 94z" />
    <glyph glyph-name="Ucircumflex" unicode="&#xdb;" horiz-adv-x="691" 
d="M366 930l145 -146q-8 -19 -34.5 -44.5t-44.5 -30.5l-86 87l-86 -87q-18 5 -44.5 30.5t-34.5 44.5l145 146q8 6 20 6t20 -6zM461 248v402q81 14 163 0v-377q0 -288 -277 -288t-277 288v377q81 14 163 0v-402q0 -58 29.5 -94t84.5 -36t84.5 36t29.5 94z" />
    <glyph glyph-name="Udieresis" unicode="&#xdc;" horiz-adv-x="691" 
d="M224 897q38 0 64 -24t26 -61q0 -36 -26 -60t-64 -24t-64 24t-26 60q0 37 26 61t64 24zM469 897q38 0 64 -24t26 -61q0 -36 -26 -60t-64 -24t-64 24t-26 60q0 37 26 61t64 24zM461 248v402q81 14 163 0v-377q0 -288 -277 -288t-277 288v377q81 14 163 0v-402
q0 -58 29.5 -94t84.5 -36t84.5 36t29.5 94z" />
    <glyph glyph-name="Yacute" unicode="&#xdd;" horiz-adv-x="698" 
d="M246 766l111 174q20 -4 53.5 -29t41.5 -43l-130 -159q-19 4 -43 22t-33 35zM429 225v-225q-80 -14 -160 0v225l-237 425q35 6 86 6t85 -6l146 -276l146 276q35 6 86 6t85 -6z" />
    <glyph glyph-name="Thorn" unicode="&#xde;" horiz-adv-x="615" 
d="M230 560h95q109 0 177 -60t68 -158t-68 -158t-177 -60h-95v-124q-80 -14 -160 0v650q80 14 160 0v-90zM230 257h95q35 0 58.5 21.5t23.5 63.5t-23.5 63.5t-58.5 21.5h-95v-170z" />
    <glyph glyph-name="germandbls" unicode="&#xdf;" horiz-adv-x="571" 
d="M434 334q102 -47 102 -164q0 -82 -52.5 -134t-146.5 -52q-55 0 -99 16q-6 19 -7 67.5t7 60.5q30 -19 71 -19q36 0 59 20t23 57q0 40 -26 58.5t-68 18.5h-41q-11 63 0 126h37q34 0 57 19t23 57q0 36 -22 55.5t-57 19.5q-46 0 -71 -32.5t-25 -93.5v-414q-72 -13 -145 0v419
q0 116 69 181t175 65q99 0 160 -54t61 -135q0 -100 -84 -142z" />
    <glyph glyph-name="agrave" unicode="&#xe0;" horiz-adv-x="474" 
d="M229 690l111 -174q-9 -17 -33 -35t-43 -22l-130 159q8 18 41.5 43t53.5 29zM228 415q101 0 147 -48.5t46 -144.5v-222q-63 -11 -125 0l-9 40q-47 -55 -113 -55q-56 0 -96.5 34t-40.5 95q0 60 40.5 94t102.5 34t96 -29v22q0 34 -18.5 49t-60.5 15q-57 0 -122 -35
q-8 12 -7 55.5t7 60.5q57 35 153 35zM219 154q-38 0 -38 -30q0 -13 9.5 -22t27.5 -9q33 0 58 17v28q-21 16 -57 16z" />
    <glyph glyph-name="aacute" unicode="&#xe1;" horiz-adv-x="474" 
d="M134 516l111 174q20 -4 53.5 -29t41.5 -43l-130 -159q-19 4 -43 22t-33 35zM228 415q101 0 147 -48.5t46 -144.5v-222q-63 -11 -125 0l-9 40q-47 -55 -113 -55q-56 0 -96.5 34t-40.5 95q0 60 40.5 94t102.5 34t96 -29v22q0 34 -18.5 49t-60.5 15q-57 0 -122 -35
q-8 12 -7 55.5t7 60.5q57 35 153 35zM219 154q-38 0 -38 -30q0 -13 9.5 -22t27.5 -9q33 0 58 17v28q-21 16 -57 16z" />
    <glyph glyph-name="acircumflex" unicode="&#xe2;" horiz-adv-x="474" 
d="M257 680l145 -146q-8 -19 -34.5 -44.5t-44.5 -30.5l-86 87l-86 -87q-18 5 -44.5 30.5t-34.5 44.5l145 146q8 6 20.5 6t19.5 -6zM228 415q101 0 147 -48.5t46 -144.5v-222q-63 -11 -125 0l-9 40q-47 -55 -113 -55q-56 0 -96.5 34t-40.5 95q0 60 40.5 94t102.5 34t96 -29
v22q0 34 -18.5 49t-60.5 15q-57 0 -122 -35q-8 12 -7 55.5t7 60.5q57 35 153 35zM219 154q-38 0 -38 -30q0 -13 9.5 -22t27.5 -9q33 0 58 17v28q-21 16 -57 16z" />
    <glyph glyph-name="atilde" unicode="&#xe3;" horiz-adv-x="474" 
d="M173 622q27 0 75 -22q27 -12 52 -12q28 0 86 30q12 -56 0 -110q-3 -1 -13 -6.5t-14 -7.5t-13 -6t-15 -5.5t-14.5 -3t-16.5 -1.5q-27 0 -75 22q-27 12 -52 12q-28 0 -86 -30q-12 56 0 110q3 1 13 6.5t14 7.5t13 6t15 5.5t14.5 3t16.5 1.5zM228 415q101 0 147 -48.5
t46 -144.5v-222q-63 -11 -125 0l-9 40q-47 -55 -113 -55q-56 0 -96.5 34t-40.5 95q0 60 40.5 94t102.5 34t96 -29v22q0 34 -18.5 49t-60.5 15q-57 0 -122 -35q-8 12 -7 55.5t7 60.5q57 35 153 35zM219 154q-38 0 -38 -30q0 -13 9.5 -22t27.5 -9q33 0 58 17v28q-21 16 -57 16
z" />
    <glyph glyph-name="adieresis" unicode="&#xe4;" horiz-adv-x="474" 
d="M115 647q38 0 64 -24t26 -61q0 -36 -26 -60t-64 -24t-64 24t-26 60q0 37 26 61t64 24zM360 647q38 0 64 -24t26 -61q0 -36 -26 -60t-64 -24t-64 24t-26 60q0 37 26 61t64 24zM228 415q101 0 147 -48.5t46 -144.5v-222q-63 -11 -125 0l-9 40q-47 -55 -113 -55
q-56 0 -96.5 34t-40.5 95q0 60 40.5 94t102.5 34t96 -29v22q0 34 -18.5 49t-60.5 15q-57 0 -122 -35q-8 12 -7 55.5t7 60.5q57 35 153 35zM219 154q-38 0 -38 -30q0 -13 9.5 -22t27.5 -9q33 0 58 17v28q-21 16 -57 16z" />
    <glyph glyph-name="aring" unicode="&#xe5;" horiz-adv-x="474" 
d="M237 683q42 0 72 -30t30 -72q0 -43 -30 -73t-72 -30q-43 0 -73 30t-30 73q0 42 30 72t73 30zM237 606q-11 0 -18.5 -7.5t-7.5 -17.5q0 -11 7.5 -18.5t18.5 -7.5q10 0 17.5 7.5t7.5 18.5t-7 18t-18 7zM228 415q101 0 147 -48.5t46 -144.5v-222q-63 -11 -125 0l-9 40
q-47 -55 -113 -55q-56 0 -96.5 34t-40.5 95q0 60 40.5 94t102.5 34t96 -29v22q0 34 -18.5 49t-60.5 15q-57 0 -122 -35q-8 12 -7 55.5t7 60.5q57 35 153 35zM219 154q-38 0 -38 -30q0 -13 9.5 -22t27.5 -9q33 0 58 17v28q-21 16 -57 16z" />
    <glyph glyph-name="ae" unicode="&#xe6;" horiz-adv-x="723" 
d="M492 415q48 0 86.5 -16.5t59.5 -42t35 -57.5t12.5 -62.5t-7.5 -56.5h-257q6 -35 32 -54t64 -19q62 0 127 38q8 -12 7 -56.5t-7 -61.5q-56 -42 -143 -42q-68 0 -118 26l-4 -11q-41 -13 -83 0l-9 40q-47 -55 -113 -55q-56 0 -96.5 34t-40.5 95q0 60 40.5 94t102.5 34
q61 0 94 -28l2 21q0 34 -18.5 49t-60.5 15q-57 0 -122 -35q-8 12 -7 55.5t7 60.5q57 35 153 35q88 0 135 -38q55 38 129 38zM429 254h118q-6 52 -54 52q-49 0 -64 -52zM276 110v28q-21 16 -57 16q-38 0 -38 -30q0 -13 9.5 -22t27.5 -9q33 0 58 17z" />
    <glyph glyph-name="ccedilla" unicode="&#xe7;" horiz-adv-x="460" 
d="M281 107q54 0 119 38q8 -12 7 -56.5t-7 -61.5q-49 -37 -115 -41v-32q29 0 52.5 -21.5t23.5 -58.5q0 -39 -27.5 -64t-72.5 -25t-80 23q-5 13 -5 37t5 35q41 -28 70 -28q18 0 28.5 8.5t10.5 22.5q0 21 -21.5 29t-51.5 -4v81q-81 14 -129 70.5t-48 140.5q0 96 62.5 155.5
t163.5 59.5q78 0 134 -42q6 -17 7 -61.5t-7 -56.5q-65 38 -119 38q-42 0 -69 -24.5t-27 -68.5t27 -68.5t69 -24.5z" />
    <glyph glyph-name="egrave" unicode="&#xe8;" horiz-adv-x="489" 
d="M249 690l111 -174q-9 -17 -33 -35t-43 -22l-130 159q8 18 41.5 43t53.5 29zM258 415q48 0 86.5 -16.5t59.5 -42t35 -57.5t12.5 -62.5t-7.5 -56.5h-257q6 -35 32 -54t64 -19q62 0 127 38q8 -12 7 -56.5t-7 -61.5q-56 -42 -143 -42q-103 0 -165 60t-62 156q0 94 61.5 154
t156.5 60zM259 306q-49 0 -64 -52h118q-6 52 -54 52z" />
    <glyph glyph-name="eacute" unicode="&#xe9;" horiz-adv-x="489" 
d="M154 516l111 174q20 -4 53.5 -29t41.5 -43l-130 -159q-19 4 -43 22t-33 35zM258 415q48 0 86.5 -16.5t59.5 -42t35 -57.5t12.5 -62.5t-7.5 -56.5h-257q6 -35 32 -54t64 -19q62 0 127 38q8 -12 7 -56.5t-7 -61.5q-56 -42 -143 -42q-103 0 -165 60t-62 156q0 94 61.5 154
t156.5 60zM259 306q-49 0 -64 -52h118q-6 52 -54 52z" />
    <glyph glyph-name="ecircumflex" unicode="&#xea;" horiz-adv-x="489" 
d="M277 680l145 -146q-8 -19 -34.5 -44.5t-44.5 -30.5l-86 87l-86 -87q-18 5 -44.5 30.5t-34.5 44.5l145 146q8 6 20.5 6t19.5 -6zM258 415q48 0 86.5 -16.5t59.5 -42t35 -57.5t12.5 -62.5t-7.5 -56.5h-257q6 -35 32 -54t64 -19q62 0 127 38q8 -12 7 -56.5t-7 -61.5
q-56 -42 -143 -42q-103 0 -165 60t-62 156q0 94 61.5 154t156.5 60zM259 306q-49 0 -64 -52h118q-6 52 -54 52z" />
    <glyph glyph-name="edieresis" unicode="&#xeb;" horiz-adv-x="489" 
d="M135 647q38 0 64 -24t26 -61q0 -36 -26 -60t-64 -24t-64 24t-26 60q0 37 26 61t64 24zM380 647q38 0 64 -24t26 -61q0 -36 -26 -60t-64 -24t-64 24t-26 60q0 37 26 61t64 24zM258 415q48 0 86.5 -16.5t59.5 -42t35 -57.5t12.5 -62.5t-7.5 -56.5h-257q6 -35 32 -54t64 -19
q62 0 127 38q8 -12 7 -56.5t-7 -61.5q-56 -42 -143 -42q-103 0 -165 60t-62 156q0 94 61.5 154t156.5 60zM259 306q-49 0 -64 -52h118q-6 52 -54 52z" />
    <glyph glyph-name="igrave" unicode="&#xec;" horiz-adv-x="257" 
d="M122 690l111 -174q-9 -17 -33 -35t-43 -22l-130 159q8 18 41.5 43t53.5 29zM202 400v-400q-72 -13 -145 0v400q73 13 145 0z" />
    <glyph glyph-name="iacute" unicode="&#xed;" horiz-adv-x="257" 
d="M27 516l111 174q20 -4 53.5 -29t41.5 -43l-130 -159q-19 4 -43 22t-33 35zM202 400v-400q-72 -13 -145 0v400q73 13 145 0z" />
    <glyph glyph-name="icircumflex" unicode="&#xee;" horiz-adv-x="257" 
d="M150 680l145 -146q-8 -19 -34.5 -44.5t-44.5 -30.5l-86 87l-86 -87q-18 5 -44.5 30.5t-34.5 44.5l145 146q8 6 20 6t20 -6zM202 400v-400q-72 -13 -145 0v400q73 13 145 0z" />
    <glyph glyph-name="idieresis" unicode="&#xef;" horiz-adv-x="257" 
d="M8 647q38 0 64 -24t26 -61q0 -36 -26 -60t-64 -24t-64 24t-26 60q0 37 26 61t64 24zM253 647q38 0 64 -24t26 -61q0 -36 -26 -60t-64 -24t-64 24t-26 60q0 37 26 61t64 24zM202 400v-400q-72 -13 -145 0v400q73 13 145 0z" />
    <glyph glyph-name="eth" unicode="&#xf0;" horiz-adv-x="521" 
d="M400 558l-36 -21q117 -112 117 -288v-15q0 -113 -60.5 -181t-160.5 -68q-98 0 -160.5 62t-62.5 155q0 84 51 143.5t134 59.5q70 0 114 -51q-21 69 -91 113l-112 -67q-12 40 0 81l35 21q-36 11 -72 17q-6 17 -7 68t7 63q119 -12 208 -67l96 57q12 -40 0 -82zM337 203v15
q0 23 -1 30q-34 32 -77 32q-30 0 -53.5 -21.5t-23.5 -61.5q0 -38 22 -62.5t55 -24.5q35 0 56.5 22.5t21.5 70.5z" />
    <glyph glyph-name="ntilde" unicode="&#xf1;" horiz-adv-x="512" 
d="M192 622q27 0 75 -22q27 -12 52 -12q28 0 86 30q12 -56 0 -110q-3 -1 -13 -6.5t-14 -7.5t-13 -6t-15 -5.5t-14.5 -3t-16.5 -1.5q-27 0 -75 22q-27 12 -52 12q-28 0 -86 -30q-12 56 0 110q3 1 13 6.5t14 7.5t13 6t15 5.5t14.5 3t16.5 1.5zM313 415q76 0 111 -45.5
t35 -108.5v-261q-73 -13 -145 0v228q0 62 -52 62q-35 0 -62 -27v-263q-73 -13 -145 0v400q63 11 125 0l11 -47q55 62 122 62z" />
    <glyph glyph-name="ograve" unicode="&#xf2;" horiz-adv-x="524" 
d="M254 690l111 -174q-9 -17 -33 -35t-43 -22l-130 159q8 18 41.5 43t53.5 29zM262 415q97 0 159.5 -62t62.5 -153t-62.5 -153t-159.5 -62t-159.5 62t-62.5 153t62.5 153t159.5 62zM262 290q-33 0 -55 -24t-22 -66t22 -66t55 -24t55 24t22 66t-22 66t-55 24z" />
    <glyph glyph-name="oacute" unicode="&#xf3;" horiz-adv-x="524" 
d="M159 516l111 174q20 -4 53.5 -29t41.5 -43l-130 -159q-19 4 -43 22t-33 35zM262 415q97 0 159.5 -62t62.5 -153t-62.5 -153t-159.5 -62t-159.5 62t-62.5 153t62.5 153t159.5 62zM262 290q-33 0 -55 -24t-22 -66t22 -66t55 -24t55 24t22 66t-22 66t-55 24z" />
    <glyph glyph-name="ocircumflex" unicode="&#xf4;" horiz-adv-x="524" 
d="M282 680l145 -146q-8 -19 -34.5 -44.5t-44.5 -30.5l-86 87l-86 -87q-18 5 -44.5 30.5t-34.5 44.5l145 146q8 6 20 6t20 -6zM262 415q97 0 159.5 -62t62.5 -153t-62.5 -153t-159.5 -62t-159.5 62t-62.5 153t62.5 153t159.5 62zM262 290q-33 0 -55 -24t-22 -66t22 -66
t55 -24t55 24t22 66t-22 66t-55 24z" />
    <glyph glyph-name="otilde" unicode="&#xf5;" horiz-adv-x="524" 
d="M198 622q27 0 75 -22q27 -12 52 -12q28 0 86 30q12 -56 0 -110q-3 -1 -13 -6.5t-14 -7.5t-13 -6t-15 -5.5t-14.5 -3t-16.5 -1.5q-27 0 -75 22q-27 12 -52 12q-28 0 -86 -30q-12 56 0 110q3 1 13 6.5t14 7.5t13 6t15 5.5t14.5 3t16.5 1.5zM262 415q97 0 159.5 -62
t62.5 -153t-62.5 -153t-159.5 -62t-159.5 62t-62.5 153t62.5 153t159.5 62zM262 290q-33 0 -55 -24t-22 -66t22 -66t55 -24t55 24t22 66t-22 66t-55 24z" />
    <glyph glyph-name="odieresis" unicode="&#xf6;" horiz-adv-x="524" 
d="M140 647q38 0 64 -24t26 -61q0 -36 -26 -60t-64 -24t-64 24t-26 60q0 37 26 61t64 24zM385 647q38 0 64 -24t26 -61q0 -36 -26 -60t-64 -24t-64 24t-26 60q0 37 26 61t64 24zM262 415q97 0 159.5 -62t62.5 -153t-62.5 -153t-159.5 -62t-159.5 62t-62.5 153t62.5 153
t159.5 62zM262 290q-33 0 -55 -24t-22 -66t22 -66t55 -24t55 24t22 66t-22 66t-55 24z" />
    <glyph glyph-name="divide" unicode="&#xf7;" horiz-adv-x="416" 
d="M208 510q38 0 64 -24t26 -61q0 -36 -26 -60t-64 -24t-64 24t-26 60q0 37 26 61t64 24zM36 310h344q12 -54 0 -110l-344 1q-12 54 0 109zM208 169q38 0 64 -24t26 -61q0 -36 -26 -60t-64 -24t-64 24t-26 60q0 37 26 61t64 24z" />
    <glyph glyph-name="oslash" unicode="&#xf8;" horiz-adv-x="524" 
d="M484 400l-51 -60q51 -59 51 -140q0 -91 -62.5 -153t-159.5 -62q-58 0 -108 25l-8 -10q-53 -14 -106 0l51 60q-51 59 -51 140q0 91 62.5 153t159.5 62q58 0 108 -25l8 10q53 14 106 0zM185 200q0 -14 3 -25l95 112q-11 3 -21 3q-33 0 -55 -24t-22 -66zM339 200q0 14 -3 25
l-95 -112q11 -3 21 -3q33 0 55 24t22 66z" />
    <glyph glyph-name="ugrave" unicode="&#xf9;" horiz-adv-x="510" 
d="M247 690l111 -174q-9 -17 -33 -35t-43 -22l-130 159q8 18 41.5 43t53.5 29zM312 137v263q72 13 145 0v-400q-63 -11 -125 0l-11 47q-55 -62 -122 -62q-76 0 -111 45.5t-35 108.5v261q72 13 145 0v-228q0 -62 52 -62q35 0 62 27z" />
    <glyph glyph-name="uacute" unicode="&#xfa;" horiz-adv-x="510" 
d="M152 516l111 174q20 -4 53.5 -29t41.5 -43l-130 -159q-19 4 -43 22t-33 35zM312 137v263q72 13 145 0v-400q-63 -11 -125 0l-11 47q-55 -62 -122 -62q-76 0 -111 45.5t-35 108.5v261q72 13 145 0v-228q0 -62 52 -62q35 0 62 27z" />
    <glyph glyph-name="ucircumflex" unicode="&#xfb;" horiz-adv-x="510" 
d="M275 680l145 -146q-8 -19 -34.5 -44.5t-44.5 -30.5l-86 87l-86 -87q-18 5 -44.5 30.5t-34.5 44.5l145 146q8 6 20.5 6t19.5 -6zM312 137v263q72 13 145 0v-400q-63 -11 -125 0l-11 47q-55 -62 -122 -62q-76 0 -111 45.5t-35 108.5v261q72 13 145 0v-228q0 -62 52 -62
q35 0 62 27z" />
    <glyph glyph-name="udieresis" unicode="&#xfc;" horiz-adv-x="510" 
d="M133 647q38 0 64 -24t26 -61q0 -36 -26 -60t-64 -24t-64 24t-26 60q0 37 26 61t64 24zM378 647q38 0 64 -24t26 -61q0 -36 -26 -60t-64 -24t-64 24t-26 60q0 37 26 61t64 24zM312 137v263q72 13 145 0v-400q-63 -11 -125 0l-11 47q-55 -62 -122 -62q-76 0 -111 45.5
t-35 108.5v261q72 13 145 0v-228q0 -62 52 -62q35 0 62 27z" />
    <glyph glyph-name="yacute" unicode="&#xfd;" horiz-adv-x="527" 
d="M161 516l111 174q20 -4 53.5 -29t41.5 -43l-130 -159q-19 4 -43 22t-33 35zM264 191l81 209q76 13 152 0l-246 -563q-74 -13 -147 0l86 197l-160 366q76 13 152 0z" />
    <glyph glyph-name="thorn" unicode="&#xfe;" horiz-adv-x="541" 
d="M317 415q83 0 133.5 -61.5t50.5 -153.5t-50.5 -153.5t-133.5 -61.5q-73 0 -115 50v-198q-73 -13 -145 0v813q73 13 145 0v-286q43 51 115 51zM277 110q35 0 57 24t22 66t-22 66t-57 24q-41 0 -75 -32v-116q34 -32 75 -32z" />
    <glyph glyph-name="ydieresis" unicode="&#xff;" horiz-adv-x="527" 
d="M142 647q38 0 64 -24t26 -61q0 -36 -26 -60t-64 -24t-64 24t-26 60q0 37 26 61t64 24zM387 647q38 0 64 -24t26 -61q0 -36 -26 -60t-64 -24t-64 24t-26 60q0 37 26 61t64 24zM264 191l81 209q76 13 152 0l-246 -563q-74 -13 -147 0l86 197l-160 366q76 13 152 0z" />
    <glyph glyph-name="Amacron" unicode="&#x100;" horiz-adv-x="724" 
d="M230 838h259q12 -54 0 -110l-259 1q-12 54 0 109zM428 650l264 -650q-82 -14 -165 0l-46 123h-238l-46 -123q-83 -14 -165 0l264 650q66 11 132 0zM293 258h138l-69 186z" />
    <glyph glyph-name="amacron" unicode="&#x101;" horiz-adv-x="474" 
d="M105 588h259q12 -54 0 -110l-259 1q-12 55 0 109zM228 415q101 0 147 -48.5t46 -144.5v-222q-63 -11 -125 0l-9 40q-47 -55 -113 -55q-56 0 -96.5 34t-40.5 95q0 60 40.5 94t102.5 34t96 -29v22q0 34 -18.5 49t-60.5 15q-57 0 -122 -35q-8 12 -7 55.5t7 60.5
q57 35 153 35zM219 154q-38 0 -38 -30q0 -13 9.5 -22t27.5 -9q33 0 58 17v28q-21 16 -57 16z" />
    <glyph glyph-name="Abreve" unicode="&#x102;" horiz-adv-x="724" 
d="M505 888q8 -12 7 -56.5t-7 -61.5q-56 -42 -143 -42t-143 42q-6 17 -7 61.5t7 56.5q65 -38 143 -38t143 38zM428 650l264 -650q-82 -14 -165 0l-46 123h-238l-46 -123q-83 -14 -165 0l264 650q66 11 132 0zM293 258h138l-69 186z" />
    <glyph glyph-name="abreve" unicode="&#x103;" horiz-adv-x="474" 
d="M380 638q8 -12 7 -56.5t-7 -61.5q-56 -42 -143 -42t-143 42q-6 17 -7 61.5t7 56.5q65 -38 143 -38t143 38zM228 415q101 0 147 -48.5t46 -144.5v-222q-63 -11 -125 0l-9 40q-47 -55 -113 -55q-56 0 -96.5 34t-40.5 95q0 60 40.5 94t102.5 34t96 -29v22q0 34 -18.5 49
t-60.5 15q-57 0 -122 -35q-8 12 -7 55.5t7 60.5q57 35 153 35zM219 154q-38 0 -38 -30q0 -13 9.5 -22t27.5 -9q33 0 58 17v28q-21 16 -57 16z" />
    <glyph glyph-name="Aogonek" unicode="&#x104;" horiz-adv-x="724" 
d="M720 -122q13 -43 0 -88q-18 -5 -48 -5q-45 0 -75.5 25.5t-30.5 71.5q0 59 58 112q-56 -2 -97 6l-46 123h-238l-46 -123q-83 -14 -165 0l264 650q66 11 132 0l264 -650l-16 -16q-11 -12 -17 -19.5t-12 -20t-6 -25.5q0 -20 14 -33t39 -13q18 0 26 5zM431 258l-69 186
l-69 -186h138z" />
    <glyph glyph-name="aogonek" unicode="&#x105;" horiz-adv-x="474" 
d="M449 -122q13 -43 0 -88q-18 -5 -48 -5q-45 0 -75.5 25.5t-30.5 71.5q0 59 58 112q-25 0 -57 6l-9 40q-47 -55 -113 -55q-56 0 -96.5 34t-40.5 95q0 60 40.5 94t102.5 34t96 -29v22q0 34 -18.5 49t-60.5 15q-57 0 -122 -35q-8 12 -7 55.5t7 60.5q57 35 153 35
q101 0 147 -48.5t46 -144.5v-222l-15 -16q-12 -12 -18 -19.5t-12 -20t-6 -25.5q0 -20 14 -33t39 -13q18 0 26 5zM276 110v28q-21 16 -57 16q-38 0 -38 -30q0 -13 9.5 -22t27.5 -9q33 0 58 17z" />
    <glyph glyph-name="Cacute" unicode="&#x106;" horiz-adv-x="684" 
d="M308 766l111 174q20 -4 53.5 -29t41.5 -43l-130 -159q-19 4 -43 22t-33 35zM421 118q88 0 189 62q8 -12 7 -70t-7 -75q-81 -50 -198 -50q-166 0 -266.5 98t-100.5 242t100.5 242t266.5 98q117 0 198 -50q6 -17 7 -75t-7 -70q-101 62 -189 62q-91 0 -152 -56.5t-61 -150.5
t61 -150.5t152 -56.5z" />
    <glyph glyph-name="cacute" unicode="&#x107;" horiz-adv-x="460" 
d="M152 516l111 174q20 -4 53.5 -29t41.5 -43l-130 -159q-19 4 -43 22t-33 35zM281 107q54 0 119 38q8 -12 7 -56.5t-7 -61.5q-56 -42 -134 -42q-101 0 -163.5 59.5t-62.5 155.5t62.5 155.5t163.5 59.5q78 0 134 -42q6 -17 7 -61.5t-7 -56.5q-65 38 -119 38q-42 0 -69 -24.5
t-27 -68.5t27 -68.5t69 -24.5z" />
    <glyph glyph-name="Cdotaccent" unicode="&#x10a;" horiz-adv-x="684" 
d="M411 728q-38 0 -64 24t-26 60q0 37 26 61t64 24t64 -24t26 -61q0 -36 -26 -60t-64 -24zM421 118q88 0 189 62q8 -12 7 -70t-7 -75q-81 -50 -198 -50q-166 0 -266.5 98t-100.5 242t100.5 242t266.5 98q117 0 198 -50q6 -17 7 -75t-7 -70q-101 62 -189 62q-91 0 -152 -56.5
t-61 -150.5t61 -150.5t152 -56.5z" />
    <glyph glyph-name="cdotaccent" unicode="&#x10b;" horiz-adv-x="460" 
d="M255 478q-38 0 -64 24t-26 60q0 37 26 61t64 24t64 -24t26 -61q0 -36 -26 -60t-64 -24zM281 107q54 0 119 38q8 -12 7 -56.5t-7 -61.5q-56 -42 -134 -42q-101 0 -163.5 59.5t-62.5 155.5t62.5 155.5t163.5 59.5q78 0 134 -42q6 -17 7 -61.5t-7 -56.5q-65 38 -119 38
q-42 0 -69 -24.5t-27 -68.5t27 -68.5t69 -24.5z" />
    <glyph glyph-name="Ccaron" unicode="&#x10c;" horiz-adv-x="684" 
d="M411 843l86 87q18 -5 44.5 -30.5t34.5 -44.5l-145 -146q-7 -6 -19.5 -6t-20.5 6l-145 146q8 19 34.5 44.5t44.5 30.5zM421 118q88 0 189 62q8 -12 7 -70t-7 -75q-81 -50 -198 -50q-166 0 -266.5 98t-100.5 242t100.5 242t266.5 98q117 0 198 -50q6 -17 7 -75t-7 -70
q-101 62 -189 62q-91 0 -152 -56.5t-61 -150.5t61 -150.5t152 -56.5z" />
    <glyph glyph-name="ccaron" unicode="&#x10d;" horiz-adv-x="460" 
d="M255 593l86 87q18 -5 44.5 -30.5t34.5 -44.5l-145 -146q-7 -6 -19.5 -6t-20.5 6l-145 146q8 19 34.5 44.5t44.5 30.5zM281 107q54 0 119 38q8 -12 7 -56.5t-7 -61.5q-56 -42 -134 -42q-101 0 -163.5 59.5t-62.5 155.5t62.5 155.5t163.5 59.5q78 0 134 -42q6 -17 7 -61.5
t-7 -56.5q-65 38 -119 38q-42 0 -69 -24.5t-27 -68.5t27 -68.5t69 -24.5z" />
    <glyph glyph-name="Dcaron" unicode="&#x10e;" horiz-adv-x="707" 
d="M317 843l86 87q18 -5 44.5 -30.5t34.5 -44.5l-145 -146q-7 -6 -19.5 -6t-20.5 6l-145 146q8 19 34.5 44.5t44.5 30.5zM70 650h247q153 0 249 -91.5t96 -233.5t-96 -233.5t-249 -91.5h-247v650zM230 133h87q78 0 130 49.5t52 142.5t-52 142.5t-130 49.5h-87v-384z" />
    <glyph glyph-name="dcaron" unicode="&#x10f;" horiz-adv-x="695" 
d="M602 665q39 0 68.5 -27t29.5 -82q0 -60 -33.5 -119t-62.5 -76q-38 -7 -77 0q56 52 95 137q-14 -2 -21 -2q-37 0 -63 24t-26 60q0 37 26.5 61t63.5 24zM339 365v285q72 13 145 0v-650q-62 -11 -125 0l-11 47q-47 -62 -124 -62q-83 0 -133.5 61.5t-50.5 153.5t50.5 153.5
t133.5 61.5q73 0 115 -50zM339 142v116q-34 32 -75 32q-35 0 -57 -24t-22 -66t22 -66t57 -24q41 0 75 32z" />
    <glyph glyph-name="Dcroat" unicode="&#x110;" horiz-adv-x="707" 
d="M70 650h247q153 0 249 -91.5t96 -233.5t-96 -233.5t-249 -91.5h-247v272h-46q-12 54 0 109h46v269zM230 133h87q78 0 130 49.5t52 142.5t-52 142.5t-130 49.5h-87v-136h69q12 -54 0 -110h-69v-138z" />
    <glyph glyph-name="dcroat" unicode="&#x111;" 
d="M484 569h40q12 -54 0 -110h-40v-459q-62 -11 -125 0l-11 47q-47 -62 -124 -62q-83 0 -133.5 61.5t-50.5 153.5t50.5 153.5t133.5 61.5q73 0 115 -50v95h-74q-12 55 0 109h74v81q72 13 145 0v-81zM339 142v116q-34 32 -75 32q-35 0 -57 -24t-22 -66t22 -66t57 -24
q41 0 75 32z" />
    <glyph glyph-name="Emacron" unicode="&#x112;" horiz-adv-x="564" 
d="M164 838h259q12 -54 0 -110l-259 1q-12 54 0 109zM230 133h293q12 -66 0 -133h-453v650h453q12 -67 0 -133h-293v-122h259q12 -67 0 -133h-259v-129z" />
    <glyph glyph-name="emacron" unicode="&#x113;" horiz-adv-x="489" 
d="M125 588h259q12 -54 0 -110l-259 1q-12 55 0 109zM258 415q48 0 86.5 -16.5t59.5 -42t35 -57.5t12.5 -62.5t-7.5 -56.5h-257q6 -35 32 -54t64 -19q62 0 127 38q8 -12 7 -56.5t-7 -61.5q-56 -42 -143 -42q-103 0 -165 60t-62 156q0 94 61.5 154t156.5 60zM259 306
q-49 0 -64 -52h118q-6 52 -54 52z" />
    <glyph glyph-name="Edotaccent" unicode="&#x116;" horiz-adv-x="564" 
d="M296 728q-38 0 -64 24t-26 60q0 37 26 61t64 24t64 -24t26 -61q0 -36 -26 -60t-64 -24zM230 133h293q12 -66 0 -133h-453v650h453q12 -67 0 -133h-293v-122h259q12 -67 0 -133h-259v-129z" />
    <glyph glyph-name="edotaccent" unicode="&#x117;" horiz-adv-x="489" 
d="M257 478q-38 0 -64 24t-26 60q0 37 26 61t64 24t64 -24t26 -61q0 -36 -26 -60t-64 -24zM258 415q48 0 86.5 -16.5t59.5 -42t35 -57.5t12.5 -62.5t-7.5 -56.5h-257q6 -35 32 -54t64 -19q62 0 127 38q8 -12 7 -56.5t-7 -61.5q-56 -42 -143 -42q-103 0 -165 60t-62 156
q0 94 61.5 154t156.5 60zM259 306q-49 0 -64 -52h118q-6 52 -54 52z" />
    <glyph glyph-name="Eogonek" unicode="&#x118;" horiz-adv-x="564" 
d="M551 -122q13 -43 0 -88q-18 -5 -48 -5q-45 0 -75.5 25.5t-30.5 71.5q0 63 65 118h-392v650h453q12 -67 0 -133h-293v-122h259q12 -67 0 -133h-259v-129h293q12 -66 0 -133l-15 -16q-12 -12 -18 -19.5t-12 -20t-6 -25.5q0 -20 14 -33t39 -13q18 0 26 5z" />
    <glyph glyph-name="eogonek" unicode="&#x119;" horiz-adv-x="489" 
d="M258 415q48 0 86.5 -16.5t59.5 -42t35 -57.5t12.5 -62.5t-7.5 -56.5h-257q6 -35 32 -54t64 -19q62 0 127 38q8 -12 7 -56.5t-7 -61.5q-22 -17 -52 -27l-16 -16q-11 -12 -17 -19.5t-12 -20t-6 -25.5q0 -20 14 -33t39 -13q18 0 26 5q13 -43 0 -88q-18 -5 -48 -5
q-45 0 -75.5 25.5t-30.5 71.5q0 54 49 103h-14q-103 0 -165 60t-62 156q0 94 61.5 154t156.5 60zM195 254h118q-6 52 -54 52q-49 0 -64 -52z" />
    <glyph glyph-name="Ecaron" unicode="&#x11a;" horiz-adv-x="564" 
d="M296 843l86 87q18 -5 44.5 -30.5t34.5 -44.5l-145 -146q-8 -6 -20 -6t-20 6l-145 146q8 19 34.5 44.5t44.5 30.5zM230 133h293q12 -66 0 -133h-453v650h453q12 -67 0 -133h-293v-122h259q12 -67 0 -133h-259v-129z" />
    <glyph glyph-name="ecaron" unicode="&#x11b;" horiz-adv-x="489" 
d="M257 593l86 87q18 -5 44.5 -30.5t34.5 -44.5l-145 -146q-7 -6 -19.5 -6t-20.5 6l-145 146q8 19 34.5 44.5t44.5 30.5zM258 415q48 0 86.5 -16.5t59.5 -42t35 -57.5t12.5 -62.5t-7.5 -56.5h-257q6 -35 32 -54t64 -19q62 0 127 38q8 -12 7 -56.5t-7 -61.5q-56 -42 -143 -42
q-103 0 -165 60t-62 156q0 94 61.5 154t156.5 60zM259 306q-49 0 -64 -52h118q-6 52 -54 52z" />
    <glyph glyph-name="Gbreve" unicode="&#x11e;" horiz-adv-x="698" 
d="M555 888q8 -12 7 -56.5t-7 -61.5q-56 -42 -143 -42t-143 42q-6 17 -7 61.5t7 56.5q65 -38 143 -38t143 38zM474 120v197q78 14 157 0v-282q-32 -20 -93 -35t-126 -15q-166 0 -266.5 98t-100.5 242t100.5 242t266.5 98q117 0 198 -50q6 -17 7 -75t-7 -70q-101 62 -189 62
q-91 0 -152 -56.5t-61 -150.5q0 -96 61 -153t152 -57q23 0 53 5z" />
    <glyph glyph-name="gbreve" unicode="&#x11f;" 
d="M413 638q8 -12 7 -56.5t-7 -61.5q-56 -42 -143 -42t-143 42q-6 17 -7 61.5t7 56.5q65 -38 143 -38t143 38zM224 415q77 0 124 -62l11 47q62 11 125 0v-378q0 -93 -58.5 -146.5t-159.5 -53.5q-51 0 -93.5 11.5t-64.5 27.5q-6 17 -7 60t7 55q60 -35 127 -35q104 0 104 73
v31q-42 -50 -115 -50q-82 0 -133 61t-51 149t51 149t133 61zM264 290q-34 0 -56.5 -23.5t-22.5 -61.5t22.5 -61.5t56.5 -23.5q41 0 75 32v106q-34 32 -75 32z" />
    <glyph glyph-name="Gdotaccent" unicode="&#x120;" horiz-adv-x="698" 
d="M412 728q-38 0 -64 24t-26 60q0 37 26 61t64 24t64 -24t26 -61q0 -36 -26 -60t-64 -24zM474 120v197q78 14 157 0v-282q-32 -20 -93 -35t-126 -15q-166 0 -266.5 98t-100.5 242t100.5 242t266.5 98q117 0 198 -50q6 -17 7 -75t-7 -70q-101 62 -189 62q-91 0 -152 -56.5
t-61 -150.5q0 -96 61 -153t152 -57q23 0 53 5z" />
    <glyph glyph-name="gdotaccent" unicode="&#x121;" 
d="M270 478q-38 0 -64 24t-26 60q0 37 26 61t64 24t64 -24t26 -61q0 -36 -26 -60t-64 -24zM224 415q77 0 124 -62l11 47q62 11 125 0v-378q0 -93 -58.5 -146.5t-159.5 -53.5q-51 0 -93.5 11.5t-64.5 27.5q-6 17 -7 60t7 55q60 -35 127 -35q104 0 104 73v31q-42 -50 -115 -50
q-82 0 -133 61t-51 149t51 149t133 61zM264 290q-34 0 -56.5 -23.5t-22.5 -61.5t22.5 -61.5t56.5 -23.5q41 0 75 32v106q-34 32 -75 32z" />
    <glyph glyph-name="Gcommaaccent" unicode="&#x122;" horiz-adv-x="698" 
d="M474 120v197q78 14 157 0v-282q-32 -20 -93 -35t-126 -15q-166 0 -266.5 98t-100.5 242t100.5 242t266.5 98q117 0 198 -50q6 -17 7 -75t-7 -70q-101 62 -189 62q-91 0 -152 -56.5t-61 -150.5q0 -96 61 -153t152 -57q23 0 53 5zM412 -59q39 0 68.5 -27t29.5 -82
q0 -60 -33.5 -119t-62.5 -76q-38 -7 -77 0q56 52 95 137q-14 -2 -21 -2q-37 0 -63 24t-26 60q0 37 26.5 61t63.5 24z" />
    <glyph glyph-name="gcommaaccent" unicode="&#x123;" 
d="M353 782q-56 -52 -95 -137q14 2 21 2q37 0 63 -24t26 -60q0 -37 -26.5 -61t-63.5 -24q-39 0 -68.5 27t-29.5 82q0 60 33.5 119t62.5 76q38 7 77 0zM224 415q77 0 124 -62l11 47q62 11 125 0v-378q0 -93 -58.5 -146.5t-159.5 -53.5q-51 0 -93.5 11.5t-64.5 27.5
q-6 17 -7 60t7 55q60 -35 127 -35q104 0 104 73v31q-42 -50 -115 -50q-82 0 -133 61t-51 149t51 149t133 61zM264 290q-34 0 -56.5 -23.5t-22.5 -61.5t22.5 -61.5t56.5 -23.5q41 0 75 32v106q-34 32 -75 32z" />
    <glyph glyph-name="Hbar" unicode="&#x126;" horiz-adv-x="729" 
d="M659 571h43q12 -54 0 -110h-43v-461q-80 -14 -160 0v262h-269v-262q-80 -14 -160 0v462h-43q-12 54 0 109h43v79q80 14 160 0v-79h269v79q80 14 160 0v-79zM499 461l-269 1v-67h269v66z" />
    <glyph glyph-name="hbar" unicode="&#x127;" horiz-adv-x="509" 
d="M310 415q76 0 111 -45.5t35 -108.5v-261q-73 -13 -145 0v228q0 62 -52 62q-32 0 -57 -23v-267q-72 -13 -145 0v460h-40q-12 54 0 109h40v81q73 13 145 0v-81h74q12 -54 0 -110h-74v-91q52 47 108 47z" />
    <glyph glyph-name="Imacron" unicode="&#x12a;" horiz-adv-x="300" 
d="M18 838h259q12 -54 0 -110l-259 1q-12 54 0 109zM230 650v-650q-80 -14 -160 0v650q80 14 160 0z" />
    <glyph glyph-name="imacron" unicode="&#x12b;" horiz-adv-x="257" 
d="M-2 588h259q12 -54 0 -110l-259 1q-12 55 0 109zM202 400v-400q-72 -13 -145 0v400q73 13 145 0z" />
    <glyph glyph-name="Iogonek" unicode="&#x12e;" horiz-adv-x="300" 
d="M258 -122q13 -43 0 -88q-18 -5 -48 -5q-45 0 -75.5 25.5t-30.5 71.5q0 59 58 112q-52 -2 -92 6v650q80 14 160 0v-650l-16 -16q-11 -12 -17 -19.5t-12 -20t-6 -25.5q0 -20 14 -33t39 -13q18 0 26 5z" />
    <glyph glyph-name="iogonek" unicode="&#x12f;" horiz-adv-x="257" 
d="M130 478q-38 0 -64 24t-26 60q0 37 26 61t64 24t64 -24t26 -61q0 -36 -26 -60t-64 -24zM230 -122q13 -43 0 -88q-18 -5 -48 -5q-45 0 -75.5 25.5t-30.5 71.5q0 59 58 112q-41 0 -77 6v400q73 13 145 0v-400l-15 -16q-12 -12 -18 -19.5t-12 -20t-6 -25.5q0 -20 14 -33
t39 -13q18 0 26 5z" />
    <glyph glyph-name="Idotaccent" unicode="&#x130;" horiz-adv-x="300" 
d="M150 728q-38 0 -64 24t-26 60q0 37 26 61t64 24t64 -24t26 -61q0 -36 -26 -60t-64 -24zM230 650v-650q-80 -14 -160 0v650q80 14 160 0z" />
    <glyph glyph-name="dotlessi" unicode="&#x131;" horiz-adv-x="257" 
d="M202 400v-400q-72 -13 -145 0v400q73 13 145 0z" />
    <glyph glyph-name="IJ" unicode="&#x132;" horiz-adv-x="708" 
d="M230 650v-650q-80 -14 -160 0v650q80 14 160 0zM638 650v-466q0 -94 -48 -146.5t-132 -52.5q-70 0 -119 31q-6 17 -7 67t7 62q46 -17 73 -17q66 0 66 71v451q80 14 160 0z" />
    <glyph glyph-name="ij" unicode="&#x133;" horiz-adv-x="602" 
d="M147 665q38 0 64 -24t26 -61q0 -36 -26 -60t-64 -24t-64 24t-26 60q0 37 26 61t64 24zM457 665q38 0 64 -24t26 -61q0 -36 -26 -60t-64 -24t-64 24t-26 60q0 37 26 61t64 24zM219 400v-400q-73 -13 -145 0v400q73 13 145 0zM529 400v-434q0 -70 -33 -107t-93 -37
q-55 0 -100 18q-6 17 -7 62t7 57q40 -15 60 -15q15 0 18 8.5t3 34.5v413q73 13 145 0z" />
    <glyph glyph-name="Kcommaaccent" unicode="&#x136;" horiz-adv-x="675" 
d="M401 334l242 -334q-35 -6 -95 -6t-94 6l-224 312v-312q-80 -14 -160 0v650q80 14 160 0v-294l216 294q35 6 94.5 6t94.5 -6zM338 -59q39 0 68.5 -27t29.5 -82q0 -60 -33.5 -119t-62.5 -76q-38 -7 -77 0q56 52 95 137q-14 -2 -21 -2q-37 0 -63 24t-26 60q0 37 26.5 61
t63.5 24z" />
    <glyph glyph-name="kcommaaccent" unicode="&#x137;" horiz-adv-x="511" 
d="M347 210l134 -210q-81 -14 -162 0l-117 190v-190q-72 -13 -145 0v650q73 13 145 0v-422l113 172q81 14 162 0zM256 -59q39 0 68.5 -27t29.5 -82q0 -60 -33.5 -119t-62.5 -76q-38 -7 -77 0q56 52 95 137q-14 -2 -21 -2q-37 0 -63 24t-26 60q0 37 26.5 61t63.5 24z" />
    <glyph glyph-name="Lacute" unicode="&#x139;" horiz-adv-x="536" 
d="M179 766l111 174q20 -4 53.5 -29t41.5 -43l-130 -159q-19 4 -43 22t-33 35zM230 133h268q12 -66 0 -133h-428v650q80 14 160 0v-517z" />
    <glyph glyph-name="lacute" unicode="&#x13a;" horiz-adv-x="255" 
d="M27 766l111 174q20 -4 53.5 -29t41.5 -43l-130 -159q-19 4 -43 22t-33 35zM202 650v-650q-72 -13 -145 0v650q73 13 145 0z" />
    <glyph glyph-name="Lcommaaccent" unicode="&#x13b;" horiz-adv-x="536" 
d="M230 133h268q12 -66 0 -133h-428v650q80 14 160 0v-517zM289 -59q39 0 68.5 -27t29.5 -82q0 -60 -33.5 -119t-62.5 -76q-38 -7 -77 0q56 52 95 137q-14 -2 -21 -2q-37 0 -63 24t-26 60q0 37 26.5 61t63.5 24z" />
    <glyph glyph-name="lcommaaccent" unicode="&#x13c;" horiz-adv-x="255" 
d="M202 650v-650q-72 -13 -145 0v650q73 13 145 0zM128 -59q39 0 68.5 -27t29.5 -82q0 -60 -33.5 -119t-62.5 -76q-38 -7 -77 0q56 52 95 137q-14 -2 -21 -2q-37 0 -63 24t-26 60q0 37 26.5 61t63.5 24z" />
    <glyph glyph-name="Lcaron" unicode="&#x13d;" horiz-adv-x="536" 
d="M400 665q39 0 68.5 -27t29.5 -82q0 -60 -33.5 -119t-62.5 -76q-38 -7 -77 0q56 52 95 137q-14 -2 -21 -2q-37 0 -63 24t-26 60q0 37 26.5 61t63.5 24zM230 133h268q12 -66 0 -133h-428v650q80 14 160 0v-517z" />
    <glyph glyph-name="lcaron" unicode="&#x13e;" horiz-adv-x="423" 
d="M320 665q39 0 68.5 -27t29.5 -82q0 -60 -33.5 -119t-62.5 -76q-38 -7 -77 0q56 52 95 137q-14 -2 -21 -2q-37 0 -63 24t-26 60q0 37 26.5 61t63.5 24zM202 650v-650q-72 -13 -145 0v650q73 13 145 0z" />
    <glyph glyph-name="Ldot" unicode="&#x13f;" horiz-adv-x="536" 
d="M230 133h268q12 -66 0 -133h-428v650q80 14 160 0v-517zM408 231q-38 0 -64 24t-26 60q0 37 26 61t64 24t64 -24t26 -61q0 -36 -26 -60t-64 -24z" />
    <glyph glyph-name="ldot" unicode="&#x140;" horiz-adv-x="415" 
d="M202 650v-650q-72 -13 -145 0v650q73 13 145 0zM320 231q-38 0 -64 24t-26 60q0 37 26 61t64 24t64 -24t26 -61q0 -36 -26 -60t-64 -24z" />
    <glyph glyph-name="Lslash" unicode="&#x141;" horiz-adv-x="536" 
d="M230 133h268q12 -66 0 -133h-428v288l-46 -16q-12 54 0 109l46 16v253q80 14 160 0v-199l69 24q12 -54 0 -110l-69 -23v-209z" />
    <glyph glyph-name="lslash" unicode="&#x142;" horiz-adv-x="255" 
d="M202 414l35 10q12 -54 0 -110l-35 -10v-304q-72 -13 -145 0v265l-35 -10q-12 55 0 109l35 10v276q73 13 145 0v-236z" />
    <glyph glyph-name="Nacute" unicode="&#x143;" horiz-adv-x="722" 
d="M258 766l111 174q20 -4 53.5 -29t41.5 -43l-130 -159q-19 4 -43 22t-33 35zM655 650v-650q-63 -11 -125 0l-303 381v-381q-80 -14 -160 0v650q63 11 125 0l303 -381v381q80 14 160 0z" />
    <glyph glyph-name="nacute" unicode="&#x144;" horiz-adv-x="512" 
d="M153 516l111 174q20 -4 53.5 -29t41.5 -43l-130 -159q-19 4 -43 22t-33 35zM313 415q76 0 111 -45.5t35 -108.5v-261q-73 -13 -145 0v228q0 62 -52 62q-35 0 -62 -27v-263q-73 -13 -145 0v400q63 11 125 0l11 -47q55 62 122 62z" />
    <glyph glyph-name="Ncommaaccent" unicode="&#x145;" horiz-adv-x="722" 
d="M655 650v-650q-63 -11 -125 0l-303 381v-381q-80 -14 -160 0v650q63 11 125 0l303 -381v381q80 14 160 0zM361 -59q39 0 68.5 -27t29.5 -82q0 -60 -33.5 -119t-62.5 -76q-38 -7 -77 0q56 52 95 137q-14 -2 -21 -2q-37 0 -63 24t-26 60q0 37 26.5 61t63.5 24z" />
    <glyph glyph-name="ncommaaccent" unicode="&#x146;" horiz-adv-x="512" 
d="M313 415q76 0 111 -45.5t35 -108.5v-261q-73 -13 -145 0v228q0 62 -52 62q-35 0 -62 -27v-263q-73 -13 -145 0v400q63 11 125 0l11 -47q55 62 122 62zM256 -59q39 0 68.5 -27t29.5 -82q0 -60 -33.5 -119t-62.5 -76q-38 -7 -77 0q56 52 95 137q-14 -2 -21 -2q-37 0 -63 24
t-26 60q0 37 26.5 61t63.5 24z" />
    <glyph glyph-name="Ncaron" unicode="&#x147;" horiz-adv-x="722" 
d="M361 843l86 87q18 -5 44.5 -30.5t34.5 -44.5l-145 -146q-7 -6 -19.5 -6t-20.5 6l-145 146q8 19 34.5 44.5t44.5 30.5zM655 650v-650q-63 -11 -125 0l-303 381v-381q-80 -14 -160 0v650q63 11 125 0l303 -381v381q80 14 160 0z" />
    <glyph glyph-name="ncaron" unicode="&#x148;" horiz-adv-x="512" 
d="M256 593l86 87q18 -5 44.5 -30.5t34.5 -44.5l-145 -146q-8 -6 -20 -6t-20 6l-145 146q8 19 34.5 44.5t44.5 30.5zM313 415q76 0 111 -45.5t35 -108.5v-261q-73 -13 -145 0v228q0 62 -52 62q-35 0 -62 -27v-263q-73 -13 -145 0v400q63 11 125 0l11 -47q55 62 122 62z" />
    <glyph glyph-name="Eng" unicode="&#x14a;" horiz-adv-x="722" 
d="M495 269v381q80 14 160 0v-684q0 -70 -33 -107t-93 -37q-55 0 -100 18q-6 17 -7 62t7 57q40 -15 60 -15q15 0 18 8.5t3 34.5v38l-283 356v-381q-80 -14 -160 0v650q63 11 125 0z" />
    <glyph glyph-name="eng" unicode="&#x14b;" horiz-adv-x="512" 
d="M313 415q76 0 111 -45.5t35 -108.5v-295q0 -70 -33 -107t-93 -37q-55 0 -100 18q-6 17 -7 62t7 57q40 -15 60 -15q15 0 18 8.5t3 34.5v241q0 62 -52 62q-35 0 -62 -27v-263q-73 -13 -145 0v400q63 11 125 0l11 -47q55 62 122 62z" />
    <glyph glyph-name="Omacron" unicode="&#x14c;" horiz-adv-x="780" 
d="M258 838h259q12 -54 0 -110l-259 1q-12 54 0 109zM390 665q152 0 248.5 -98.5t96.5 -241.5t-96.5 -241.5t-248.5 -98.5t-248.5 98.5t-96.5 241.5t96.5 241.5t248.5 98.5zM390 532q-76 0 -129 -56.5t-53 -150.5t53 -150.5t129 -56.5t129 56.5t53 150.5t-53 150.5
t-129 56.5z" />
    <glyph glyph-name="omacron" unicode="&#x14d;" horiz-adv-x="524" 
d="M130 588h259q12 -54 0 -110l-259 1q-12 55 0 109zM262 415q97 0 159.5 -62t62.5 -153t-62.5 -153t-159.5 -62t-159.5 62t-62.5 153t62.5 153t159.5 62zM262 290q-33 0 -55 -24t-22 -66t22 -66t55 -24t55 24t22 66t-22 66t-55 24z" />
    <glyph glyph-name="Ohungarumlaut" unicode="&#x150;" horiz-adv-x="780" 
d="M231 766l111 174q20 -4 53.5 -29t41.5 -43l-130 -159q-19 4 -43 22t-33 35zM400 766l111 174q20 -4 53.5 -29t41.5 -43l-130 -159q-19 4 -43 22t-33 35zM390 665q152 0 248.5 -98.5t96.5 -241.5t-96.5 -241.5t-248.5 -98.5t-248.5 98.5t-96.5 241.5t96.5 241.5
t248.5 98.5zM390 532q-76 0 -129 -56.5t-53 -150.5t53 -150.5t129 -56.5t129 56.5t53 150.5t-53 150.5t-129 56.5z" />
    <glyph glyph-name="ohungarumlaut" unicode="&#x151;" horiz-adv-x="524" 
d="M103 516l111 174q20 -4 53.5 -29t41.5 -43l-130 -159q-19 4 -43 22t-33 35zM272 516l111 174q20 -4 53.5 -29t41.5 -43l-130 -159q-19 4 -43 22t-33 35zM262 415q97 0 159.5 -62t62.5 -153t-62.5 -153t-159.5 -62t-159.5 62t-62.5 153t62.5 153t159.5 62zM262 290
q-33 0 -55 -24t-22 -66t22 -66t55 -24t55 24t22 66t-22 66t-55 24z" />
    <glyph glyph-name="OE" unicode="&#x152;" horiz-adv-x="1069" 
d="M735 133h293q12 -66 0 -133h-453v34q-82 -49 -185 -49q-152 0 -248.5 98.5t-96.5 241.5t96.5 241.5t248.5 98.5q103 0 185 -49v34h453q12 -67 0 -133h-293v-122h259q12 -67 0 -133h-259v-129zM390 118q76 0 129 56.5t53 150.5t-53 150.5t-129 56.5t-129 -56.5t-53 -150.5
t53 -150.5t129 -56.5z" />
    <glyph glyph-name="oe" unicode="&#x153;" horiz-adv-x="788" 
d="M557 415q48 0 86.5 -16.5t59.5 -42t35 -57.5t12.5 -62.5t-7.5 -56.5h-257q6 -35 32 -54t64 -19q62 0 127 38q8 -12 7 -56.5t-7 -61.5q-56 -42 -143 -42q-95 0 -156 52q-60 -52 -148 -52q-97 0 -159.5 62t-62.5 153t62.5 153t159.5 62q88 0 148 -52q60 52 147 52zM558 306
q-49 0 -64 -52h118q-6 52 -54 52zM262 290q-33 0 -55 -24t-22 -66t22 -66t55 -24t55 24t22 66t-22 66t-55 24z" />
    <glyph glyph-name="Racute" unicode="&#x154;" horiz-adv-x="641" 
d="M191 766l111 174q20 -4 53.5 -29t41.5 -43l-130 -159q-19 4 -43 22t-33 35zM70 650h260q109 0 177 -59.5t68 -155.5q0 -65 -33 -115t-91 -76l158 -244q-35 -6 -87.5 -6t-86.5 6l-143 220h-62v-220q-80 -14 -160 0v650zM230 517v-164h100q35 0 58.5 21t23.5 61t-23.5 61
t-58.5 21h-100z" />
    <glyph glyph-name="racute" unicode="&#x155;" horiz-adv-x="413" 
d="M104 516l111 174q20 -4 53.5 -29t41.5 -43l-130 -159q-19 4 -43 22t-33 35zM376 397q8 -12 7 -71.5t-7 -76.5q-50 33 -87 33q-25 0 -49 -17t-40 -49v-216q-73 -13 -145 0v400q63 11 125 0l16 -70q46 85 116 85q44 0 64 -18z" />
    <glyph glyph-name="Rcommaaccent" unicode="&#x156;" horiz-adv-x="641" 
d="M70 650h260q109 0 177 -59.5t68 -155.5q0 -65 -33 -115t-91 -76l158 -244q-35 -6 -87.5 -6t-86.5 6l-143 220h-62v-220q-80 -14 -160 0v650zM230 517v-164h100q35 0 58.5 21t23.5 61t-23.5 61t-58.5 21h-100zM321 -59q39 0 68.5 -27t29.5 -82q0 -60 -33.5 -119t-62.5 -76
q-38 -7 -77 0q56 52 95 137q-14 -2 -21 -2q-37 0 -63 24t-26 60q0 37 26.5 61t63.5 24z" />
    <glyph glyph-name="rcommaaccent" unicode="&#x157;" horiz-adv-x="413" 
d="M376 397q8 -12 7 -71.5t-7 -76.5q-50 33 -87 33q-25 0 -49 -17t-40 -49v-216q-73 -13 -145 0v400q63 11 125 0l16 -70q46 85 116 85q44 0 64 -18zM207 -59q39 0 68.5 -27t29.5 -82q0 -60 -33.5 -119t-62.5 -76q-38 -7 -77 0q56 52 95 137q-14 -2 -21 -2q-37 0 -63 24
t-26 60q0 37 26.5 61t63.5 24z" />
    <glyph glyph-name="Rcaron" unicode="&#x158;" horiz-adv-x="641" 
d="M294 843l86 87q18 -5 44.5 -30.5t34.5 -44.5l-145 -146q-7 -6 -19.5 -6t-20.5 6l-145 146q8 19 34.5 44.5t44.5 30.5zM70 650h260q109 0 177 -59.5t68 -155.5q0 -65 -33 -115t-91 -76l158 -244q-35 -6 -87.5 -6t-86.5 6l-143 220h-62v-220q-80 -14 -160 0v650zM230 517
v-164h100q35 0 58.5 21t23.5 61t-23.5 61t-58.5 21h-100z" />
    <glyph glyph-name="rcaron" unicode="&#x159;" horiz-adv-x="413" 
d="M207 593l86 87q18 -5 44.5 -30.5t34.5 -44.5l-145 -146q-7 -6 -19.5 -6t-20.5 6l-145 146q8 19 34.5 44.5t44.5 30.5zM376 397q8 -12 7 -71.5t-7 -76.5q-50 33 -87 33q-25 0 -49 -17t-40 -49v-216q-73 -13 -145 0v400q63 11 125 0l16 -70q46 85 116 85q44 0 64 -18z" />
    <glyph glyph-name="Sacute" unicode="&#x15a;" horiz-adv-x="552" 
d="M173 766l111 174q20 -4 53.5 -29t41.5 -43l-130 -159q-19 4 -43 22t-33 35zM280 665q95 0 180 -50q6 -19 7 -79.5t-7 -72.5q-117 69 -179 69q-34 0 -54 -16t-20 -44t24 -42.5t92 -35.5q37 -12 63.5 -24.5t57 -35t47 -59t16.5 -84.5q0 -99 -67.5 -152.5t-171.5 -53.5
q-113 0 -196 50q-6 17 -7 78.5t7 73.5q117 -69 190 -69q41 0 62 16.5t21 44.5q0 27 -23 41t-97 38q-35 12 -62 25t-56.5 36t-45.5 58t-16 79q0 89 62.5 149t172.5 60z" />
    <glyph glyph-name="sacute" unicode="&#x15b;" horiz-adv-x="406" 
d="M100 516l111 174q20 -4 53.5 -29t41.5 -43l-130 -159q-19 4 -43 22t-33 35zM246 256q60 -19 92.5 -50t32.5 -84q0 -66 -50 -101.5t-125 -35.5q-38 0 -79.5 8.5t-61.5 22.5q-6 17 -7 56.5t7 51.5q79 -46 134 -46q37 0 37 25q0 3 -0.5 5.5t-2.5 5t-4 4t-6 3.5t-7.5 3.5
t-9.5 3.5l-11 3q-4 2 -12.5 4.5t-14.5 4.5q-57 19 -90 49t-33 86q0 65 45.5 102.5t123.5 37.5q92 0 138 -31q6 -17 7 -56.5t-7 -51.5q-79 46 -126 46q-37 0 -37 -28q0 -6 2.5 -11t10 -8.5t13 -5.5t20 -6.5t21.5 -6.5z" />
    <glyph glyph-name="Scedilla" unicode="&#x15e;" horiz-adv-x="552" 
d="M507 191q0 -91 -58 -144t-150 -61v-32q29 0 52.5 -21.5t23.5 -58.5q0 -39 -27.5 -64t-72.5 -25t-80 23q-5 13 -5 37t5 35q41 -28 70 -28q18 0 28.5 8.5t10.5 22.5q0 21 -21.5 29t-51.5 -4v79q-93 8 -159 48q-6 17 -7 78.5t7 73.5q117 -69 190 -69q41 0 62 16.5t21 44.5
q0 27 -23 41t-97 38q-35 12 -62 25t-56.5 36t-45.5 58t-16 79q0 89 62.5 149t172.5 60q95 0 180 -50q6 -19 7 -79.5t-7 -72.5q-117 69 -179 69q-34 0 -54 -16t-20 -44t24 -42.5t92 -35.5q37 -12 63.5 -24.5t57 -35t47 -59t16.5 -84.5z" />
    <glyph glyph-name="scedilla" unicode="&#x15f;" horiz-adv-x="406" 
d="M371 122q0 -60 -41.5 -95t-106.5 -41v-32q29 0 52.5 -21.5t23.5 -58.5q0 -39 -27.5 -64t-72.5 -25t-80 23q-5 13 -5 37t5 35q41 -28 70 -28q18 0 28.5 8.5t10.5 22.5q0 21 -21.5 29t-51.5 -4v79q-70 9 -100 29q-6 17 -7 56.5t7 51.5q79 -46 134 -46q37 0 37 25
q0 3 -0.5 5.5t-2.5 5t-4 4t-6 3.5t-7.5 3.5t-9.5 3.5l-11 3q-4 2 -12.5 4.5t-14.5 4.5q-57 19 -90 49t-33 86q0 65 45.5 102.5t123.5 37.5q92 0 138 -31q6 -17 7 -56.5t-7 -51.5q-79 46 -126 46q-37 0 -37 -28q0 -6 2.5 -11t10 -8.5t13 -5.5t20 -6.5t21.5 -6.5
q60 -19 92.5 -50t32.5 -84z" />
    <glyph glyph-name="Scaron" unicode="&#x160;" horiz-adv-x="552" 
d="M276 843l86 87q18 -5 44.5 -30.5t34.5 -44.5l-145 -146q-8 -6 -20 -6t-20 6l-145 146q8 19 34.5 44.5t44.5 30.5zM280 665q95 0 180 -50q6 -19 7 -79.5t-7 -72.5q-117 69 -179 69q-34 0 -54 -16t-20 -44t24 -42.5t92 -35.5q37 -12 63.5 -24.5t57 -35t47 -59t16.5 -84.5
q0 -99 -67.5 -152.5t-171.5 -53.5q-113 0 -196 50q-6 17 -7 78.5t7 73.5q117 -69 190 -69q41 0 62 16.5t21 44.5q0 27 -23 41t-97 38q-35 12 -62 25t-56.5 36t-45.5 58t-16 79q0 89 62.5 149t172.5 60z" />
    <glyph glyph-name="scaron" unicode="&#x161;" horiz-adv-x="406" 
d="M203 593l86 87q18 -5 44.5 -30.5t34.5 -44.5l-145 -146q-8 -6 -20 -6t-20 6l-145 146q8 19 34.5 44.5t44.5 30.5zM246 256q60 -19 92.5 -50t32.5 -84q0 -66 -50 -101.5t-125 -35.5q-38 0 -79.5 8.5t-61.5 22.5q-6 17 -7 56.5t7 51.5q79 -46 134 -46q37 0 37 25
q0 3 -0.5 5.5t-2.5 5t-4 4t-6 3.5t-7.5 3.5t-9.5 3.5l-11 3q-4 2 -12.5 4.5t-14.5 4.5q-57 19 -90 49t-33 86q0 65 45.5 102.5t123.5 37.5q92 0 138 -31q6 -17 7 -56.5t-7 -51.5q-79 46 -126 46q-37 0 -37 -28q0 -6 2.5 -11t10 -8.5t13 -5.5t20 -6.5t21.5 -6.5z" />
    <glyph glyph-name="Tcedilla" unicode="&#x162;" horiz-adv-x="588" 
d="M374 517v-517q-26 -4 -48 -5v-41q29 0 52.5 -21.5t23.5 -58.5q0 -39 -27.5 -64t-72.5 -25t-80 23q-5 13 -5 37t5 35q41 -28 70 -28q18 0 28.5 8.5t10.5 22.5q0 21 -21.5 29t-51.5 -4v87q-19 1 -44 5v517h-176q-12 67 0 133h512q12 -67 0 -133h-176z" />
    <glyph glyph-name="tcedilla" unicode="&#x163;" horiz-adv-x="393" 
d="M338 145q8 -12 7 -56.5t-7 -61.5q-28 -34 -90 -41v-32q29 0 52.5 -21.5t23.5 -58.5q0 -39 -27.5 -64t-72.5 -25t-80 23q-5 13 -5 37t5 35q41 -28 70 -28q18 0 28.5 8.5t10.5 22.5q0 21 -21.5 29t-51.5 -4v83q-88 24 -88 138v149h-56q-13 61 0 122h56v130q72 13 145 0
v-130h101q13 -61 0 -122h-101v-128q0 -22 5 -32.5t22 -10.5q28 0 74 38z" />
    <glyph glyph-name="Tcaron" unicode="&#x164;" horiz-adv-x="588" 
d="M294 843l86 87q18 -5 44.5 -30.5t34.5 -44.5l-145 -146q-7 -6 -19.5 -6t-20.5 6l-145 146q8 19 34.5 44.5t44.5 30.5zM38 650h512q12 -67 0 -133h-176v-517q-80 -14 -160 0v517h-176q-12 67 0 133z" />
    <glyph glyph-name="tcaron" unicode="&#x165;" horiz-adv-x="393" 
d="M354 665q39 0 69 -27t30 -78q0 -29 -10.5 -53.5t-27.5 -41.5t-30.5 -26.5t-27.5 -16.5q-38 -7 -77 0q79 47 95 76q-14 -2 -21 -2q-37 0 -63 24t-26 60q0 37 26 61t63 24zM338 145q8 -12 7 -56.5t-7 -61.5q-36 -42 -113 -42q-63 0 -98 37t-35 107v149h-56q-13 61 0 122h56
v130q72 13 145 0v-130h101q13 -61 0 -122h-101v-128q0 -22 5 -32.5t22 -10.5q28 0 74 38z" />
    <glyph glyph-name="Tbar" unicode="&#x166;" horiz-adv-x="588" 
d="M374 517v-117h72q12 -54 0 -110h-72v-290q-80 -14 -160 0v291h-72q-12 55 0 109h72v117h-176q-12 67 0 133h512q12 -67 0 -133h-176z" />
    <glyph glyph-name="tbar" unicode="&#x167;" horiz-adv-x="393" 
d="M338 145q8 -12 7 -56.5t-7 -61.5q-36 -42 -113 -42q-63 0 -98 37t-35 107v30h-56q-11 49 0 99h56v20h-56q-13 61 0 122h56v130q72 13 145 0v-130h101q13 -61 0 -122h-101v-20h101q11 -49 0 -100h-101v-8q0 -22 5 -32.5t22 -10.5q28 0 74 38z" />
    <glyph glyph-name="Umacron" unicode="&#x16a;" horiz-adv-x="691" 
d="M214 838h259q12 -54 0 -110l-259 1q-12 54 0 109zM461 248v402q81 14 163 0v-377q0 -288 -277 -288t-277 288v377q81 14 163 0v-402q0 -58 29.5 -94t84.5 -36t84.5 36t29.5 94z" />
    <glyph glyph-name="umacron" unicode="&#x16b;" horiz-adv-x="510" 
d="M123 588h259q12 -54 0 -110l-259 1q-12 55 0 109zM312 137v263q72 13 145 0v-400q-63 -11 -125 0l-11 47q-55 -62 -122 -62q-76 0 -111 45.5t-35 108.5v261q72 13 145 0v-228q0 -62 52 -62q35 0 62 27z" />
    <glyph glyph-name="Uring" unicode="&#x16e;" horiz-adv-x="691" 
d="M346 933q42 0 72 -30t30 -72q0 -43 -30 -73t-72 -30q-43 0 -73 30t-30 73q0 42 30 72t73 30zM346 856q-11 0 -18.5 -7.5t-7.5 -17.5q0 -11 8 -18.5t18 -7.5t17.5 7.5t7.5 18.5t-7.5 18t-17.5 7zM461 248v402q81 14 163 0v-377q0 -288 -277 -288t-277 288v377q81 14 163 0
v-402q0 -58 29.5 -94t84.5 -36t84.5 36t29.5 94z" />
    <glyph glyph-name="uring" unicode="&#x16f;" horiz-adv-x="510" 
d="M255 683q42 0 72 -30t30 -72q0 -43 -30 -73t-72 -30q-43 0 -73 30t-30 73q0 42 30 72t73 30zM255 606q-11 0 -18.5 -7.5t-7.5 -17.5q0 -11 7.5 -18.5t18.5 -7.5q10 0 17.5 7.5t7.5 18.5t-7 18t-18 7zM312 137v263q72 13 145 0v-400q-63 -11 -125 0l-11 47
q-55 -62 -122 -62q-76 0 -111 45.5t-35 108.5v261q72 13 145 0v-228q0 -62 52 -62q35 0 62 27z" />
    <glyph glyph-name="Uhungarumlaut" unicode="&#x170;" horiz-adv-x="691" 
d="M187 766l111 174q20 -4 53.5 -29t41.5 -43l-130 -159q-19 4 -43 22t-33 35zM356 766l111 174q20 -4 53.5 -29t41.5 -43l-130 -159q-19 4 -43 22t-33 35zM461 248v402q81 14 163 0v-377q0 -288 -277 -288t-277 288v377q81 14 163 0v-402q0 -58 29.5 -94t84.5 -36t84.5 36
t29.5 94z" />
    <glyph glyph-name="uhungarumlaut" unicode="&#x171;" horiz-adv-x="510" 
d="M96 516l111 174q20 -4 53.5 -29t41.5 -43l-130 -159q-19 4 -43 22t-33 35zM265 516l111 174q20 -4 53.5 -29t41.5 -43l-130 -159q-19 4 -43 22t-33 35zM312 137v263q72 13 145 0v-400q-63 -11 -125 0l-11 47q-55 -62 -122 -62q-76 0 -111 45.5t-35 108.5v261q72 13 145 0
v-228q0 -62 52 -62q35 0 62 27z" />
    <glyph glyph-name="Uogonek" unicode="&#x172;" horiz-adv-x="691" 
d="M461 248v402q81 14 163 0v-377q0 -203 -138 -263l-16 -16q-11 -12 -17 -19.5t-12 -20t-6 -25.5q0 -20 14 -33t39 -13q18 0 26 5q13 -43 0 -88q-18 -5 -48 -5q-45 0 -75.5 25.5t-30.5 71.5q0 52 42 96q-26 -3 -55 -3q-277 0 -277 288v377q81 14 163 0v-402q0 -58 29.5 -94
t84.5 -36t84.5 36t29.5 94z" />
    <glyph glyph-name="uogonek" unicode="&#x173;" horiz-adv-x="510" 
d="M485 -122q13 -43 0 -88q-18 -5 -48 -5q-45 0 -75.5 25.5t-30.5 71.5q0 59 58 112q-25 0 -57 6l-11 47q-55 -62 -122 -62q-76 0 -111 45.5t-35 108.5v261q72 13 145 0v-228q0 -62 52 -62q35 0 62 27v263q72 13 145 0v-400l-15 -16q-12 -12 -18 -19.5t-12 -20t-6 -25.5
q0 -20 14 -33t39 -13q18 0 26 5z" />
    <glyph glyph-name="Wcircumflex" unicode="&#x174;" horiz-adv-x="1026" 
d="M533 930l145 -146q-8 -19 -34.5 -44.5t-44.5 -30.5l-86 87l-86 -87q-18 5 -44.5 30.5t-34.5 44.5l145 146q8 6 20.5 6t19.5 -6zM994 650l-224 -650q-66 -11 -132 0l-125 384l-125 -384q-66 -11 -132 0l-224 650q83 14 165 0l125 -412l125 412q66 11 132 0l125 -412
l125 412q83 14 165 0z" />
    <glyph glyph-name="wcircumflex" unicode="&#x175;" horiz-adv-x="774" 
d="M407 680l145 -146q-8 -19 -34.5 -44.5t-44.5 -30.5l-86 87l-86 -87q-18 5 -44.5 30.5t-34.5 44.5l145 146q8 6 20.5 6t19.5 -6zM188 0l-158 400q77 13 154 0l64 -209l80 209q59 13 118 0l80 -209l64 209q77 13 154 0l-158 -400q-58 -13 -117 0l-82 219l-82 -219
q-59 -13 -117 0z" />
    <glyph glyph-name="Ycircumflex" unicode="&#x176;" horiz-adv-x="698" 
d="M369 930l145 -146q-8 -19 -34.5 -44.5t-44.5 -30.5l-86 87l-86 -87q-18 5 -44.5 30.5t-34.5 44.5l145 146q8 6 20.5 6t19.5 -6zM429 225v-225q-80 -14 -160 0v225l-237 425q35 6 86 6t85 -6l146 -276l146 276q35 6 86 6t85 -6z" />
    <glyph glyph-name="ycircumflex" unicode="&#x177;" horiz-adv-x="527" 
d="M284 680l145 -146q-8 -19 -34.5 -44.5t-44.5 -30.5l-86 87l-86 -87q-18 5 -44.5 30.5t-34.5 44.5l145 146q8 6 20.5 6t19.5 -6zM264 191l81 209q76 13 152 0l-246 -563q-74 -13 -147 0l86 197l-160 366q76 13 152 0z" />
    <glyph glyph-name="Ydieresis" unicode="&#x178;" horiz-adv-x="698" 
d="M227 897q38 0 64 -24t26 -61q0 -36 -26 -60t-64 -24t-64 24t-26 60q0 37 26 61t64 24zM472 897q38 0 64 -24t26 -61q0 -36 -26 -60t-64 -24t-64 24t-26 60q0 37 26 61t64 24zM429 225v-225q-80 -14 -160 0v225l-237 425q35 6 86 6t85 -6l146 -276l146 276q35 6 86 6
t85 -6z" />
    <glyph glyph-name="Zacute" unicode="&#x179;" horiz-adv-x="563" 
d="M179 766l111 174q20 -4 53.5 -29t41.5 -43l-130 -159q-19 4 -43 22t-33 35zM270 133h252q12 -66 0 -133h-487v10l258 507h-240q-12 67 0 133h475v-10z" />
    <glyph glyph-name="zacute" unicode="&#x17a;" horiz-adv-x="437" 
d="M116 516l111 174q20 -4 53.5 -29t41.5 -43l-130 -159q-19 4 -43 22t-33 35zM249 125l147 1q11 -62 0 -126h-361v9l153 266h-136q-11 63 0 125h350v-9z" />
    <glyph glyph-name="Zdotaccent" unicode="&#x17b;" horiz-adv-x="563" 
d="M282 728q-38 0 -64 24t-26 60q0 37 26 61t64 24t64 -24t26 -61q0 -36 -26 -60t-64 -24zM270 133h252q12 -66 0 -133h-487v10l258 507h-240q-12 67 0 133h475v-10z" />
    <glyph glyph-name="zdotaccent" unicode="&#x17c;" horiz-adv-x="437" 
d="M219 478q-38 0 -64 24t-26 60q0 37 26 61t64 24t64 -24t26 -61q0 -36 -26 -60t-64 -24zM249 125l147 1q11 -62 0 -126h-361v9l153 266h-136q-11 63 0 125h350v-9z" />
    <glyph glyph-name="Zcaron" unicode="&#x17d;" horiz-adv-x="563" 
d="M282 843l86 87q18 -5 44.5 -30.5t34.5 -44.5l-145 -146q-8 -6 -20 -6t-20 6l-145 146q8 19 34.5 44.5t44.5 30.5zM270 133h252q12 -66 0 -133h-487v10l258 507h-240q-12 67 0 133h475v-10z" />
    <glyph glyph-name="zcaron" unicode="&#x17e;" horiz-adv-x="437" 
d="M219 593l86 87q18 -5 44.5 -30.5t34.5 -44.5l-145 -146q-7 -6 -19.5 -6t-20.5 6l-145 146q8 19 34.5 44.5t44.5 30.5zM249 125l147 1q11 -62 0 -126h-361v9l153 266h-136q-11 63 0 125h350v-9z" />
    <glyph glyph-name="Acaron" unicode="&#x1cd;" horiz-adv-x="724" 
d="M362 843l86 87q18 -5 44.5 -30.5t34.5 -44.5l-145 -146q-8 -6 -20 -6t-20 6l-145 146q8 19 34.5 44.5t44.5 30.5zM428 650l264 -650q-82 -14 -165 0l-46 123h-238l-46 -123q-83 -14 -165 0l264 650q66 11 132 0zM293 258h138l-69 186z" />
    <glyph glyph-name="acaron" unicode="&#x1ce;" horiz-adv-x="474" 
d="M237 593l86 87q18 -5 44.5 -30.5t34.5 -44.5l-145 -146q-7 -6 -19.5 -6t-20.5 6l-145 146q8 19 34.5 44.5t44.5 30.5zM228 415q101 0 147 -48.5t46 -144.5v-222q-63 -11 -125 0l-9 40q-47 -55 -113 -55q-56 0 -96.5 34t-40.5 95q0 60 40.5 94t102.5 34t96 -29v22
q0 34 -18.5 49t-60.5 15q-57 0 -122 -35q-8 12 -7 55.5t7 60.5q57 35 153 35zM219 154q-38 0 -38 -30q0 -13 9.5 -22t27.5 -9q33 0 58 17v28q-21 16 -57 16z" />
    <glyph glyph-name="Icaron" unicode="&#x1cf;" horiz-adv-x="300" 
d="M150 843l86 87q18 -5 44.5 -30.5t34.5 -44.5l-145 -146q-8 -6 -20 -6t-20 6l-145 146q8 19 34.5 44.5t44.5 30.5zM230 650v-650q-80 -14 -160 0v650q80 14 160 0z" />
    <glyph glyph-name="icaron" unicode="&#x1d0;" horiz-adv-x="257" 
d="M130 593l86 87q18 -5 44.5 -30.5t34.5 -44.5l-145 -146q-8 -6 -20 -6t-20 6l-145 146q8 19 34.5 44.5t44.5 30.5zM202 400v-400q-72 -13 -145 0v400q73 13 145 0z" />
    <glyph glyph-name="Ocaron" unicode="&#x1d1;" horiz-adv-x="780" 
d="M390 843l86 87q18 -5 44.5 -30.5t34.5 -44.5l-145 -146q-8 -6 -20 -6t-20 6l-145 146q8 19 34.5 44.5t44.5 30.5zM390 665q152 0 248.5 -98.5t96.5 -241.5t-96.5 -241.5t-248.5 -98.5t-248.5 98.5t-96.5 241.5t96.5 241.5t248.5 98.5zM390 532q-76 0 -129 -56.5
t-53 -150.5t53 -150.5t129 -56.5t129 56.5t53 150.5t-53 150.5t-129 56.5z" />
    <glyph glyph-name="ocaron" unicode="&#x1d2;" horiz-adv-x="524" 
d="M262 593l86 87q18 -5 44.5 -30.5t34.5 -44.5l-145 -146q-8 -6 -20 -6t-20 6l-145 146q8 19 34.5 44.5t44.5 30.5zM262 415q97 0 159.5 -62t62.5 -153t-62.5 -153t-159.5 -62t-159.5 62t-62.5 153t62.5 153t159.5 62zM262 290q-33 0 -55 -24t-22 -66t22 -66t55 -24t55 24
t22 66t-22 66t-55 24z" />
    <glyph glyph-name="Ucaron" unicode="&#x1d3;" horiz-adv-x="691" 
d="M346 843l86 87q18 -5 44.5 -30.5t34.5 -44.5l-145 -146q-8 -6 -20 -6t-20 6l-145 146q8 19 34.5 44.5t44.5 30.5zM461 248v402q81 14 163 0v-377q0 -288 -277 -288t-277 288v377q81 14 163 0v-402q0 -58 29.5 -94t84.5 -36t84.5 36t29.5 94z" />
    <glyph glyph-name="ucaron" unicode="&#x1d4;" horiz-adv-x="510" 
d="M255 593l86 87q18 -5 44.5 -30.5t34.5 -44.5l-145 -146q-7 -6 -19.5 -6t-20.5 6l-145 146q8 19 34.5 44.5t44.5 30.5zM312 137v263q72 13 145 0v-400q-63 -11 -125 0l-11 47q-55 -62 -122 -62q-76 0 -111 45.5t-35 108.5v261q72 13 145 0v-228q0 -62 52 -62q35 0 62 27z
" />
    <glyph glyph-name="Udieresismacron" unicode="&#x1d5;" horiz-adv-x="691" 
d="M214 1058h259q12 -54 0 -110l-259 1q-12 55 0 109zM224 897q38 0 64 -24t26 -61q0 -36 -26 -60t-64 -24t-64 24t-26 60q0 37 26 61t64 24zM469 897q38 0 64 -24t26 -61q0 -36 -26 -60t-64 -24t-64 24t-26 60q0 37 26 61t64 24zM461 248v402q81 14 163 0v-377
q0 -288 -277 -288t-277 288v377q81 14 163 0v-402q0 -58 29.5 -94t84.5 -36t84.5 36t29.5 94z" />
    <glyph glyph-name="udieresismacron" unicode="&#x1d6;" horiz-adv-x="510" 
d="M123 807h259q12 -54 0 -110l-259 1q-12 54 0 109zM133 647q38 0 64 -24t26 -61q0 -36 -26 -60t-64 -24t-64 24t-26 60q0 37 26 61t64 24zM378 647q38 0 64 -24t26 -61q0 -36 -26 -60t-64 -24t-64 24t-26 60q0 37 26 61t64 24zM312 137v263q72 13 145 0v-400
q-63 -11 -125 0l-11 47q-55 -62 -122 -62q-76 0 -111 45.5t-35 108.5v261q72 13 145 0v-228q0 -62 52 -62q35 0 62 27z" />
    <glyph glyph-name="Udieresisacute" unicode="&#x1d7;" horiz-adv-x="691" 
d="M243 996l111 174q20 -4 53.5 -29t41.5 -43l-130 -159q-19 4 -43 22t-33 35zM224 897q38 0 64 -24t26 -61q0 -36 -26 -60t-64 -24t-64 24t-26 60q0 37 26 61t64 24zM469 897q38 0 64 -24t26 -61q0 -36 -26 -60t-64 -24t-64 24t-26 60q0 37 26 61t64 24zM461 248v402
q81 14 163 0v-377q0 -288 -277 -288t-277 288v377q81 14 163 0v-402q0 -58 29.5 -94t84.5 -36t84.5 36t29.5 94z" />
    <glyph glyph-name="udieresisacute" unicode="&#x1d8;" horiz-adv-x="510" 
d="M152 745l111 174q20 -4 53.5 -29t41.5 -43l-130 -159q-19 4 -43 22t-33 35zM133 647q38 0 64 -24t26 -61q0 -36 -26 -60t-64 -24t-64 24t-26 60q0 37 26 61t64 24zM378 647q38 0 64 -24t26 -61q0 -36 -26 -60t-64 -24t-64 24t-26 60q0 37 26 61t64 24zM312 137v263
q72 13 145 0v-400q-63 -11 -125 0l-11 47q-55 -62 -122 -62q-76 0 -111 45.5t-35 108.5v261q72 13 145 0v-228q0 -62 52 -62q35 0 62 27z" />
    <glyph glyph-name="Udieresiscaron" unicode="&#x1d9;" horiz-adv-x="691" 
d="M346 1073l86 87q18 -5 44.5 -30.5t34.5 -44.5l-145 -146q-8 -6 -20 -6t-20 6l-145 146q8 19 34.5 44.5t44.5 30.5zM224 897q38 0 64 -24t26 -61q0 -36 -26 -60t-64 -24t-64 24t-26 60q0 37 26 61t64 24zM469 897q38 0 64 -24t26 -61q0 -36 -26 -60t-64 -24t-64 24t-26 60
q0 37 26 61t64 24zM461 248v402q81 14 163 0v-377q0 -288 -277 -288t-277 288v377q81 14 163 0v-402q0 -58 29.5 -94t84.5 -36t84.5 36t29.5 94z" />
    <glyph glyph-name="udieresiscaron" unicode="&#x1da;" horiz-adv-x="510" 
d="M255 823l86 87q18 -5 44.5 -30.5t34.5 -44.5l-145 -146q-7 -6 -19.5 -6t-20.5 6l-145 146q8 19 34.5 44.5t44.5 30.5zM133 647q38 0 64 -24t26 -61q0 -36 -26 -60t-64 -24t-64 24t-26 60q0 37 26 61t64 24zM378 647q38 0 64 -24t26 -61q0 -36 -26 -60t-64 -24t-64 24
t-26 60q0 37 26 61t64 24zM312 137v263q72 13 145 0v-400q-63 -11 -125 0l-11 47q-55 -62 -122 -62q-76 0 -111 45.5t-35 108.5v261q72 13 145 0v-228q0 -62 52 -62q35 0 62 27z" />
    <glyph glyph-name="Udieresisgrave" unicode="&#x1db;" horiz-adv-x="691" 
d="M338 1170l111 -174q-9 -17 -33 -35t-43 -22l-130 159q8 18 41.5 43t53.5 29zM224 897q38 0 64 -24t26 -61q0 -36 -26 -60t-64 -24t-64 24t-26 60q0 37 26 61t64 24zM469 897q38 0 64 -24t26 -61q0 -36 -26 -60t-64 -24t-64 24t-26 60q0 37 26 61t64 24zM461 248v402
q81 14 163 0v-377q0 -288 -277 -288t-277 288v377q81 14 163 0v-402q0 -58 29.5 -94t84.5 -36t84.5 36t29.5 94z" />
    <glyph glyph-name="udieresisgrave" unicode="&#x1dc;" horiz-adv-x="510" 
d="M247 920l111 -174q-9 -17 -33 -35t-43 -22l-130 159q8 18 41.5 43t53.5 29zM133 647q38 0 64 -24t26 -61q0 -36 -26 -60t-64 -24t-64 24t-26 60q0 37 26 61t64 24zM378 647q38 0 64 -24t26 -61q0 -36 -26 -60t-64 -24t-64 24t-26 60q0 37 26 61t64 24zM312 137v263
q72 13 145 0v-400q-63 -11 -125 0l-11 47q-55 -62 -122 -62q-76 0 -111 45.5t-35 108.5v261q72 13 145 0v-228q0 -62 52 -62q35 0 62 27z" />
    <glyph glyph-name="Scommaaccent" unicode="&#x218;" horiz-adv-x="552" 
d="M280 665q95 0 180 -50q6 -19 7 -79.5t-7 -72.5q-117 69 -179 69q-34 0 -54 -16t-20 -44t24 -42.5t92 -35.5q37 -12 63.5 -24.5t57 -35t47 -59t16.5 -84.5q0 -99 -67.5 -152.5t-171.5 -53.5q-113 0 -196 50q-6 17 -7 78.5t7 73.5q117 -69 190 -69q41 0 62 16.5t21 44.5
q0 27 -23 41t-97 38q-35 12 -62 25t-56.5 36t-45.5 58t-16 79q0 89 62.5 149t172.5 60zM267 -59q39 0 68.5 -27t29.5 -82q0 -60 -33.5 -119t-62.5 -76q-38 -7 -77 0q56 52 95 137q-14 -2 -21 -2q-37 0 -63 24t-26 60q0 37 26.5 61t63.5 24z" />
    <glyph glyph-name="scommaaccent" unicode="&#x219;" horiz-adv-x="406" 
d="M246 256q60 -19 92.5 -50t32.5 -84q0 -66 -50 -101.5t-125 -35.5q-38 0 -79.5 8.5t-61.5 22.5q-6 17 -7 56.5t7 51.5q79 -46 134 -46q37 0 37 25q0 3 -0.5 5.5t-2.5 5t-4 4t-6 3.5t-7.5 3.5t-9.5 3.5l-11 3q-4 2 -12.5 4.5t-14.5 4.5q-57 19 -90 49t-33 86
q0 65 45.5 102.5t123.5 37.5q92 0 138 -31q6 -17 7 -56.5t-7 -51.5q-79 46 -126 46q-37 0 -37 -28q0 -6 2.5 -11t10 -8.5t13 -5.5t20 -6.5t21.5 -6.5zM191 -59q39 0 68.5 -27t29.5 -82q0 -60 -33.5 -119t-62.5 -76q-38 -7 -77 0q56 52 95 137q-14 -2 -21 -2q-37 0 -63 24
t-26 60q0 37 26.5 61t63.5 24z" />
    <glyph glyph-name="uni021A" unicode="&#x21a;" horiz-adv-x="588" 
d="M38 650h512q12 -67 0 -133h-176v-517q-80 -14 -160 0v517h-176q-12 67 0 133zM294 -59q39 0 68.5 -27t29.5 -82q0 -60 -33.5 -119t-62.5 -76q-38 -7 -77 0q56 52 95 137q-14 -2 -21 -2q-37 0 -63 24t-26 60q0 37 26.5 61t63.5 24z" />
    <glyph glyph-name="uni021B" unicode="&#x21b;" horiz-adv-x="393" 
d="M338 145q8 -12 7 -56.5t-7 -61.5q-36 -42 -113 -42q-63 0 -98 37t-35 107v149h-56q-13 61 0 122h56v130q72 13 145 0v-130h101q13 -61 0 -122h-101v-128q0 -22 5 -32.5t22 -10.5q28 0 74 38zM216 -59q39 0 68.5 -27t29.5 -82q0 -60 -33.5 -119t-62.5 -76q-38 -7 -77 0
q56 52 95 137q-14 -2 -21 -2q-37 0 -63 24t-26 60q0 37 26.5 61t63.5 24z" />
    <glyph glyph-name="circumflex" unicode="&#x2c6;" horiz-adv-x="390" 
d="M215 930l145 -146q-8 -19 -34.5 -44.5t-44.5 -30.5l-86 87l-86 -87q-18 5 -44.5 30.5t-34.5 44.5l145 146q8 6 20.5 6t19.5 -6z" />
    <glyph glyph-name="caron" unicode="&#x2c7;" horiz-adv-x="390" 
d="M195 843l86 87q18 -5 44.5 -30.5t34.5 -44.5l-145 -146q-7 -6 -19.5 -6t-20.5 6l-145 146q8 19 34.5 44.5t44.5 30.5z" />
    <glyph glyph-name="breve" unicode="&#x2d8;" horiz-adv-x="360" 
d="M323 888q8 -12 7 -56.5t-7 -61.5q-56 -42 -143 -42t-143 42q-6 17 -7 61.5t7 56.5q65 -38 143 -38t143 38z" />
    <glyph glyph-name="dotaccent" unicode="&#x2d9;" horiz-adv-x="240" 
d="M120 728q-38 0 -64 24t-26 60q0 37 26 61t64 24t64 -24t26 -61q0 -36 -26 -60t-64 -24z" />
    <glyph glyph-name="ring" unicode="&#x2da;" horiz-adv-x="265" 
d="M133 933q42 0 72 -30t30 -72q0 -43 -30 -73t-72 -30q-43 0 -73 30t-30 73q0 42 30 72t73 30zM133 856q-11 0 -18.5 -7.5t-7.5 -17.5q0 -11 7.5 -18.5t18.5 -7.5q10 0 17.5 7.5t7.5 18.5t-7 18t-18 7z" />
    <glyph glyph-name="ogonek" unicode="&#x2db;" horiz-adv-x="220" 
d="M95 0h61l-16 -16q-11 -12 -17 -19.5t-12 -20t-6 -25.5q0 -20 14 -33t39 -13q18 0 26 5q13 -43 0 -88q-18 -5 -48 -5q-45 0 -75.5 25.5t-30.5 71.5q0 63 65 118z" />
    <glyph glyph-name="tilde" unicode="&#x2dc;" horiz-adv-x="371" 
d="M122 872q27 0 75 -22q27 -12 52 -12q28 0 86 30q12 -56 0 -110q-3 -1 -13 -6.5t-14 -7.5t-13 -6t-15 -5.5t-14.5 -3t-16.5 -1.5q-27 0 -75 22q-27 12 -52 12q-28 0 -86 -30q-12 56 0 110q3 1 13 6.5t14 7.5t13 6t15 5.5t14.5 3t16.5 1.5z" />
    <glyph glyph-name="hungarumlaut" unicode="&#x2dd;" horiz-adv-x="435" 
d="M30 766l111 174q20 -4 53.5 -29t41.5 -43l-130 -159q-19 4 -43 22t-33 35zM199 766l111 174q20 -4 53.5 -29t41.5 -43l-130 -159q-19 4 -43 22t-33 35z" />
    <glyph glyph-name="uni0326" unicode="&#x326;" horiz-adv-x="0" 
d="M120 -59q39 0 68.5 -27t29.5 -82q0 -60 -33.5 -119t-62.5 -76q-38 -7 -77 0q56 52 95 137q-14 -2 -21 -2q-37 0 -63 24t-26 60q0 37 26.5 61t63.5 24z" />
    <glyph glyph-name="uni0401" unicode="&#x401;" horiz-adv-x="564" 
d="M183 897q38 0 64 -24t26 -61q0 -36 -26 -60t-64 -24t-64 24t-26 60q0 37 26 61t64 24zM408 897q38 0 64 -24t26 -61q0 -36 -26 -60t-64 -24t-64 24t-26 60q0 37 26 61t64 24zM70 650h453q12 -67 0 -133h-293v-122h259q12 -67 0 -133h-259v-129h293q12 -66 0 -133h-453
v650z" />
    <glyph glyph-name="uni0410" unicode="&#x410;" horiz-adv-x="724" 
d="M428 650l264 -650q-82 -14 -165 0l-46 123h-238l-46 -123q-83 -14 -165 0l264 650q66 11 132 0zM293 258h138l-69 186z" />
    <glyph glyph-name="uni0411" unicode="&#x411;" horiz-adv-x="610" 
d="M230 418h95q109 0 177 -58t68 -150t-68.5 -151t-176.5 -59h-255v650h437q12 -67 0 -133h-277v-99zM230 133h95q35 0 58.5 20t23.5 57t-23.5 57t-58.5 20h-95v-154z" />
    <glyph glyph-name="uni0412" unicode="&#x412;" horiz-adv-x="610" 
d="M70 650h280q94 0 153 -47.5t59 -122.5q0 -99 -89 -144q47 -21 74.5 -60t27.5 -92q0 -86 -60.5 -135t-162.5 -49h-282v650zM230 517v-134h102q32 0 51 17.5t19 49.5q0 67 -70 67h-102zM230 271v-138h112q70 0 70 70q0 68 -76 68h-106z" />
    <glyph glyph-name="uni0413" unicode="&#x413;" horiz-adv-x="536" 
d="M70 650h428q12 -67 0 -133h-268v-517q-80 -14 -160 0v650z" />
    <glyph glyph-name="uni0414" unicode="&#x414;" horiz-adv-x="788" 
d="M756 133v-234q-80 -14 -160 0v101h-404v-101q-80 -14 -160 0v234h59q61 26 74 147l39 370h470v-517h82zM514 517h-164l-25 -237q-11 -107 -50 -147h239v384z" />
    <glyph glyph-name="uni0415" unicode="&#x415;" horiz-adv-x="564" 
d="M230 133h293q12 -66 0 -133h-453v650h453q12 -67 0 -133h-293v-122h259q12 -67 0 -133h-259v-129z" />
    <glyph glyph-name="uni0416" unicode="&#x416;" horiz-adv-x="948" 
d="M715 334l201 -334q-35 -6 -89.5 -6t-89.5 6l-183 307v-307q-80 -14 -160 0v307l-183 -307q-35 -6 -90 -6t-89 6l201 334l-193 316q34 6 89 6t90 -6l175 -290v290q80 14 160 0v-290l175 290q34 6 89.5 6t89.5 -6z" />
    <glyph glyph-name="uni0417" unicode="&#x417;" horiz-adv-x="563" 
d="M426 334q48 -22 75 -63.5t27 -96.5q0 -89 -70.5 -139.5t-182.5 -50.5q-120 0 -201 50q-6 17 -7 75t7 70q101 -62 192 -62q39 0 69 19t30 58q0 69 -76 69h-99q-11 63 0 126h95q32 0 51 18.5t19 52.5q0 35 -22.5 53.5t-59.5 18.5q-88 0 -189 -62q-8 12 -7 70t7 75
q81 50 198 50q107 0 170 -48.5t63 -129.5q0 -51 -24 -91t-65 -62z" />
    <glyph glyph-name="uni0418" unicode="&#x418;" horiz-adv-x="722" 
d="M655 650v-650q-80 -14 -160 0v381l-303 -381q-62 -11 -125 0v650q80 14 160 0v-381l303 381q62 11 125 0z" />
    <glyph glyph-name="uni0419" unicode="&#x419;" horiz-adv-x="722" 
d="M504 888q8 -12 7 -56.5t-7 -61.5q-56 -42 -143 -42t-143 42q-6 17 -7 61.5t7 56.5q65 -38 143 -38t143 38zM655 650v-650q-80 -14 -160 0v381l-303 -381q-62 -11 -125 0v650q80 14 160 0v-381l303 381q62 11 125 0z" />
    <glyph glyph-name="uni041A" unicode="&#x41a;" horiz-adv-x="675" 
d="M401 334l242 -334q-35 -6 -95 -6t-94 6l-224 312v-312q-80 -14 -160 0v650q80 14 160 0v-294l216 294q35 6 94.5 6t94.5 -6z" />
    <glyph glyph-name="uni041B" unicode="&#x41b;" horiz-adv-x="722" 
d="M652 650v-650q-80 -14 -160 0v517h-166l-34 -333q-21 -199 -180 -199q-39 0 -74 11q-12 67 0 135q14 -3 28 -3q58 0 66 71l47 451h473z" />
    <glyph glyph-name="uni041C" unicode="&#x41c;" horiz-adv-x="928" 
d="M742 650l154 -650q-78 -14 -156 0l-80 365l-132 -365q-64 -11 -128 0l-132 365l-80 -365q-78 -14 -156 0l154 650q67 12 134 0l144 -398l144 398q67 12 134 0z" />
    <glyph glyph-name="uni041D" unicode="&#x41d;" horiz-adv-x="729" 
d="M499 395v255q80 14 160 0v-650q-80 -14 -160 0v262h-269v-262q-80 -14 -160 0v650q80 14 160 0v-255h269z" />
    <glyph glyph-name="uni041E" unicode="&#x41e;" horiz-adv-x="780" 
d="M390 665q152 0 248.5 -98.5t96.5 -241.5t-96.5 -241.5t-248.5 -98.5t-248.5 98.5t-96.5 241.5t96.5 241.5t248.5 98.5zM390 532q-76 0 -129 -56.5t-53 -150.5t53 -150.5t129 -56.5t129 56.5t53 150.5t-53 150.5t-129 56.5z" />
    <glyph glyph-name="uni041F" unicode="&#x41f;" horiz-adv-x="729" 
d="M659 650v-650q-80 -14 -160 0v517h-269v-517q-80 -14 -160 0v650h589z" />
    <glyph glyph-name="uni0420" unicode="&#x420;" horiz-adv-x="615" 
d="M70 650h255q109 0 177 -60t68 -158t-68 -158t-177 -60h-95v-214q-80 -14 -160 0v650zM230 347h95q35 0 58.5 21.5t23.5 63.5t-23.5 63.5t-58.5 21.5h-95v-170z" />
    <glyph glyph-name="uni0421" unicode="&#x421;" horiz-adv-x="684" 
d="M421 118q88 0 189 62q8 -12 7 -70t-7 -75q-81 -50 -198 -50q-166 0 -266.5 98t-100.5 242t100.5 242t266.5 98q117 0 198 -50q6 -17 7 -75t-7 -70q-101 62 -189 62q-91 0 -152 -56.5t-61 -150.5t61 -150.5t152 -56.5z" />
    <glyph glyph-name="uni0422" unicode="&#x422;" horiz-adv-x="588" 
d="M38 650h512q12 -67 0 -133h-176v-517q-80 -14 -160 0v517h-176q-12 67 0 133z" />
    <glyph glyph-name="uni0423" unicode="&#x423;" horiz-adv-x="698" 
d="M349 374l146 276q35 6 86 6t85 -6l-362 -650q-34 -6 -85 -6t-86 6l131 234l-232 416q35 6 86 6t85 -6z" />
    <glyph glyph-name="uni0424" unicode="&#x424;" horiz-adv-x="906" 
d="M533 587h33q138 0 216.5 -77.5t78.5 -184.5t-78.5 -184.5t-216.5 -77.5h-33v-63q-80 -14 -160 0v63h-33q-138 0 -216.5 77.5t-78.5 184.5t78.5 184.5t216.5 77.5h33v63q80 14 160 0v-63zM373 454h-36q-57 0 -93 -36.5t-36 -92.5t36 -92.5t93 -36.5h36v258zM533 196h36
q57 0 93 36.5t36 92.5t-36 92.5t-93 36.5h-36v-258z" />
    <glyph glyph-name="uni0425" unicode="&#x425;" horiz-adv-x="683" 
d="M449 334l202 -334q-35 -6 -92 -6t-91 6l-132 222l-121 -222q-35 -6 -92 -6t-91 6l202 334l-194 316q34 6 91 6t92 -6l124 -206l113 206q34 6 91.5 6t91.5 -6z" />
    <glyph glyph-name="uni0426" unicode="&#x426;" horiz-adv-x="754" 
d="M722 133v-234q-80 -14 -160 0v101h-492v650q80 14 160 0v-517h250v517q80 14 160 0v-517h82z" />
    <glyph glyph-name="uni0427" unicode="&#x427;" horiz-adv-x="659" 
d="M429 389v261q80 14 160 0v-650q-80 -14 -160 0v270q-28 -28 -75.5 -47t-102.5 -19q-92 0 -146.5 59.5t-54.5 158.5v228q80 14 160 0v-203q0 -110 97 -110q74 0 122 52z" />
    <glyph glyph-name="uni0428" unicode="&#x428;" horiz-adv-x="982" 
d="M752 133v517q80 14 160 0v-650h-842v650q80 14 160 0v-517h181v517q80 14 160 0v-517h181z" />
    <glyph glyph-name="uni0429" unicode="&#x429;" horiz-adv-x="1026" 
d="M994 133v-234q-80 -14 -160 0v101h-764v650q80 14 160 0v-517h181v517q80 14 160 0v-517h181v517q80 14 160 0v-517h82z" />
    <glyph glyph-name="uni042A" unicode="&#x42a;" horiz-adv-x="693" 
d="M308 436h95q109 0 177 -60t68 -158t-68 -158t-177 -60h-255v517h-110q-12 67 0 133h270v-214zM308 133h95q35 0 58.5 21.5t23.5 63.5t-23.5 63.5t-58.5 21.5h-95v-170z" />
    <glyph glyph-name="uni042B" unicode="&#x42b;" horiz-adv-x="857" 
d="M230 436h95q109 0 177 -60t68 -158t-68 -158t-177 -60h-255v650q80 14 160 0v-214zM627 0v650q80 14 160 0v-650q-80 -14 -160 0zM230 133h95q35 0 58.5 21.5t23.5 63.5t-23.5 63.5t-58.5 21.5h-95v-170z" />
    <glyph glyph-name="uni042C" unicode="&#x42c;" horiz-adv-x="615" 
d="M230 436h95q109 0 177 -60t68 -158t-68 -158t-177 -60h-255v650q80 14 160 0v-214zM230 133h95q35 0 58.5 21.5t23.5 63.5t-23.5 63.5t-58.5 21.5h-95v-170z" />
    <glyph glyph-name="uni042D" unicode="&#x42d;" horiz-adv-x="684" 
d="M272 665q175 0 271 -96.5t96 -243.5t-96 -243.5t-271 -96.5q-117 0 -198 50q-6 17 -7 75t7 70q101 -62 189 -62q81 0 134.5 37t70.5 105h-241q-12 66 0 133h241q-19 66 -72 102.5t-133 36.5q-88 0 -189 -62q-8 12 -7 70t7 75q81 50 198 50z" />
    <glyph glyph-name="uni042E" unicode="&#x42e;" horiz-adv-x="1043" 
d="M653 665q152 0 248.5 -98.5t96.5 -241.5t-96.5 -241.5t-248.5 -98.5q-133 0 -225 77.5t-114 197.5h-84v-260q-80 -14 -160 0v650q80 14 160 0v-257h84q23 119 115 195.5t224 76.5zM653 118q76 0 129 56.5t53 150.5t-53 150.5t-129 56.5t-129 -56.5t-53 -150.5t53 -150.5
t129 -56.5z" />
    <glyph glyph-name="uni042F" unicode="&#x42f;" horiz-adv-x="641" 
d="M571 650v-650q-80 -14 -160 0v220h-62l-143 -220q-35 -6 -87.5 -6t-86.5 6l158 244q-58 26 -91 76t-33 115q0 96 66.5 155.5t175.5 59.5h263zM411 517h-100q-35 0 -58.5 -21t-23.5 -61t23.5 -61t58.5 -21h100v164z" />
    <glyph glyph-name="uni0430" unicode="&#x430;" horiz-adv-x="474" 
d="M228 415q101 0 147 -48.5t46 -144.5v-222q-63 -11 -125 0l-9 40q-47 -55 -113 -55q-56 0 -96.5 34t-40.5 95q0 60 40.5 94t102.5 34t96 -29v22q0 34 -18.5 49t-60.5 15q-57 0 -122 -35q-8 12 -7 55.5t7 60.5q57 35 153 35zM219 154q-38 0 -38 -30q0 -13 9.5 -22t27.5 -9
q33 0 58 17v28q-21 16 -57 16z" />
    <glyph glyph-name="uni0431" unicode="&#x431;" horiz-adv-x="521" 
d="M299 405q83 0 134 -59.5t51 -143.5q0 -93 -62.5 -155t-160.5 -62q-99 0 -160 67t-61 182v53q0 147 63 221.5t207 98.5q88 14 139 43q8 -12 7 -66t-7 -71q-33 -22 -61 -29.5t-97 -17.5q-60 -9 -83 -33.5t-23 -78.5q44 51 114 51zM262 110q33 0 55 24.5t22 62.5
q0 40 -23.5 61.5t-53.5 21.5q-43 0 -77 -32v-45q0 -48 21 -70.5t56 -22.5z" />
    <glyph glyph-name="uni0432" unicode="&#x432;" horiz-adv-x="479" 
d="M55 400h209q76 0 119 -23.5t43 -83.5t-59 -83q72 -27 72 -96q0 -114 -162 -114h-222v400zM200 298v-55h51q33 0 33 27q0 28 -33 28h-51zM200 161v-59h59q35 0 35 28q0 31 -35 31h-59z" />
    <glyph glyph-name="uni0433" unicode="&#x433;" horiz-adv-x="413" 
d="M55 400h322q11 -62 0 -126l-177 1v-275q-73 -13 -145 0v400z" />
    <glyph glyph-name="uni0434" unicode="&#x434;" horiz-adv-x="606" 
d="M576 121v-222q-71 -12 -142 0v101h-262v-101q-71 -12 -142 0v222h55q37 21 46 112l17 167h361v-279h67zM364 279l-83 1l-5 -47q-10 -87 -42 -112h130v158z" />
    <glyph glyph-name="uni0435" unicode="&#x435;" horiz-adv-x="489" 
d="M258 415q48 0 86.5 -16.5t59.5 -42t35 -57.5t12.5 -62.5t-7.5 -56.5h-257q6 -35 32 -54t64 -19q62 0 127 38q8 -12 7 -56.5t-7 -61.5q-56 -42 -143 -42q-103 0 -165 60t-62 156q0 94 61.5 154t156.5 60zM259 306q-49 0 -64 -52h118q-6 52 -54 52z" />
    <glyph glyph-name="uni0436" unicode="&#x436;" horiz-adv-x="743" 
d="M587 210l126 -210q-80 -14 -160 0l-109 189v-189q-72 -13 -145 0v189l-109 -189q-80 -14 -160 0l126 210l-122 190q80 14 160 0l105 -171v171q73 13 145 0v-171l105 171q80 14 160 0z" />
    <glyph glyph-name="uni0437" unicode="&#x437;" horiz-adv-x="411" 
d="M189 415q69 0 119 -32t50 -90q0 -60 -59 -83q72 -27 72 -96q0 -62 -51.5 -95.5t-124.5 -33.5q-92 0 -148 42q-6 17 -7 55.5t7 50.5q65 -38 122 -38t57 37q0 29 -35 29h-70q-6 27 -6 41t6 41h61q34 0 34 29q0 15 -13.5 24t-37.5 9q-50 0 -115 -38q-8 12 -7 50.5t7 55.5
q56 42 139 42z" />
    <glyph glyph-name="uni0438" unicode="&#x438;" horiz-adv-x="547" 
d="M200 204l184 196q35 6 55 6t54 -6v-400q-73 -13 -145 0v196l-184 -196q-34 -6 -54 -6t-55 6v400q73 13 145 0v-196z" />
    <glyph glyph-name="uni0439" unicode="&#x439;" horiz-adv-x="546" 
d="M274 478q-87 0 -143 42q-6 17 -7 61.5t7 56.5q65 -38 143 -38t143 38q8 -12 7 -56.5t-7 -61.5q-56 -42 -143 -42zM200 204l184 196q35 6 55 6t54 -6v-400q-73 -13 -145 0v196l-184 -196q-34 -6 -54 -6t-55 6v400q73 13 145 0v-196z" />
    <glyph glyph-name="uni043A" unicode="&#x43a;" horiz-adv-x="509" 
d="M345 210l134 -210q-81 -14 -162 0l-117 190v-190q-73 -13 -145 0v400q73 13 145 0v-172l113 172q81 14 162 0z" />
    <glyph glyph-name="uni043B" unicode="&#x43b;" horiz-adv-x="541" 
d="M487 400v-400q-73 -13 -145 0v279l-83 1l-13 -124q-9 -83 -50 -127t-102 -44q-21 0 -57 6q-6 17 -7 62t7 57q9 -3 18 -3q22 0 32.5 12t13.5 40l25 241h361z" />
    <glyph glyph-name="uni043C" unicode="&#x43c;" horiz-adv-x="675" 
d="M534 400l111 -400q-69 -12 -139 0l-42 184l-72 -184q-34 -6 -54 -6t-55 6l-72 184l-42 -184q-69 -12 -139 0l111 400q34 6 54.5 6t54.5 -6l88 -211l87 211q35 6 55 6t54 -6z" />
    <glyph glyph-name="uni043D" unicode="&#x43d;" horiz-adv-x="548" 
d="M349 268v132q73 13 145 0v-400q-72 -13 -145 0v142l-149 1v-143q-73 -13 -145 0v400q73 13 145 0v-132h149z" />
    <glyph glyph-name="uni043E" unicode="&#x43e;" horiz-adv-x="524" 
d="M262 415q97 0 159.5 -62t62.5 -153t-62.5 -153t-159.5 -62t-159.5 62t-62.5 153t62.5 153t159.5 62zM262 290q-33 0 -55 -24t-22 -66t22 -66t55 -24t55 24t22 66t-22 66t-55 24z" />
    <glyph glyph-name="uni043F" unicode="&#x43f;" horiz-adv-x="543" 
d="M489 400v-400q-72 -13 -145 0v279l-144 1v-280q-73 -13 -145 0v400h434z" />
    <glyph glyph-name="uni0440" unicode="&#x440;" horiz-adv-x="541" 
d="M317 415q83 0 133.5 -61.5t50.5 -153.5t-50.5 -153.5t-133.5 -61.5q-73 0 -115 50v-198q-73 -13 -145 0v563q63 11 125 0l11 -47q47 62 124 62zM277 110q35 0 57 24t22 66t-22 66t-57 24q-41 0 -75 -32v-116q34 -32 75 -32z" />
    <glyph glyph-name="uni0441" unicode="&#x441;" horiz-adv-x="460" 
d="M281 107q54 0 119 38q8 -12 7 -56.5t-7 -61.5q-56 -42 -134 -42q-101 0 -163.5 59.5t-62.5 155.5t62.5 155.5t163.5 59.5q78 0 134 -42q6 -17 7 -61.5t-7 -56.5q-65 38 -119 38q-42 0 -69 -24.5t-27 -68.5t27 -68.5t69 -24.5z" />
    <glyph glyph-name="uni0442" unicode="&#x442;" horiz-adv-x="465" 
d="M36 400h393q11 -62 0 -126h-124v-274q-73 -13 -145 0v275h-124q-11 63 0 125z" />
    <glyph glyph-name="uni0443" unicode="&#x443;" horiz-adv-x="527" 
d="M264 191l81 209q76 13 152 0l-246 -563q-74 -13 -147 0l86 197l-160 366q76 13 152 0z" />
    <glyph glyph-name="uni0444" unicode="&#x444;" horiz-adv-x="713" 
d="M434 415h22q100 0 163.5 -62t63.5 -153t-63.5 -153t-163.5 -62h-22v-148q-72 -13 -145 0v148h-22q-100 0 -163.5 62t-63.5 153t63.5 153t163.5 62h22v235q72 13 145 0v-235zM289 293h-22q-37 0 -59.5 -24.5t-22.5 -68.5t22.5 -68.5t59.5 -24.5h22v186zM434 293v-186h22
q37 0 59.5 24.5t22.5 68.5t-22.5 68.5t-59.5 24.5h-22z" />
    <glyph glyph-name="uni0445" unicode="&#x445;" horiz-adv-x="518" 
d="M357 210l131 -210q-81 -14 -162 0l-71 116l-66 -116q-79 -14 -159 0l132 210l-124 190q81 14 162 0l64 -103l58 103q80 14 159 0z" />
    <glyph glyph-name="uni0446" unicode="&#x446;" horiz-adv-x="569" 
d="M539 121v-222q-71 -12 -142 0v101h-342v400q73 13 145 0v-280h127v280q73 13 145 0v-279h67z" />
    <glyph glyph-name="uni0447" unicode="&#x447;" horiz-adv-x="500" 
d="M301 244v156q72 13 145 0v-400q-72 -13 -145 0v131q-50 -39 -113 -39q-77 0 -114 46t-37 108v154q72 13 145 0v-124q0 -59 57 -59q35 0 62 27z" />
    <glyph glyph-name="uni0448" unicode="&#x448;" horiz-adv-x="764" 
d="M565 121v279q73 13 145 0v-400h-655v400q73 13 145 0v-279h110v279q72 13 145 0v-279h110z" />
    <glyph glyph-name="uni0449" unicode="&#x449;" horiz-adv-x="807" 
d="M777 121v-222q-71 -12 -142 0v101h-580v400q73 13 145 0v-280l110 1v279q72 13 145 0v-280h110v280q73 13 145 0v-279h67z" />
    <glyph glyph-name="uni044A" unicode="&#x44a;" horiz-adv-x="538" 
d="M266 288h77q71 0 116.5 -37.5t45.5 -106.5q0 -71 -39 -107.5t-108 -36.5h-237v279l-85 1q-10 60 0 120h230v-112zM266 107h51q43 0 43 37t-43 37h-51v-74z" />
    <glyph glyph-name="uni044B" unicode="&#x44b;" horiz-adv-x="672" 
d="M200 288h77q71 0 116.5 -37.5t45.5 -106.5q0 -71 -39 -107.5t-108 -36.5h-237v400q73 13 145 0v-112zM473 0v400q73 13 145 0v-400q-72 -13 -145 0zM200 107h51q43 0 43 37t-43 37h-51v-74z" />
    <glyph glyph-name="uni044C" unicode="&#x44c;" horiz-adv-x="472" 
d="M200 288h77q71 0 116.5 -37.5t45.5 -106.5q0 -71 -39 -107.5t-108 -36.5h-237v400q73 13 145 0v-112zM200 107h51q43 0 43 37t-43 37h-51v-74z" />
    <glyph glyph-name="uni044D" unicode="&#x44d;" horiz-adv-x="460" 
d="M194 415q107 0 166.5 -58.5t59.5 -156.5t-59.5 -156.5t-166.5 -58.5q-78 0 -134 42q-6 17 -7 60.5t7 55.5q65 -38 119 -38q76 0 94 52l-123 1q-10 44 0 89h121q-19 48 -92 48q-54 0 -119 -38q-8 12 -7 55.5t7 60.5q56 42 134 42z" />
    <glyph glyph-name="uni044E" unicode="&#x44e;" horiz-adv-x="731" 
d="M469 415q97 0 159.5 -62t62.5 -153t-62.5 -153t-159.5 -62q-79 0 -136 42t-77 110l-56 1v-138q-73 -13 -145 0v400q73 13 145 0v-137h56q20 68 77 110t136 42zM469 110q33 0 55 24t22 66t-22 66t-55 24t-55 -24t-22 -66t22 -66t55 -24z" />
    <glyph glyph-name="uni044F" unicode="&#x44f;" horiz-adv-x="502" 
d="M447 400v-400q-73 -13 -145 0v122h-25l-89 -122q-79 -14 -158 0l103 142q-70 37 -70 114q0 71 39 107.5t108 36.5h237zM302 293h-51q-43 0 -43 -37t43 -37h51v74z" />
    <glyph glyph-name="uni0451" unicode="&#x451;" horiz-adv-x="507" 
d="M135 647q38 0 64 -24t26 -61q0 -36 -26 -60t-64 -24t-64 24t-26 60q0 37 26 61t64 24zM380 647q38 0 64 -24t26 -61q0 -36 -26 -60t-64 -24t-64 24t-26 60q0 37 26 61t64 24zM258 415q48 0 86.5 -16.5t59.5 -42t35 -57.5t12.5 -62.5t-7.5 -56.5h-257q6 -35 32 -54t64 -19
q62 0 127 38q8 -12 7 -56.5t-7 -61.5q-56 -42 -143 -42q-103 0 -165 60t-62 156q0 94 61.5 154t156.5 60zM259 306q-49 0 -64 -52h118q-6 52 -54 52z" />
    <glyph glyph-name="Wgrave" unicode="&#x1e80;" horiz-adv-x="1026" 
d="M505 940l111 -174q-9 -17 -33 -35t-43 -22l-130 159q8 18 41.5 43t53.5 29zM994 650l-224 -650q-66 -11 -132 0l-125 384l-125 -384q-66 -11 -132 0l-224 650q83 14 165 0l125 -412l125 412q66 11 132 0l125 -412l125 412q83 14 165 0z" />
    <glyph glyph-name="wgrave" unicode="&#x1e81;" horiz-adv-x="774" 
d="M379 690l111 -174q-9 -17 -33 -35t-43 -22l-130 159q8 18 41.5 43t53.5 29zM188 0l-158 400q77 13 154 0l64 -209l80 209q59 13 118 0l80 -209l64 209q77 13 154 0l-158 -400q-58 -13 -117 0l-82 219l-82 -219q-59 -13 -117 0z" />
    <glyph glyph-name="Wacute" unicode="&#x1e82;" horiz-adv-x="1026" 
d="M410 766l111 174q20 -4 53.5 -29t41.5 -43l-130 -159q-19 4 -43 22t-33 35zM994 650l-224 -650q-66 -11 -132 0l-125 384l-125 -384q-66 -11 -132 0l-224 650q83 14 165 0l125 -412l125 412q66 11 132 0l125 -412l125 412q83 14 165 0z" />
    <glyph glyph-name="wacute" unicode="&#x1e83;" horiz-adv-x="774" 
d="M284 516l111 174q20 -4 53.5 -29t41.5 -43l-130 -159q-19 4 -43 22t-33 35zM188 0l-158 400q77 13 154 0l64 -209l80 209q59 13 118 0l80 -209l64 209q77 13 154 0l-158 -400q-58 -13 -117 0l-82 219l-82 -219q-59 -13 -117 0z" />
    <glyph glyph-name="Wdieresis" unicode="&#x1e84;" horiz-adv-x="1026" 
d="M391 897q38 0 64 -24t26 -61q0 -36 -26 -60t-64 -24t-64 24t-26 60q0 37 26 61t64 24zM636 897q38 0 64 -24t26 -61q0 -36 -26 -60t-64 -24t-64 24t-26 60q0 37 26 61t64 24zM994 650l-224 -650q-66 -11 -132 0l-125 384l-125 -384q-66 -11 -132 0l-224 650q83 14 165 0
l125 -412l125 412q66 11 132 0l125 -412l125 412q83 14 165 0z" />
    <glyph glyph-name="wdieresis" unicode="&#x1e85;" horiz-adv-x="774" 
d="M265 647q38 0 64 -24t26 -61q0 -36 -26 -60t-64 -24t-64 24t-26 60q0 37 26 61t64 24zM510 647q38 0 64 -24t26 -61q0 -36 -26 -60t-64 -24t-64 24t-26 60q0 37 26 61t64 24zM188 0l-158 400q77 13 154 0l64 -209l80 209q59 13 118 0l80 -209l64 209q77 13 154 0
l-158 -400q-58 -13 -117 0l-82 219l-82 -219q-59 -13 -117 0z" />
    <glyph glyph-name="Ygrave" unicode="&#x1ef2;" horiz-adv-x="698" 
d="M341 940l111 -174q-9 -17 -33 -35t-43 -22l-130 159q8 18 41.5 43t53.5 29zM429 225v-225q-80 -14 -160 0v225l-237 425q35 6 86 6t85 -6l146 -276l146 276q35 6 86 6t85 -6z" />
    <glyph glyph-name="ygrave" unicode="&#x1ef3;" horiz-adv-x="527" 
d="M256 690l111 -174q-9 -17 -33 -35t-43 -22l-130 159q8 18 41.5 43t53.5 29zM264 191l81 209q76 13 152 0l-246 -563q-74 -13 -147 0l86 197l-160 366q76 13 152 0z" />
    <glyph glyph-name="endash" unicode="&#x2013;" horiz-adv-x="490" 
d="M36 310h418q12 -54 0 -110l-418 1q-12 54 0 109z" />
    <glyph glyph-name="emdash" unicode="&#x2014;" horiz-adv-x="602" 
d="M36 310h530q12 -54 0 -110l-530 1q-12 54 0 109z" />
    <glyph glyph-name="quoteleft" unicode="&#x2018;" horiz-adv-x="248" 
d="M203 650q-56 -52 -95 -137q14 2 21 2q37 0 63 -24t26 -60q0 -37 -26.5 -61t-63.5 -24q-39 0 -68.5 27t-29.5 82q0 60 33.5 119t62.5 76q38 7 77 0z" />
    <glyph glyph-name="quoteright" unicode="&#x2019;" horiz-adv-x="248" 
d="M120 665q39 0 68.5 -27t29.5 -82q0 -60 -33.5 -119t-62.5 -76q-38 -7 -77 0q56 52 95 137q-14 -2 -21 -2q-37 0 -63 24t-26 60q0 37 26.5 61t63.5 24z" />
    <glyph glyph-name="quotesinglbase" unicode="&#x201a;" horiz-adv-x="248" 
d="M120 154q39 0 68.5 -27t29.5 -82q0 -60 -33.5 -119t-62.5 -76q-38 -7 -77 0q56 52 95 137q-14 -2 -21 -2q-37 0 -63 24t-26 60q0 37 26.5 61t63.5 24z" />
    <glyph glyph-name="quotedblleft" unicode="&#x201c;" horiz-adv-x="465" 
d="M203 650q-56 -52 -95 -137q14 2 21 2q37 0 63 -24t26 -60q0 -37 -26.5 -61t-63.5 -24q-39 0 -68.5 27t-29.5 82q0 60 33.5 119t62.5 76q38 7 77 0zM420 650q-56 -52 -95 -137q14 2 21 2q37 0 63 -24t26 -60q0 -37 -26.5 -61t-63.5 -24q-39 0 -68.5 27t-29.5 82
q0 60 33.5 119t62.5 76q38 7 77 0z" />
    <glyph glyph-name="quotedblright" unicode="&#x201d;" horiz-adv-x="465" 
d="M120 665q39 0 68.5 -27t29.5 -82q0 -60 -33.5 -119t-62.5 -76q-38 -7 -77 0q56 52 95 137q-14 -2 -21 -2q-37 0 -63 24t-26 60q0 37 26.5 61t63.5 24zM337 665q39 0 68.5 -27t29.5 -82q0 -60 -33.5 -119t-62.5 -76q-38 -7 -77 0q56 52 95 137q-14 -2 -21 -2q-37 0 -63 24
t-26 60q0 37 26.5 61t63.5 24z" />
    <glyph glyph-name="quotedblbase" unicode="&#x201e;" horiz-adv-x="465" 
d="M120 154q39 0 68.5 -27t29.5 -82q0 -60 -33.5 -119t-62.5 -76q-38 -7 -77 0q56 52 95 137q-14 -2 -21 -2q-37 0 -63 24t-26 60q0 37 26.5 61t63.5 24zM337 154q39 0 68.5 -27t29.5 -82q0 -60 -33.5 -119t-62.5 -76q-38 -7 -77 0q56 52 95 137q-14 -2 -21 -2q-37 0 -63 24
t-26 60q0 37 26.5 61t63.5 24z" />
    <glyph glyph-name="dagger" unicode="&#x2020;" horiz-adv-x="480" 
d="M320 400h124q12 -66 0 -133h-124v-350q-80 -14 -160 0v350h-124q-12 67 0 133h124v250q80 14 160 0v-250z" />
    <glyph glyph-name="daggerdbl" unicode="&#x2021;" horiz-adv-x="480" 
d="M320 238h124q12 -67 0 -133h-124v-188q-80 -14 -160 0v188h-124q-12 67 0 133h124v101h-124q-12 67 0 133h124v178q80 14 160 0v-178h124q12 -66 0 -133h-124v-101z" />
    <glyph glyph-name="bullet" unicode="&#x2022;" horiz-adv-x="404" 
d="M202 458q71 0 121.5 -50.5t50.5 -121.5t-50.5 -121.5t-121.5 -50.5t-121.5 50.5t-50.5 121.5t50.5 121.5t121.5 50.5z" />
    <glyph glyph-name="ellipsis" unicode="&#x2026;" horiz-adv-x="720" 
d="M120 -15q-38 0 -64 24t-26 60q0 37 26 61t64 24t64 -24t26 -61q0 -36 -26 -60t-64 -24zM360 -15q-38 0 -64 24t-26 60q0 37 26 61t64 24t64 -24t26 -61q0 -36 -26 -60t-64 -24zM600 -15q-38 0 -64 24t-26 60q0 37 26 61t64 24t64 -24t26 -61q0 -36 -26 -60t-64 -24z" />
    <glyph glyph-name="perthousand" unicode="&#x2030;" horiz-adv-x="1084" 
d="M176 665q67 0 106.5 -46t39.5 -124t-39.5 -124t-106.5 -46t-106.5 46t-39.5 124t39.5 124t106.5 46zM575 650l-308 -650q-45 -12 -90 0l308 650q45 12 90 0zM176 578q-39 0 -39 -83t39 -83t39 83t-39 83zM576 325q67 0 106.5 -46t39.5 -124t-39.5 -124t-106.5 -46
t-106.5 46t-39.5 124t39.5 124t106.5 46zM908 325q67 0 106.5 -46t39.5 -124t-39.5 -124t-106.5 -46t-106.5 46t-39.5 124t39.5 124t106.5 46zM576 238q-39 0 -39 -83t39 -83t39 83t-39 83zM908 238q-39 0 -39 -83t39 -83t39 83t-39 83z" />
    <glyph glyph-name="guilsinglleft" unicode="&#x2039;" horiz-adv-x="287" 
d="M172 217l85 -156q-56 -10 -112 0l-115 156l115 156q56 10 112 0z" />
    <glyph glyph-name="guilsinglright" unicode="&#x203a;" horiz-adv-x="287" 
d="M257 217l-115 -156q-56 -10 -112 0l85 156l-85 156q56 10 112 0z" />
    <glyph glyph-name="fraction" unicode="&#x2044;" horiz-adv-x="458" 
d="M428 650l-308 -650q-45 -12 -90 0l308 650q45 12 90 0z" />
    <glyph glyph-name="Euro" unicode="&#x20ac;" horiz-adv-x="753" 
d="M490 118q88 0 189 62q8 -12 7 -70t-7 -75q-81 -50 -198 -50q-142 0 -237.5 73.5t-121.5 189.5h-86q-12 24 0 49h79q-1 9 -1 28t1 28h-79q-12 25 0 49h86q26 116 121.5 189.5t237.5 73.5q117 0 198 -50q6 -17 7 -75t-7 -70q-101 62 -189 62q-69 0 -123.5 -34.5
t-76.5 -95.5h239q12 -24 0 -49h-250q-2 -18 -2 -28t2 -28h210q12 -25 0 -49h-199q22 -61 76.5 -95.5t123.5 -34.5z" />
    <glyph glyph-name="uni2116" unicode="&#x2116;" horiz-adv-x="1187" 
d="M933 665q97 0 159.5 -62t62.5 -153t-62.5 -153t-159.5 -62t-159.5 62t-62.5 153t62.5 153t159.5 62zM658 650v-650q-62 -11 -125 0l-303 381v-381q-80 -14 -160 0v650q62 11 125 0l303 -381v381q80 14 160 0zM933 540q-33 0 -55 -24t-22 -66t22 -66t55 -24t55 24t22 66
t-22 66t-55 24zM741 200h384q14 -65 0 -130h-384q-14 65 0 130z" />
    <glyph glyph-name="trademark" unicode="&#x2122;" horiz-adv-x="562" 
d="M476 650l56 -202q-36 -6 -71 0l-21 93l-36 -93q-28 -5 -55 0l-37 93l-21 -93q-35 -6 -70 0l56 202q27 5 55 0l45 -107l43 107q28 5 56 0zM33 650h198q5 -31 0 -64l-63 1v-139q-37 -6 -73 0v139h-62q-5 31 0 63z" />
    <glyph glyph-name="estimated" unicode="&#x212e;" horiz-adv-x="780" 
d="M390 665q152 0 248.5 -98.5t96.5 -241.5h-558v-211q85 -83 213 -83q175 0 274 127q17 -23 0 -66q-100 -107 -274 -107q-152 0 -248.5 98.5t-96.5 241.5t96.5 241.5t248.5 98.5zM390 619q-128 0 -213 -83v-171h426v171q-85 83 -213 83z" />
    <glyph glyph-name="oneeighth" unicode="&#x215b;" horiz-adv-x="720" 
d="M203 650v-310q-53 -11 -107 0v206l-60 -44q-6 9 -6 41.5t6 43.5l88 63q40 11 79 0zM528 650l-308 -650q-45 -12 -90 0l308 650q45 12 90 0zM558 325q56 0 91 -26t35 -65q0 -50 -44 -75q50 -22 50 -77q0 -45 -38 -71t-94 -26t-94 26t-38 71q0 55 50 77q-44 25 -44 75
q0 39 35 65t91 26zM558 242q-12 0 -20 -7t-8 -18t7.5 -18.5t19.5 -7.5h2q12 0 19.5 7.5t7.5 18.5t-8 18t-20 7zM559 127h-2q-33 0 -33 -30q0 -29 34 -29t34 29q0 30 -33 30z" />
    <glyph glyph-name="threeeighths" unicode="&#x215c;" horiz-adv-x="753" 
d="M135 665q56 0 88.5 -26t32.5 -65q0 -50 -44 -75q50 -22 50 -77q0 -45 -34.5 -71t-89.5 -26q-67 0 -104 26q-4 9 -4 46t4 43q57 -34 89 -34q40 0 40 28q0 26 -39 26h-32q-5 36 0 73h30q35 0 35 25q0 26 -35 26q-29 0 -86 -34q-4 6 -3.5 43t3.5 46q41 26 99 26zM561 650
l-308 -650q-45 -12 -90 0l308 650q45 12 90 0zM591 325q56 0 91 -26t35 -65q0 -50 -44 -75q50 -22 50 -77q0 -45 -38 -71t-94 -26t-94 26t-38 71q0 55 50 77q-44 25 -44 75q0 39 35 65t91 26zM591 242q-12 0 -20 -7t-8 -18t7.5 -18.5t19.5 -7.5h2q12 0 19.5 7.5t7.5 18.5
t-8 18t-20 7zM592 127h-2q-33 0 -33 -30q0 -29 34 -29t34 29q0 30 -33 30z" />
    <glyph glyph-name="fiveeighths" unicode="&#x215d;" horiz-adv-x="747" 
d="M555 650l-308 -650q-45 -12 -90 0l308 650q45 12 90 0zM73 650h176q10 -40 -2 -87h-101l-4 -30q8 2 23 2q42 0 70.5 -26.5t28.5 -72.5q0 -51 -36.5 -81t-93.5 -30q-30 0 -59 7.5t-42 17.5q-3 9 -3.5 47t3.5 44q47 -34 81 -34q20 0 30.5 9t10.5 23q0 31 -53 31
q-27 0 -57 -10zM585 325q56 0 91 -26t35 -65q0 -50 -44 -75q50 -22 50 -77q0 -45 -38 -71t-94 -26t-94 26t-38 71q0 55 50 77q-44 25 -44 75q0 39 35 65t91 26zM585 242q-12 0 -20 -7t-8 -18t7.5 -18.5t19.5 -7.5h2q12 0 19.5 7.5t7.5 18.5t-8 18t-20 7zM586 127h-2
q-33 0 -33 -30q0 -29 34 -29t34 29q0 30 -33 30z" />
    <glyph glyph-name="seveneighths" unicode="&#x215e;" horiz-adv-x="715" 
d="M523 650l-308 -650q-45 -12 -90 0l308 650q45 12 90 0zM285 644l-136 -304q-54 -11 -108 0l100 223h-105q-11 43 0 87h249v-6zM553 325q56 0 91 -26t35 -65q0 -50 -44 -75q50 -22 50 -77q0 -45 -38 -71t-94 -26t-94 26t-38 71q0 55 50 77q-44 25 -44 75q0 39 35 65t91 26
zM553 242q-12 0 -20 -7t-8 -18t7.5 -18.5t19.5 -7.5h2q12 0 19.5 7.5t7.5 18.5t-8 18t-20 7zM554 127h-2q-33 0 -33 -30q0 -29 34 -29t34 29q0 30 -33 30z" />
    <glyph glyph-name="partialdiff" unicode="&#x2202;" horiz-adv-x="521" 
d="M96 650q177 -17 281 -126.5t104 -274.5v-15q0 -113 -60.5 -181t-160.5 -68q-98 0 -160.5 62t-62.5 155q0 84 51 143.5t134 59.5q70 0 114 -51q-20 64 -81.5 106.5t-158.5 58.5q-6 17 -7 68t7 63zM259 280q-30 0 -53.5 -21.5t-23.5 -61.5q0 -38 22 -62.5t55 -24.5
q35 0 56.5 22.5t21.5 70.5v15q0 23 -1 30q-34 32 -77 32z" />
    <glyph glyph-name="emptyset" unicode="&#x2205;" horiz-adv-x="524" 
d="M463 365l-28 -28q49 -58 49 -137q0 -91 -62.5 -153t-159.5 -62q-79 0 -136 43l-28 -28q-26 9 -34 35l26 26q-50 58 -50 139q0 91 62.5 153t159.5 62q80 0 138 -44l29 29q26 -9 34 -35zM185 200q0 -22 6 -38l114 114q-19 14 -43 14q-33 0 -55 -24t-22 -66zM262 110
q33 0 55 24t22 66q0 18 -5 36l-114 -114q18 -12 42 -12z" />
    <glyph glyph-name="product" unicode="&#x220f;" horiz-adv-x="720" 
d="M36 650h648q12 -67 0 -133h-60v-517q-80 -14 -160 0v517h-208v-517q-80 -14 -160 0v517h-60q-12 67 0 133z" />
    <glyph glyph-name="summation" unicode="&#x2211;" horiz-adv-x="511" 
d="M287 133h188q12 -67 0 -133h-445v10l210 315l-210 315v10h445q12 -67 0 -133h-188l116 -173q6 -7 6 -19.5t-6 -19.5z" />
    <glyph glyph-name="minus" unicode="&#x2212;" horiz-adv-x="416" 
d="M36 310h344q12 -54 0 -110l-344 1q-12 54 0 109z" />
    <glyph glyph-name="radical" unicode="&#x221a;" horiz-adv-x="717" 
d="M454 650h227q11 -62 0 -126l-130 1l-229 -525q-58 -13 -117 0l-175 400q76 13 152 0l82 -212z" />
    <glyph glyph-name="infinity" unicode="&#x221e;" horiz-adv-x="619" 
d="M433 422q65 0 110.5 -46t45.5 -110t-46 -110t-110 -46q-77 0 -123 61q-48 -61 -124 -61q-64 0 -110 46t-46 110t46 110t110 46q76 0 124 -61q46 61 123 61zM186 217q22 0 36.5 14t14.5 35q0 22 -14.5 36.5t-36.5 14.5t-36.5 -14.5t-14.5 -36.5q0 -21 14.5 -35t36.5 -14z
M433 216q22 0 36.5 14t14.5 36t-14.5 36.5t-36.5 14.5t-36.5 -14.5t-14.5 -36.5t14.5 -36t36.5 -14z" />
    <glyph glyph-name="integral" unicode="&#x222b;" horiz-adv-x="433" 
d="M396 647q6 -17 7 -64.5t-7 -59.5q-48 20 -61 20q-46 0 -46 -52v-597q0 -68 -44.5 -106t-107.5 -38q-55 0 -100 18q-6 17 -7 64.5t7 59.5q48 -20 61 -20q46 0 46 52v597q0 68 44.5 106t107.5 38q55 0 100 -18z" />
    <glyph glyph-name="approxequal" unicode="&#x2248;" horiz-adv-x="454" 
d="M150 408q34 0 80 -24.5t75 -24.5q13 0 25.5 2.5t26.5 8.5t21.5 9.5t22.5 11.5t17 9q10 -45 0 -89q-2 -1 -22 -12t-29 -15t-27.5 -9t-35.5 -5q-34 0 -80 24.5t-75 24.5q-13 0 -25.5 -2.5t-26.5 -8.5t-21.5 -9.5t-22.5 -11.5t-17 -9q-10 45 0 89q2 1 22 12t29 15t27.5 9
t35.5 5zM150 262q34 0 80 -24.5t75 -24.5q13 0 25.5 2.5t26.5 8.5t21.5 9.5t22.5 11.5t17 9q10 -45 0 -89q-2 -1 -22 -12t-29 -15t-27.5 -9t-35.5 -5q-34 0 -80 24.5t-75 24.5q-13 0 -25.5 -2.5t-26.5 -8.5t-21.5 -9.5t-22.5 -11.5t-17 -9q-10 45 0 89q2 1 22 12t29 15
t27.5 9t35.5 5z" />
    <glyph glyph-name="notequal" unicode="&#x2260;" horiz-adv-x="416" 
d="M274 400h106q12 -54 0 -110h-135l-15 -57h150q12 -54 0 -110l-179 1l-14 -54q-12 -6 -31 -6t-31 6l14 54h-103q-12 54 0 109h132l15 58h-147q-12 55 0 109h176l14 53q12 6 31 6t31 -6z" />
    <glyph glyph-name="lessequal" unicode="&#x2264;" horiz-adv-x="429" 
d="M36 388l357 161q14 -62 0 -125l-158 -60l158 -60q14 -63 0 -125l-357 161q-13 25 0 48zM36 156h357q12 -54 0 -110l-357 1q-12 55 0 109z" />
    <glyph glyph-name="greaterequal" unicode="&#x2265;" horiz-adv-x="429" 
d="M36 549l357 -161q13 -23 0 -48l-357 -161q-14 62 0 125l158 60l-158 60q-14 63 0 125zM36 156h357q12 -54 0 -109l-357 -1q-12 56 0 110z" />
    <glyph glyph-name="lozenge" unicode="&#x25ca;" horiz-adv-x="546" 
d="M273 162l-243 244l243 244l243 -244zM361 406l-88 88l-88 -88l88 -88z" />
    <glyph glyph-name="i.loclTRK" horiz-adv-x="257" 
d="M130 478q-38 0 -64 24t-26 60q0 37 26 61t64 24t64 -24t26 -61q0 -36 -26 -60t-64 -24zM202 400v-400q-72 -13 -145 0v400q73 13 145 0z" />
    <glyph glyph-name="a.ss01" 
d="M224 415q77 0 124 -62l11 47q62 11 125 0v-400q-62 -11 -125 0l-11 47q-47 -62 -124 -62q-83 0 -133.5 61.5t-50.5 153.5t50.5 153.5t133.5 61.5zM264 290q-35 0 -57 -24t-22 -66t22 -66t57 -24q41 0 75 32v116q-34 32 -75 32z" />
    <glyph glyph-name="aacute.ss01" 
d="M173 516l111 174q20 -4 53.5 -29t41.5 -43l-130 -159q-19 4 -43 22t-33 35zM224 415q77 0 124 -62l11 47q62 11 125 0v-400q-62 -11 -125 0l-11 47q-47 -62 -124 -62q-83 0 -133.5 61.5t-50.5 153.5t50.5 153.5t133.5 61.5zM264 290q-35 0 -57 -24t-22 -66t22 -66t57 -24
q41 0 75 32v116q-34 32 -75 32z" />
    <glyph glyph-name="abreve.ss01" 
d="M419 638q8 -12 7 -56.5t-7 -61.5q-56 -42 -143 -42t-143 42q-6 17 -7 61.5t7 56.5q65 -38 143 -38t143 38zM224 415q77 0 124 -62l11 47q62 11 125 0v-400q-62 -11 -125 0l-11 47q-47 -62 -124 -62q-83 0 -133.5 61.5t-50.5 153.5t50.5 153.5t133.5 61.5zM264 290
q-35 0 -57 -24t-22 -66t22 -66t57 -24q41 0 75 32v116q-34 32 -75 32z" />
    <glyph glyph-name="acaron.ss01" 
d="M276 593l86 87q18 -5 44.5 -30.5t34.5 -44.5l-145 -146q-8 -6 -20 -6t-20 6l-145 146q8 19 34.5 44.5t44.5 30.5zM224 415q77 0 124 -62l11 47q62 11 125 0v-400q-62 -11 -125 0l-11 47q-47 -62 -124 -62q-83 0 -133.5 61.5t-50.5 153.5t50.5 153.5t133.5 61.5zM264 290
q-35 0 -57 -24t-22 -66t22 -66t57 -24q41 0 75 32v116q-34 32 -75 32z" />
    <glyph glyph-name="acircumflex.ss01" 
d="M296 680l145 -146q-8 -19 -34.5 -44.5t-44.5 -30.5l-86 87l-86 -87q-18 5 -44.5 30.5t-34.5 44.5l145 146q8 6 20 6t20 -6zM224 415q77 0 124 -62l11 47q62 11 125 0v-400q-62 -11 -125 0l-11 47q-47 -62 -124 -62q-83 0 -133.5 61.5t-50.5 153.5t50.5 153.5t133.5 61.5z
M264 290q-35 0 -57 -24t-22 -66t22 -66t57 -24q41 0 75 32v116q-34 32 -75 32z" />
    <glyph glyph-name="adieresis.ss01" 
d="M154 647q38 0 64 -24t26 -61q0 -36 -26 -60t-64 -24t-64 24t-26 60q0 37 26 61t64 24zM399 647q38 0 64 -24t26 -61q0 -36 -26 -60t-64 -24t-64 24t-26 60q0 37 26 61t64 24zM224 415q77 0 124 -62l11 47q62 11 125 0v-400q-62 -11 -125 0l-11 47q-47 -62 -124 -62
q-83 0 -133.5 61.5t-50.5 153.5t50.5 153.5t133.5 61.5zM264 290q-35 0 -57 -24t-22 -66t22 -66t57 -24q41 0 75 32v116q-34 32 -75 32z" />
    <glyph glyph-name="agrave.ss01" 
d="M268 690l111 -174q-9 -17 -33 -35t-43 -22l-130 159q8 18 41.5 43t53.5 29zM224 415q77 0 124 -62l11 47q62 11 125 0v-400q-62 -11 -125 0l-11 47q-47 -62 -124 -62q-83 0 -133.5 61.5t-50.5 153.5t50.5 153.5t133.5 61.5zM264 290q-35 0 -57 -24t-22 -66t22 -66t57 -24
q41 0 75 32v116q-34 32 -75 32z" />
    <glyph glyph-name="amacron.ss01" 
d="M144 588h259q12 -54 0 -110l-259 1q-12 55 0 109zM224 415q77 0 124 -62l11 47q62 11 125 0v-400q-62 -11 -125 0l-11 47q-47 -62 -124 -62q-83 0 -133.5 61.5t-50.5 153.5t50.5 153.5t133.5 61.5zM264 290q-35 0 -57 -24t-22 -66t22 -66t57 -24q41 0 75 32v116
q-34 32 -75 32z" />
    <glyph glyph-name="aogonek.ss01" 
d="M512 -122q13 -43 0 -88q-18 -5 -48 -5q-45 0 -75.5 25.5t-30.5 71.5q0 59 58 112q-26 0 -57 6l-11 47q-47 -62 -124 -62q-83 0 -133.5 61.5t-50.5 153.5t50.5 153.5t133.5 61.5q77 0 124 -62l11 47q62 11 125 0v-400l-16 -16q-11 -12 -17 -19.5t-12 -20t-6 -25.5
q0 -20 14 -33t39 -13q18 0 26 5zM339 142v116q-34 32 -75 32q-35 0 -57 -24t-22 -66t22 -66t57 -24q41 0 75 32z" />
    <glyph glyph-name="aring.ss01" 
d="M276 683q42 0 72 -30t30 -72q0 -43 -30 -73t-72 -30q-43 0 -73 30t-30 73q0 42 30 72t73 30zM276 606q-11 0 -18.5 -7.5t-7.5 -17.5q0 -11 8 -18.5t18 -7.5t17.5 7.5t7.5 18.5t-7.5 18t-17.5 7zM224 415q77 0 124 -62l11 47q62 11 125 0v-400q-62 -11 -125 0l-11 47
q-47 -62 -124 -62q-83 0 -133.5 61.5t-50.5 153.5t50.5 153.5t133.5 61.5zM264 290q-35 0 -57 -24t-22 -66t22 -66t57 -24q41 0 75 32v116q-34 32 -75 32z" />
    <glyph glyph-name="atilde.ss01" 
d="M212 622q27 0 75 -22q27 -12 52 -12q28 0 86 30q12 -56 0 -110q-3 -1 -13 -6.5t-14 -7.5t-13 -6t-15 -5.5t-14.5 -3t-16.5 -1.5q-27 0 -75 22q-27 12 -52 12q-28 0 -86 -30q-12 56 0 110q3 1 13 6.5t14 7.5t13 6t15 5.5t14.5 3t16.5 1.5zM224 415q77 0 124 -62l11 47
q62 11 125 0v-400q-62 -11 -125 0l-11 47q-47 -62 -124 -62q-83 0 -133.5 61.5t-50.5 153.5t50.5 153.5t133.5 61.5zM264 290q-35 0 -57 -24t-22 -66t22 -66t57 -24q41 0 75 32v116q-34 32 -75 32z" />
    <glyph glyph-name="ae.ss01" horiz-adv-x="788" 
d="M557 415q48 0 86.5 -16.5t59.5 -42t35 -57.5t12.5 -62.5t-7.5 -56.5h-257q6 -35 32 -54t64 -19q62 0 127 38q8 -12 7 -56.5t-7 -61.5q-56 -42 -143 -42q-68 0 -121 28v-13q-43 -13 -86 0l-11 47q-47 -62 -124 -62q-83 0 -133.5 61.5t-50.5 153.5t50.5 153.5t133.5 61.5
q77 0 124 -62l11 47q43 13 86 0v-12q51 27 112 27zM558 306q-49 0 -64 -52h118q-6 52 -54 52zM264 290q-35 0 -57 -24t-22 -66t22 -66t57 -24q41 0 75 32v116q-34 32 -75 32z" />
    <glyph glyph-name="uni0430.ss01" 
d="M224 415q77 0 124 -62l11 47q62 11 125 0v-400q-62 -11 -125 0l-11 47q-47 -62 -124 -62q-83 0 -133.5 61.5t-50.5 153.5t50.5 153.5t133.5 61.5zM264 290q-35 0 -57 -24t-22 -66t22 -66t57 -24q41 0 75 32v116q-34 32 -75 32z" />
    <glyph glyph-name="zero.tf" horiz-adv-x="600" 
d="M300 665q129 0 204 -92t75 -248t-75 -248t-204 -92t-204 92t-75 248t75 248t204 92zM300 532q-116 0 -116 -207t116 -207t116 207t-116 207z" />
    <glyph glyph-name="one.tf" horiz-adv-x="600" 
d="M118 529l169 121q63 11 125 0v-650q-80 -14 -160 0v472l-134 -97q-8 12 -7 74.5t7 79.5z" />
    <glyph glyph-name="two.tf" horiz-adv-x="600" 
d="M331 133h188q12 -66 0 -133h-453v10q175 215 229.5 302t54.5 134q0 43 -24 64.5t-61 21.5q-64 0 -162 -69q-8 12 -7 72.5t7 79.5q26 21 73.5 35.5t101.5 14.5q112 0 173 -60t61 -151q0 -71 -43 -143t-138 -178z" />
    <glyph glyph-name="three.tf" horiz-adv-x="600" 
d="M272 665q107 0 170 -48.5t63 -129.5q0 -51 -24 -91t-65 -62q48 -22 75 -63.5t27 -96.5q0 -88 -68.5 -139t-170.5 -51q-118 0 -197 50q-6 19 -7 79.5t7 72.5q112 -69 183 -69q38 0 64 19t26 58q0 69 -76 69h-79q-11 63 0 126h75q32 0 51 18.5t19 52.5q0 35 -22 53.5
t-58 18.5q-66 0 -178 -69q-8 12 -7 72.5t7 79.5q80 50 185 50z" />
    <glyph glyph-name="four.tf" horiz-adv-x="600" 
d="M478 252h75q11 -65 0 -131h-75v-121q-80 -14 -160 0v121h-272q-11 65 0 131l307 398q63 11 125 0v-398zM318 427l-135 -175h135v175z" />
    <glyph glyph-name="five.tf" horiz-adv-x="600" 
d="M305 409q91 0 152 -55t61 -152q0 -102 -69 -160t-177 -58q-54 0 -107.5 14.5t-86.5 35.5q-6 19 -7 79.5t7 72.5q112 -69 183 -69q41 0 67.5 22.5t26.5 61.5q0 44 -33 66t-86 22q-50 0 -128 -29l55 390h321q12 -67 0 -133h-200l-15 -110q24 2 36 2z" />
    <glyph glyph-name="six.tf" horiz-adv-x="600" 
d="M358 416q83 -2 134 -61t51 -142q0 -95 -66.5 -161.5t-177.5 -66.5q-113 0 -179.5 68.5t-66.5 173.5q0 68 31 141t76 129t86.5 96t71.5 57q35 6 95 6t95 -6q-171 -147 -235 -254q36 21 85 20zM298 118q37 0 59.5 25t22.5 67q0 39 -23 61t-59 22q-43 0 -77 -31
q-5 -32 -5 -58q0 -35 22 -60.5t60 -25.5z" />
    <glyph glyph-name="seven.tf" horiz-adv-x="600" 
d="M549 640l-286 -640q-35 -6 -86 -6t-86 6l231 517h-248q-12 67 0 133h475v-10z" />
    <glyph glyph-name="eight.tf" horiz-adv-x="600" 
d="M300 665q102 0 164 -50t62 -128q0 -51 -24 -91t-65 -62q48 -22 75 -63.5t27 -96.5q0 -88 -67 -139t-172 -51t-172 51t-67 139q0 55 27 96.5t75 63.5q-41 22 -65 62t-24 91q0 78 62 128t164 50zM300 532q-30 0 -49 -20t-19 -52t18.5 -52t47.5 -20h4q29 0 47.5 20t18.5 52
t-19 52t-49 20zM302 264h-4q-32 0 -53 -19t-21 -54q0 -36 21.5 -55t54.5 -19t54.5 19t21.5 55q0 35 -21 54t-53 19z" />
    <glyph glyph-name="nine.tf" horiz-adv-x="600" 
d="M298 665q113 0 179.5 -68.5t66.5 -173.5q0 -68 -31 -141t-76 -129t-86.5 -96t-71.5 -57q-35 -6 -95 -6t-95 6q171 147 235 254q-36 -21 -85 -20q-83 2 -134 61t-51 142q0 95 66.5 161.5t177.5 66.5zM299 532q-37 0 -59.5 -25t-22.5 -67q0 -39 23 -61t59 -22q43 0 77 31
q5 32 5 58q0 35 -22 60.5t-60 25.5z" />
    <glyph glyph-name="zero.dnom" horiz-adv-x="352" 
d="M176 325q67 0 106.5 -46t39.5 -124t-39.5 -124t-106.5 -46t-106.5 46t-39.5 124t39.5 124t106.5 46zM176 238q-39 0 -39 -83t39 -83t39 83t-39 83z" />
    <glyph glyph-name="one.dnom" horiz-adv-x="233" 
d="M36 247l88 63q40 11 79 0v-310q-53 -11 -107 0v206l-60 -44q-6 9 -6 41.5t6 43.5z" />
    <glyph glyph-name="two.dnom" horiz-adv-x="314" 
d="M193 87h85q11 -44 0 -87h-248v6q83 88 110.5 129t27.5 68q0 15 -10.5 25t-30.5 10q-31 0 -77 -34q-4 6 -3.5 46.5t3.5 49.5q33 25 95 25t95.5 -33t33.5 -80q0 -65 -81 -125z" />
    <glyph glyph-name="three.dnom" horiz-adv-x="292" 
d="M135 325q56 0 88.5 -26t32.5 -65q0 -50 -44 -75q50 -22 50 -77q0 -45 -34.5 -71t-89.5 -26q-67 0 -104 26q-4 9 -4 46t4 43q57 -34 89 -34q40 0 40 28q0 26 -39 26h-32q-5 37 0 73h30q35 0 35 25q0 26 -35 26q-29 0 -86 -34q-4 6 -3.5 43t3.5 46q41 26 99 26z" />
    <glyph glyph-name="four.dnom" horiz-adv-x="330" 
d="M259 129h35q10 -40 0 -81h-35v-48q-54 -11 -107 0v48h-116q-10 40 0 81l144 181q40 11 79 0v-181zM152 187l-47 -58h47v58z" />
    <glyph glyph-name="five.dnom" horiz-adv-x="294" 
d="M165 195q42 0 70.5 -26.5t28.5 -72.5q0 -51 -36.5 -81t-93.5 -30q-30 0 -59 7.5t-42 17.5q-3 9 -3.5 47t3.5 44q47 -34 81 -34q20 0 30.5 9t10.5 23q0 31 -53 31q-27 0 -57 -10l28 190h176q10 -40 -2 -87h-101l-4 -30q8 2 23 2z" />
    <glyph glyph-name="six.dnom" horiz-adv-x="322" 
d="M189 195q50 0 76.5 -28.5t26.5 -73.5t-35.5 -76.5t-93.5 -31.5q-62 0 -97.5 36t-35.5 88q0 56 43.5 119.5t75.5 81.5q16 3 58 3t59 -3q-78 -72 -107 -120q13 5 30 5zM163 64q12 0 20.5 8t8.5 21q0 34 -29 34q-14 0 -29 -9q-1 -7 -1 -21q0 -15 8.5 -24t21.5 -9z" />
    <glyph glyph-name="seven.dnom" horiz-adv-x="315" 
d="M285 304l-136 -304q-54 -11 -108 0l100 223h-105q-11 44 0 87h249v-6z" />
    <glyph glyph-name="eight.dnom" horiz-adv-x="324" 
d="M162 325q56 0 91 -26t35 -65q0 -50 -44 -75q50 -22 50 -77q0 -45 -38 -71t-94 -26t-94 26t-38 71q0 55 50 77q-44 25 -44 75q0 39 35 65t91 26zM162 242q-12 0 -20 -7t-8 -18t7.5 -18.5t19.5 -7.5h2q12 0 19.5 7.5t7.5 18.5t-8 18t-20 7zM163 127h-2q-33 0 -33 -30
q0 -29 34 -29t34 29q0 30 -33 30z" />
    <glyph glyph-name="nine.dnom" horiz-adv-x="322" 
d="M159 325q62 0 97.5 -36t35.5 -88q0 -56 -43.5 -119.5t-75.5 -81.5q-17 -3 -58.5 -3t-58.5 3q78 72 107 120q-13 -5 -30 -5q-50 0 -76.5 28.5t-26.5 73.5t35.5 76.5t93.5 31.5zM159 183q14 0 29 9q1 7 1 21q0 15 -8.5 24t-21.5 9q-12 0 -20.5 -8t-8.5 -21q0 -34 29 -34z
" />
    <glyph glyph-name="zero.numr" horiz-adv-x="352" 
d="M176 665q67 0 106.5 -46t39.5 -124t-39.5 -124t-106.5 -46t-106.5 46t-39.5 124t39.5 124t106.5 46zM176 578q-39 0 -39 -83t39 -83t39 83t-39 83z" />
    <glyph glyph-name="one.numr" horiz-adv-x="233" 
d="M36 587l88 63q40 11 79 0v-310q-53 -11 -107 0v206l-60 -44q-6 9 -6 41.5t6 43.5z" />
    <glyph glyph-name="two.numr" horiz-adv-x="314" 
d="M193 427h85q11 -43 0 -87h-248v6q83 88 110.5 129t27.5 68q0 15 -10.5 25t-30.5 10q-31 0 -77 -34q-4 6 -3.5 46.5t3.5 49.5q33 25 95 25t95.5 -33t33.5 -80q0 -65 -81 -125z" />
    <glyph glyph-name="three.numr" horiz-adv-x="292" 
d="M135 665q56 0 88.5 -26t32.5 -65q0 -50 -44 -75q50 -22 50 -77q0 -45 -34.5 -71t-89.5 -26q-67 0 -104 26q-4 9 -4 46t4 43q57 -34 89 -34q40 0 40 28q0 26 -39 26h-32q-5 36 0 73h30q35 0 35 25q0 26 -35 26q-29 0 -86 -34q-4 6 -3.5 43t3.5 46q41 26 99 26z" />
    <glyph glyph-name="four.numr" horiz-adv-x="330" 
d="M259 469h35q10 -41 0 -81h-35v-48q-53 -11 -107 0v48h-116q-10 40 0 81l144 181q40 11 79 0v-181zM152 527l-47 -58h47v58z" />
    <glyph glyph-name="five.numr" horiz-adv-x="294" 
d="M165 535q42 0 70.5 -26.5t28.5 -72.5q0 -51 -36.5 -81t-93.5 -30q-30 0 -59 7.5t-42 17.5q-3 9 -3.5 47t3.5 44q47 -34 81 -34q20 0 30.5 9t10.5 23q0 31 -53 31q-27 0 -57 -10l28 190h176q10 -40 -2 -87h-101l-4 -30q8 2 23 2z" />
    <glyph glyph-name="six.numr" horiz-adv-x="322" 
d="M189 535q50 0 76.5 -28.5t26.5 -73.5t-35.5 -76.5t-93.5 -31.5q-62 0 -97.5 36t-35.5 88q0 56 43.5 119.5t75.5 81.5q17 3 58.5 3t58.5 -3q-78 -72 -107 -120q13 5 30 5zM163 404q12 0 20.5 8t8.5 21q0 34 -29 34q-14 0 -29 -9q-1 -7 -1 -21q0 -15 8.5 -24t21.5 -9z" />
    <glyph glyph-name="seven.numr" horiz-adv-x="315" 
d="M285 644l-136 -304q-54 -11 -108 0l100 223h-105q-11 43 0 87h249v-6z" />
    <glyph glyph-name="eight.numr" horiz-adv-x="324" 
d="M162 665q56 0 91 -26t35 -65q0 -50 -44 -75q50 -22 50 -77q0 -45 -38 -71t-94 -26t-94 26t-38 71q0 55 50 77q-44 25 -44 75q0 39 35 65t91 26zM162 582q-12 0 -20 -7t-8 -18t7.5 -18.5t19.5 -7.5h2q12 0 19.5 7.5t7.5 18.5t-8 18t-20 7zM163 467h-2q-33 0 -33 -30
q0 -29 34 -29t34 29q0 30 -33 30z" />
    <glyph glyph-name="nine.numr" horiz-adv-x="322" 
d="M159 665q62 0 97.5 -36t35.5 -88q0 -56 -43.5 -119.5t-75.5 -81.5q-17 -3 -58.5 -3t-58.5 3q78 72 107 120q-13 -5 -30 -5q-50 0 -76.5 28.5t-26.5 73.5t35.5 76.5t93.5 31.5zM159 523q14 0 29 9q1 7 1 21q0 15 -8.5 24t-21.5 9q-12 0 -20.5 -8t-8.5 -21q0 -34 29 -34z
" />
    <glyph glyph-name="ampersand.ss01" horiz-adv-x="647" 
d="M375 389h234q11 -63 0 -126h-91q20 -40 20 -89q0 -87 -74.5 -138.5t-178.5 -51.5t-178.5 51.5t-74.5 138.5q0 55 27 96.5t75 63.5q-41 22 -65 62t-24 91q0 81 63 129.5t170 48.5q105 0 185 -50q6 -19 7 -79.5t-7 -72.5q-112 69 -178 69q-36 0 -58 -18.5t-22 -53.5
q0 -34 19 -52.5t51 -18.5h43q11 -63 0 -126h-47q-76 0 -76 -69q0 -39 26 -58t64 -19t64 19t26 58v195z" />
    </font>
</defs>
</svg>
